<?xml version="1.0" encoding="utf-8"?>
<!-- Generator: Adobe Illustrator 24.3.0, SVG Export Plug-In . SVG Version: 6.00 Build 0)  -->
<svg version="1.1" id="Layer_1" xmlns="http://www.w3.org/2000/svg" xmlns:xlink="http://www.w3.org/1999/xlink" x="0px" y="0px"
	 viewBox="0 0 512 512" style="enable-background:new 0 0 512 512;" xml:space="preserve">
<style type="text/css">
	.st0{fill-rule:evenodd;clip-rule:evenodd;}
</style>
<g id="XMLID_1_">
	<path id="XMLID_2_" class="st0" d="M256,233.91c9.65-12,15.51-27.36,15.51-44.03c0-16.68-5.85-32.04-15.65-44.03
		c-9.65,12-15.51,27.36-15.51,44.03C240.49,206.56,246.35,221.77,256,233.91L256,233.91z M256,151.26
		c7.75,10.97,12.29,24.28,12.29,38.62c0,14.34-4.53,27.65-12.29,38.62c-7.75-10.97-12.29-24.28-12.29-38.62
		S248.25,162.23,256,151.26L256,151.26z"/>
	<path id="XMLID_3_" class="st0" d="M145.99,232.89c9.36-11.85,14.77-26.77,14.77-43.01c0-16.09-5.71-31.01-14.77-42.86
		c-9.07,11.85-14.77,26.77-14.77,42.86C131.22,206.12,136.78,221.04,145.99,232.89L145.99,232.89z M145.99,152.43
		c7.31,10.68,11.56,23.55,11.56,37.45s-4.24,26.77-11.56,37.45c-7.31-10.68-11.56-23.55-11.56-37.45
		C134.44,175.98,138.68,163.11,145.99,152.43L145.99,152.43z"/>
	<path id="XMLID_4_" class="st0" d="M310.56,119.66c-15.95,0-30.57,5.27-42.42,14.19c12.73,15.21,20.33,34.67,20.33,55.88
		s-7.61,40.81-20.19,55.88c11.7,8.92,26.33,14.19,42.28,14.19c16.24,0,31.31-5.56,43.15-14.92c-12.29-15.07-19.6-34.38-19.6-55.3
		s7.46-40.23,19.75-55.3h-0.15C342.02,125.22,326.95,119.66,310.56,119.66L310.56,119.66z M330.9,189.88
		c0,20.48,6.88,39.35,18.29,54.56c-10.97,7.75-24.28,12.29-38.62,12.29c-13.9,0-26.92-4.24-37.6-11.56
		c11.85-15.36,18.87-34.52,18.87-55.3s-7.02-40.08-18.87-55.3c10.68-7.31,23.7-11.56,37.6-11.56c14.34,0,27.79,4.53,38.62,12.29
		C337.77,150.38,330.9,169.4,330.9,189.88L330.9,189.88z"/>
	<path id="XMLID_5_" class="st0" d="M421.45,99.33c-20.92,0-40.08,7.02-55.44,19.02c-15.36-11.85-34.52-19.02-55.44-19.02
		c-20.48,0-39.5,6.88-54.56,18.29c-15.21-11.56-34.08-18.29-54.56-18.29c-20.92,0-40.08,7.02-55.44,19.02
		c-15.36-11.85-34.52-19.02-55.44-19.02C40.52,99.33,0,139.85,0,189.88s40.52,90.55,90.55,90.55c20.92,0,40.08-7.02,55.44-19.02
		c15.36,11.85,34.52,19.02,55.44,19.02c20.48,0,39.5-6.88,54.56-18.29c15.21,11.56,34.08,18.29,54.56,18.29
		c20.92,0,40.08-7.02,55.44-19.02c15.36,11.85,34.52,19.02,55.44,19.02c50.03,0,90.55-40.52,90.55-90.55S471.48,99.33,421.45,99.33
		L421.45,99.33z M421.45,277.07c-21.07,0-40.37-7.46-55.44-19.89c-15.07,12.43-34.38,19.89-55.44,19.89
		c-20.77,0-39.79-7.17-54.71-19.16c-14.92,12-33.94,19.16-54.56,19.16c-21.07,0-40.37-7.46-55.44-19.89
		c-15.07,12.43-34.38,19.89-55.44,19.89c-48.13,0-87.19-39.06-87.19-87.19s39.06-87.19,87.19-87.19c21.07,0,40.52,7.31,55.59,19.89
		c15.07-12.29,34.38-19.89,55.3-19.89c20.63,0,39.64,7.17,54.56,19.16c14.92-12,33.94-19.16,54.71-19.16
		c21.07,0,40.37,7.46,55.44,19.89l-0.15,8.63l0.15-8.78c15.07-12.29,34.23-19.75,55.3-19.75c48.13,0,87.19,39.06,87.19,87.19
		C508.78,238.01,469.72,277.07,421.45,277.07L421.45,277.07z"/>
	<path id="XMLID_6_" class="st0" d="M90.55,119.66c-38.77,0-70.22,31.45-70.22,70.22s31.45,70.22,70.22,70.22
		c16.24,0,31.31-5.56,43.15-14.92c-12.29-15.07-19.6-34.38-19.6-55.3s7.46-40.23,19.75-55.3h-0.15
		C121.86,125.22,106.79,119.66,90.55,119.66L90.55,119.66z M110.88,189.88c0,20.48,6.88,39.35,18.29,54.56
		c-10.97,7.75-24.28,12.29-38.62,12.29c-37.01,0-66.85-29.99-66.85-66.85c0-37.01,29.99-66.85,66.85-66.85
		c14.34,0,27.79,4.53,38.62,12.29C117.61,150.38,110.88,169.4,110.88,189.88L110.88,189.88z"/>
	<path id="XMLID_7_" class="st0" d="M366.01,147.02c-9.07,11.85-14.77,26.77-14.77,42.86c0,16.24,5.56,31.16,14.77,43.01
		c9.36-11.85,14.77-26.77,14.77-43.01C380.78,173.79,375.22,158.87,366.01,147.02L366.01,147.02z M366.01,227.33
		c-7.31-10.68-11.56-23.55-11.56-37.45c0-13.9,4.24-26.77,11.56-37.45c7.31,10.68,11.56,23.55,11.56,37.45
		C377.56,203.78,373.32,216.65,366.01,227.33L366.01,227.33z"/>
	<path id="XMLID_8_" class="st0" d="M158.57,134.73c12,14.92,19.16,34.52,19.16,55.15c0,20.92-7.31,40.23-19.6,55.15
		c12,9.36,26.77,14.92,43.15,14.92c15.95,0,30.57-5.27,42.28-14.19c-12.73-15.21-20.33-34.67-20.33-56.03s7.61-40.81,20.33-56.03
		c-11.7-8.92-26.48-14.19-42.28-14.19C185.34,119.66,170.28,125.66,158.57,134.73L158.57,134.73z M220.16,189.88
		c0,20.77,7.02,40.08,18.87,55.3c-10.68,7.31-23.7,11.56-37.6,11.56c-14.34,0-27.79-4.53-38.62-12.29
		c11.56-15.21,18.29-34.08,18.29-54.56s-6.88-39.35-18.29-54.56c10.97-7.75,24.28-12.29,38.62-12.29c13.9,0,26.92,4.24,37.6,11.56
		C227.18,149.8,220.16,168.96,220.16,189.88L220.16,189.88z"/>
	<path id="XMLID_9_" class="st0" d="M491.67,189.88c0-38.77-31.45-70.22-70.22-70.22c-15.95,0-30.87,6-42.72,15.07
		c12,14.92,19.02,34.52,19.02,55.15c0,20.92-7.31,40.23-19.6,55.15c12,9.36,26.77,14.92,43.15,14.92
		C460.21,260.1,491.67,228.64,491.67,189.88L491.67,189.88z M401.12,189.88c0-20.48-6.88-39.35-18.29-54.56
		c10.97-7.75,24.28-12.29,38.62-12.29c37.01,0,66.85,29.99,66.85,66.85c0,37.01-29.99,66.85-66.85,66.85
		c-14.34,0-27.79-4.53-38.62-12.29C394.39,229.23,401.12,210.36,401.12,189.88L401.12,189.88z"/>
	<path id="XMLID_33_" class="st0" d="M131.22,189.88c0-16.09,5.56-31.01,14.77-42.86v-8.19c-12.29,13.46-20.04,31.31-20.04,51.05
		c0,19.6,7.61,37.6,19.89,51.05l0.15-8.05C136.78,221.04,131.22,206.12,131.22,189.88L131.22,189.88z"/>
	<path id="XMLID_32_" class="st0" d="M90.55,109.13c21.5,0,40.96,8.34,55.44,21.94l0.15-8.78c-15.07-12.43-34.52-19.89-55.59-19.89
		c-15.51,0-30.13,4.1-42.72,11.12C47.84,113.81,58.08,109.13,90.55,109.13L90.55,109.13z"/>
	<path id="XMLID_31_" class="st0" d="M14.48,162.82c-2.93,8.48-4.68,17.55-4.68,27.06c0,44.62,36.13,80.75,80.75,80.75
		c21.5,0,40.96-8.34,55.44-22.09v8.78c-15.07,12.43-34.38,19.89-55.44,19.89c-48.13,0-87.19-39.06-87.19-87.19
		C3.22,176.86,14.48,162.82,14.48,162.82L14.48,162.82z"/>
	<path id="XMLID_30_" class="st0" d="M160.77,189.88c0-16.09-5.71-31.01-14.77-42.86v-8.19c12.29,13.46,20.04,31.31,20.04,51.05
		c0,12.58-3.07,24.28-8.63,34.67C157.4,224.55,160.77,217.38,160.77,189.88L160.77,189.88z"/>
	<path id="XMLID_29_" class="st0" d="M114.1,189.88c0,20.92,7.31,40.23,19.6,55.3l8.48-0.29c-13.46-14.34-21.5-33.79-21.5-55
		c0-10.68,2.05-20.77,5.71-29.99C126.39,159.89,114.1,179.79,114.1,189.88L114.1,189.88z"/>
	<path id="XMLID_28_" class="st0" d="M90.55,260.1c-38.77,0-70.22-31.45-70.22-70.22s31.45-70.22,70.22-70.22
		c16.38,0,31.31,5.56,43.3,14.92H134l8.34,0.29c-13.46-12.73-31.74-20.48-51.79-20.48c-41.69,0-75.48,33.79-75.48,75.48
		s33.79,75.48,75.48,75.48c11.7,0,22.82-2.63,32.77-7.46C123.32,257.76,115.27,260.1,90.55,260.1L90.55,260.1z"/>
	<path id="XMLID_27_" class="st0" d="M370.25,244.59l8.19,0.59c12.14-15.07,19.46-34.52,19.46-55.3c0-20.63-7.02-40.23-19.02-55.15
		l-8.92,0.29c13.17,14.34,21.5,33.79,21.5,54.86C391.31,210.65,383.27,230.25,370.25,244.59L370.25,244.59z"/>
	<path id="XMLID_26_" class="st0" d="M310.56,270.48c-21.21,0-40.23-8.05-54.71-21.36v8.78c14.92,12.14,34.08,19.16,54.71,19.16
		c21.07,0,40.37-7.46,55.44-19.89v-8.78C351.67,262.14,332.07,270.48,310.56,270.48L310.56,270.48z"/>
	<path id="XMLID_25_" class="st0" d="M310.56,109.13c21.5,0,40.96,8.34,55.44,21.94l0.15-8.63c-15.07-12.43-34.38-19.89-55.44-19.89
		c-15.21,0-29.7,3.95-42.13,10.83C268.43,113.37,276.33,109.13,310.56,109.13L310.56,109.13z"/>
	<path id="XMLID_24_" class="st0" d="M365.86,240.93l0.15-8.05c-9.22-11.85-14.77-26.77-14.77-43.01c0-16.09,5.56-31.01,14.77-42.86
		v-8.19c-12.29,13.46-20.04,31.31-20.04,51.05C346.11,209.48,353.72,227.47,365.86,240.93L365.86,240.93z"/>
	<path id="XMLID_23_" class="st0" d="M380.78,189.88c0-16.09-5.71-31.01-14.77-42.86v-8.19c12.29,13.46,20.04,31.31,20.04,51.05
		c0,12.58-3.07,24.43-8.63,34.82C377.42,224.55,380.78,213.28,380.78,189.88L380.78,189.88z"/>
	<path id="XMLID_22_" class="st0" d="M421.45,109.13c44.62,0,80.75,36.13,80.75,80.75s-36.13,80.75-80.75,80.75
		c-21.5,0-40.96-8.34-55.44-22.09v8.78c15.07,12.43,34.38,19.89,55.44,19.89c48.13,0,87.19-39.06,87.19-87.19
		s-39.06-87.19-87.19-87.19c-15.8,0-30.43,4.1-43.3,11.41C378.73,113.66,392.19,109.13,421.45,109.13L421.45,109.13z"/>
	<path id="XMLID_21_" class="st0" d="M334.26,189.88c0,20.92,7.31,40.23,19.6,55.3l8.48-0.29c-13.46-14.34-21.5-33.79-21.5-55
		c0-10.97,2.19-21.5,6.14-31.01C346.99,158.72,334.26,179.35,334.26,189.88L334.26,189.88z"/>
	<path id="XMLID_20_" class="st0" d="M310.56,119.66c16.38,0,31.31,5.56,43.3,14.92h0.15l8.34,0.29l0,0
		c-13.46-12.73-31.74-20.48-51.64-20.48c-19.6,0-37.45,7.46-50.91,19.75l8.48-0.15C279.99,124.93,294.62,119.66,310.56,119.66
		L310.56,119.66z"/>
	<path id="XMLID_19_" class="st0" d="M201.44,119.66c15.95,0,30.57,5.27,42.28,14.19l8.63,0.29
		c-13.46-12.29-31.31-19.75-50.91-19.75c-19.89,0-38.03,7.9-51.64,20.48l8.78-0.29C170.28,125.66,185.34,119.66,201.44,119.66
		L201.44,119.66z"/>
	<path id="XMLID_18_" class="st0" d="M158.13,114.1c12.73-7.31,27.5-11.56,43.3-11.56c20.63,0,39.64,7.17,54.56,19.16v8.63
		c-14.34-13.17-33.5-21.36-54.56-21.36C178.91,109.13,158.13,114.1,158.13,114.1L158.13,114.1z"/>
	<path id="XMLID_17_" class="st0" d="M288.62,189.88c0-21.36-7.75-40.81-20.33-55.88l-8.48,0.15c13.9,14.48,22.38,34.08,22.38,55.73
		s-8.48,41.25-22.38,55.73l8.63,0.29C281.01,230.69,288.62,211.09,288.62,189.88L288.62,189.88z"/>
	<path id="XMLID_16_" class="st0" d="M271.51,189.88c0-16.68-5.85-32.04-15.65-44.03l0.15-8.05c12.87,13.6,20.77,31.89,20.77,52.08
		c0,12.73-3.07,24.58-8.63,35.11C268.14,224.11,271.51,209.92,271.51,189.88L271.51,189.88z"/>
	<path id="XMLID_15_" class="st0" d="M201.44,260.1c-16.38,0-31.16-5.56-43.15-14.92c0,0-8.19-0.44-8.19-0.59
		c13.46,12.58,31.45,20.77,51.2,20.77c12.29,0,23.84-2.93,34.08-8.05C235.52,257.17,225.13,260.1,201.44,260.1L201.44,260.1z"/>
	<path id="XMLID_14_" class="st0" d="M223.38,189.88c0,21.36,7.61,40.81,20.33,56.03l8.63-0.29c-13.9-14.48-22.38-34.08-22.38-55.73
		c0-11.26,2.34-21.94,6.44-31.74C236.4,158.13,223.38,179.49,223.38,189.88L223.38,189.88z"/>
	<path id="XMLID_13_" class="st0" d="M344.5,257.32c-10.24,5.12-21.8,8.05-33.94,8.05c-19.6,0-37.45-7.46-50.91-19.75l8.63,0.29
		c11.7,8.92,26.33,14.19,42.28,14.19C335.29,260.1,344.5,257.32,344.5,257.32L344.5,257.32z"/>
	<path id="XMLID_12_" class="st0" d="M240.49,189.88c0-16.68,5.85-32.04,15.51-44.03l0.15-8.05c-12.87,13.6-20.77,31.89-20.77,52.08
		c0,20.19,7.9,38.47,20.77,52.08v-8.05C246.35,221.77,240.49,206.56,240.49,189.88L240.49,189.88z"/>
	<path id="XMLID_11_" class="st0" d="M201.44,270.48c-21.5,0-40.96-8.34-55.44-22.09v8.78c15.07,12.43,34.38,19.89,55.44,19.89
		c20.63,0,39.64-7.31,54.56-19.16v-8.78C241.52,262.44,222.5,270.48,201.44,270.48L201.44,270.48z"/>
	<path id="XMLID_10_" class="st0" d="M177.74,189.88c0-20.77-7.17-40.23-19.16-55.15l-8.78,0.29c13.31,14.34,21.5,33.79,21.5,54.86
		c0,20.92-8.05,40.37-21.07,54.71c-0.15,0.15,8.19,0.59,8.19,0.59C170.42,230.11,177.74,210.65,177.74,189.88L177.74,189.88z"/>
	<path id="XMLID_50_" class="st0" d="M491.67,189.88c0-38.77-31.45-70.22-70.22-70.22c-15.95,0-30.87,6-42.72,15.07l-8.92,0.29
		c13.46-12.43,31.89-20.63,51.64-20.63c41.69,0,75.48,33.79,75.48,75.48c0,12.73-3.22,24.72-8.78,35.25
		C488.16,225.13,491.67,216.94,491.67,189.88L491.67,189.88z"/>
	<path id="XMLID_51_" class="st0" d="M421.45,260.1c-16.38,0-31.16-5.56-43.15-14.92l-8.19-0.59c13.46,12.58,31.45,20.77,51.2,20.77
		c11.85,0,22.97-2.78,32.91-7.61C453.92,257.76,449.83,260.1,421.45,260.1L421.45,260.1z"/>
	<path id="XMLID_52_" class="st0" d="M172.03,410.48h31.31l-60.56-91.14h-34.08l8.63,11.41l-53.39,79.73h31.6l8.63-14.77h58.66
		L172.03,410.48L172.03,410.48z M114.83,376.98l17.41-29.99l18.72,29.99H114.83L114.83,376.98z"/>
	<path id="XMLID_55_" class="st0" d="M198.36,344.06h26.92l0.73,39.5c0,11.41,14.63,10.97,15.51,10.97
		c0.88,0,15.36,0.88,15.36-10.68v-39.64h27.36v40.81c0,20.92-22.97,27.65-42.72,27.65s-43.15-5.85-43.15-28.96L198.36,344.06
		L198.36,344.06z"/>
	<path id="XMLID_56_" class="st0" d="M388.68,354.16l-27.5-34.82h-31.31l19.6,22.67c-3.51-0.15-6.73-0.15-9.51-0.15
		c-29.11,0-49.01,14.92-49.01,34.82c0,22.24,23.55,35.99,52.66,35.99s52.66-12.58,52.66-35.99
		C396.14,366.45,393.22,360.3,388.68,354.16L388.68,354.16z M343.48,394.24c-14.04,0-25.45-8.05-25.45-17.99
		s11.41-17.99,25.45-17.99c14.04,0,25.45,8.05,25.45,17.99C368.93,386.19,357.52,394.24,343.48,394.24L343.48,394.24z"/>
	<polygon id="XMLID_59_" class="st0" points="403.02,344.06 403.02,410.48 430.52,410.48 430.52,344.06 	"/>
</g>
</svg>
