<?xml version="1.0" encoding="utf-8"?>
<!-- Generator: Adobe Illustrator 28.2.0, SVG Export Plug-In . SVG Version: 6.00 Build 0)  -->
<svg version="1.1" id="Layer_1" xmlns="http://www.w3.org/2000/svg" xmlns:xlink="http://www.w3.org/1999/xlink" x="0px" y="0px"
	 viewBox="0 0 512 512" style="enable-background:new 0 0 512 512;" xml:space="preserve">
<style type="text/css">
	.st0{fill:#FFFFFF;}
	.st1{fill:#0066B1;}
</style>
<g>
	<rect width="512" height="512"/>
	<g id="BMW-logo-white-default-53px">
		<g id="BMW-logo">
			<g id="BMW-logo-white">
				<g id="BMW-Logo-103x115-White-NEW">
					<path id="Shape" class="st0" d="M256,0C114.62,0,0,114.62,0,256s114.62,256,256,256s256-114.62,256-256S397.38,0,256,0L256,0z
						 M495.35,256c0,132.18-107.15,239.35-239.35,239.35S16.65,388.18,16.65,256S123.82,16.65,256,16.65S495.35,123.82,495.35,256z"
						/>
					<g id="Group" transform="translate(7.304985, 3.108504)">
						<path id="W_60_" class="st0" d="M372.77,144.28c3.48,3.73,8.49,9.75,11.3,13.41l51.84-32.9c-2.59-3.39-6.71-8.53-9.8-12.16
							l-32.83,21.7l-2.24,1.93l1.67-2.44l14.49-28.93l-10.25-10.25l-28.94,14.49l-2.44,1.67l1.94-2.24l21.72-32.81
							c-3.82-3.25-7.5-6.23-12.18-9.84l-32.9,51.79c4.17,3.21,9.66,7.92,13.17,11.12l30.98-16.08l1.99-1.46l-1.46,1.99
							L372.77,144.28z"/>
						<path id="M_60_" class="st0" d="M255.14,78.64l14.16-31.73l0.9-2.81l-0.26,2.94l1.49,42.4c4.97,0.47,10.1,1.16,15.16,2
							l-2.3-62.8c-7.07-0.78-14.12-1.34-21.16-1.64l-13.95,34.63l-0.5,2.57l-0.5-2.57l-13.94-34.63c-7.04,0.3-14.09,0.86-21.16,1.64
							l-2.3,62.8c5.06-0.84,10.19-1.52,15.16-2l1.49-42.4l-0.26-2.94l0.9,2.81l14.16,31.73H255.14z"/>
						<path id="B_x5F_22d_60_" class="st0" d="M140.58,128.68c8.19-8.62,12.82-18.59,4.64-28.1c-4.46-5.16-11.94-6.29-18.14-3.75
							l-0.62,0.24l0.2-0.54c0.92-2.45,1.51-10.28-5.16-15.68c-3.25-2.63-7.33-3.61-11.45-3.19c-7.69,0.78-13.61,6.04-29.71,23.99
							c-4.86,5.42-11.94,13.97-16.18,19.51l44.24,41.96C123.04,146.9,129.02,140.86,140.58,128.68z M82.85,118.42
							c8.91-10.9,18.38-20.79,22.67-24.7c1.35-1.23,2.83-2.47,4.62-2.95c2.9-0.8,5.9,1.26,6.58,4.24c0.68,3-1.2,5.84-3.3,8.19
							c-4.71,5.31-21.99,23.39-21.99,23.39L82.85,118.42z M100.18,134.86c0,0,16.83-17.79,22.32-23.48
							c2.18-2.26,3.58-3.63,5.09-4.37c1.94-0.95,4.06-1.14,5.96,0.12c1.87,1.25,2.72,3.4,2.26,5.54c-0.56,2.54-2.63,4.97-4.35,6.82
							c-2.32,2.48-22.28,23.84-22.31,23.87L100.18,134.86z"/>
					</g>
					<path id="Path" class="st0" d="M407.81,256H256V104.19C339.9,104.19,407.81,172.1,407.81,256z"/>
					<path id="Path_00000051370708699460530960000014950798553166204079_" class="st0" d="M256,256v151.81
						c-83.9,0-151.81-67.91-151.81-151.81H256L256,256z"/>
					<path id="Path_00000129177537568403455020000015523027778060366213_" class="st1" d="M256,104.19V256H104.19
						C104.19,172.1,172.1,104.19,256,104.19z"/>
					<path id="Path_00000049207582089675424460000009073342045681926322_" class="st1" d="M407.81,256
						c0,83.9-67.91,151.81-151.81,151.81V256H407.81z"/>
				</g>
			</g>
		</g>
	</g>
</g>
</svg>
