<?xml version="1.0" encoding="utf-8"?>
<!-- Generator: Adobe Illustrator 24.3.0, SVG Export Plug-In . SVG Version: 6.00 Build 0)  -->
<svg version="1.1" id="Layer_1" xmlns="http://www.w3.org/2000/svg" xmlns:xlink="http://www.w3.org/1999/xlink" x="0px" y="0px"
	 viewBox="0 0 512 512" style="enable-background:new 0 0 512 512;" xml:space="preserve">
<style type="text/css">
	.st0{fill:#D9261C;}
</style>
<g id="XMLID_1_">
	<path id="XMLID_2_" class="st0" d="M256.14,97.93C114.88,97.93,0,168.77,0,256.16c0,86.83,114.88,157.81,256.14,157.81
		c142.1,0,255.86-70.98,255.86-157.81C512,168.77,398.24,97.93,256.14,97.93z M256.14,128.37c132.14,0,239.03,56.81,239.03,127.93
		c0,70.42-106.89,127.51-239.03,127.51c-131.3,0-238.19-57.09-238.19-127.51C18.1,185.04,124.98,128.37,256.14,128.37L256.14,128.37
		z M72.94,197.25v117.69h30.3v-49.66h51.2v20.9h-44.75v28.76h57.37l17.25-11.92v-39.42l-7.86-7.43l7.86-7.01v-33.67l-15.57-18.52
		H72.94V197.25z M196.8,197.25v57.79l12.76,12.34l28.34-0.42v-27.91l-5.33-4.91v-36.89L196.8,197.25L196.8,197.25z M283.63,197.25
		v36.89l-5.33,4.91h-34.09v75.89h35.21v-47.97l26.65,0.42l12.76-11.92v-58.21L283.63,197.25L283.63,197.25z M331.19,197.25v117.69
		h31.98v-88.09h34.79l9.4,10.66v48.39h-37.73v29.04h69.3v-96.79l-17.67-20.9H331.19L331.19,197.25z M103.24,225.86h50.78v20.9
		h-50.78V225.86z"/>
</g>
</svg>
