<?xml version="1.0" encoding="utf-8"?>
<!-- Generator: Adobe Illustrator 26.5.0, SVG Export Plug-In . SVG Version: 6.00 Build 0)  -->
<svg version="1.1" id="Layer_1" xmlns="http://www.w3.org/2000/svg" xmlns:xlink="http://www.w3.org/1999/xlink" x="0px" y="0px"
	 viewBox="0 0 512 512" style="enable-background:new 0 0 512 512;" xml:space="preserve">
<style type="text/css">
	.st0{fill:#C9C9CA;}
	.st1{fill:url(#SVGID_1_);}
	.st2{fill:url(#SVGID_00000171682281747237608380000000685862294118036886_);}
	.st3{fill:url(#SVGID_00000026127350283790369400000001178447463527699370_);}
	.st4{fill:url(#SVGID_00000029756062975148224620000004191385258292832896_);}
	.st5{fill:url(#SVGID_00000082359175450778424540000015311097225751044280_);}
	.st6{fill:url(#SVGID_00000080191429024961339590000017028620021665202090_);}
	.st7{fill:url(#SVGID_00000038407539901070567570000013321593896395786130_);}
	.st8{fill:url(#SVGID_00000157991347671464091640000008326771617290664103_);}
	.st9{fill:url(#SVGID_00000005954008186296212160000010805248020496034237_);}
	.st10{fill:url(#SVGID_00000147197440837902704320000004507940526068696996_);}
	.st11{fill:url(#SVGID_00000167356827834370648250000009805163607607788214_);}
	.st12{fill:url(#SVGID_00000025405376661553935120000003470950287939429288_);}
	.st13{fill:url(#SVGID_00000066483040031856822070000016036827708933779348_);}
	.st14{fill:url(#SVGID_00000036946346251604522360000013291418682414879631_);}
	.st15{fill:url(#SVGID_00000003809049648758001420000012458805340474557590_);}
	.st16{fill:url(#SVGID_00000073693224824687723860000005376226900754379946_);}
	.st17{fill:url(#SVGID_00000031196826626206341180000007216888232645079974_);}
	.st18{fill:url(#SVGID_00000105420461602605086170000013815140830911574964_);}
	.st19{fill:url(#SVGID_00000175291854242614629090000012069437618160439448_);}
	.st20{fill:url(#SVGID_00000174602097416632154020000013025492737677563826_);}
	.st21{fill:url(#SVGID_00000104667013491930883070000018183713351552829578_);}
	.st22{fill:url(#SVGID_00000147939041020181279370000015224996537668697749_);}
	.st23{fill:url(#SVGID_00000041973757137691021180000002571404201725144490_);}
	.st24{fill:#4B4B4B;}
	.st25{fill:url(#SVGID_00000006700653258990976550000009411292653456491955_);}
	.st26{fill:url(#SVGID_00000113320285599895334390000009738019267232608446_);}
	.st27{fill:#FFFFFF;}
</style>
<g>
	<path class="st0" d="M256,160.05C113.9,160.05,0,202.7,0,256c0,53.02,114.88,95.95,256,95.95S512,308.88,512,256
		S397.12,160.05,256,160.05 M510.46,248.57c0.14,0.42,0.14,0.98,0.28,1.4C510.6,249.55,510.46,249.13,510.46,248.57"/>
	
		<radialGradient id="SVGID_1_" cx="-3729.084" cy="988.3054" r="127.7946" gradientTransform="matrix(8.6315 0 0 4.3839 32441.8438 -3855.9082)" gradientUnits="userSpaceOnUse">
		<stop  offset="0" style="stop-color:#00082E"/>
		<stop  offset="0.155" style="stop-color:#000A30"/>
		<stop  offset="0.242" style="stop-color:#010F39"/>
		<stop  offset="0.312" style="stop-color:#011946"/>
		<stop  offset="0.373" style="stop-color:#02275A"/>
		<stop  offset="0.414" style="stop-color:#03346C"/>
		<stop  offset="0.439" style="stop-color:#0B4F87"/>
		<stop  offset="0.48" style="stop-color:#1676AF"/>
		<stop  offset="0.513" style="stop-color:#1C8EC7"/>
		<stop  offset="0.533" style="stop-color:#1F97D0"/>
		<stop  offset="1" style="stop-color:#1F97D0"/>
	</radialGradient>
	<path class="st1" d="M256,163.84c-139.29,0-252.07,41.1-252.07,92.16c0,50.92,112.78,92.16,252.07,92.16
		c139.29,0,252.07-41.24,252.07-92.16C508.07,204.94,395.29,163.84,256,163.84"/>
	
		<linearGradient id="SVGID_00000134934808919341648640000015084341327381885845_" gradientUnits="userSpaceOnUse" x1="-4490.0552" y1="473.808" x2="-4489.3857" y2="473.808" gradientTransform="matrix(0 -291.4034 -291.4034 0 138324.7812 -1308063.375)">
		<stop  offset="0" style="stop-color:#00082E"/>
		<stop  offset="0.321" style="stop-color:#010A30"/>
		<stop  offset="0.501" style="stop-color:#030F39"/>
		<stop  offset="0.647" style="stop-color:#071846"/>
		<stop  offset="0.773" style="stop-color:#0D245A"/>
		<stop  offset="0.809" style="stop-color:#0F2961"/>
		<stop  offset="0.839" style="stop-color:#0B386E"/>
		<stop  offset="0.896" style="stop-color:#054E83"/>
		<stop  offset="0.951" style="stop-color:#015B90"/>
		<stop  offset="1" style="stop-color:#006094"/>
	</linearGradient>
	<path style="fill:url(#SVGID_00000134934808919341648640000015084341327381885845_);" d="M257.12,183.2
		c118.39,0,216.16,28.9,231.03,66.35l0,0c-9.82-39.42-110.12-70.42-232.15-70.42c-128.77,0-233.14,34.37-233.14,76.73
		c0,3.51,0.7,6.87,1.96,10.24c-0.56-2.24-0.84-4.35-0.84-6.73C24.13,217.28,128.35,183.2,257.12,183.2L257.12,183.2z"/>
	
		<linearGradient id="SVGID_00000068639849183785311300000000270273933100223926_" gradientUnits="userSpaceOnUse" x1="-4490.0571" y1="-313.8119" x2="-4489.3872" y2="-313.8119" gradientTransform="matrix(1.784331e-14 -291.4034 291.4034 1.784331e-14 91704.6641 -1308063.875)">
		<stop  offset="0" style="stop-color:#00082E"/>
		<stop  offset="0.321" style="stop-color:#010A30"/>
		<stop  offset="0.501" style="stop-color:#030F39"/>
		<stop  offset="0.647" style="stop-color:#071846"/>
		<stop  offset="0.773" style="stop-color:#0D245A"/>
		<stop  offset="0.809" style="stop-color:#0F2961"/>
		<stop  offset="0.839" style="stop-color:#0B386E"/>
		<stop  offset="0.896" style="stop-color:#054E83"/>
		<stop  offset="0.951" style="stop-color:#015B90"/>
		<stop  offset="1" style="stop-color:#006094"/>
	</linearGradient>
	<path style="fill:url(#SVGID_00000068639849183785311300000000270273933100223926_);" d="M496.01,246.32
		c0.98,3.09,1.54,6.31,1.54,9.54c0,46.43-108.15,84.02-241.55,84.02c-118.67,0-217.42-29.88-237.76-69.01
		c15.43,40.82,116.29,72.38,238.75,72.52h1.54c133.12-0.14,240.85-37.45,240.85-83.32C499.24,255.44,498.11,250.81,496.01,246.32
		L496.01,246.32z"/>
	
		<linearGradient id="SVGID_00000093154702872628114670000004619133828622901937_" gradientUnits="userSpaceOnUse" x1="-4498.7144" y1="473.2969" x2="-4498.0454" y2="473.2969" gradientTransform="matrix(0 -204.871 -204.871 0 97264.5391 -921335.0625)">
		<stop  offset="0" style="stop-color:#00082E"/>
		<stop  offset="0.321" style="stop-color:#010A30"/>
		<stop  offset="0.501" style="stop-color:#030F39"/>
		<stop  offset="0.647" style="stop-color:#071846"/>
		<stop  offset="0.773" style="stop-color:#0D245A"/>
		<stop  offset="0.809" style="stop-color:#0F2961"/>
		<stop  offset="0.839" style="stop-color:#0B386E"/>
		<stop  offset="0.896" style="stop-color:#054E83"/>
		<stop  offset="0.951" style="stop-color:#015B90"/>
		<stop  offset="1" style="stop-color:#006094"/>
	</linearGradient>
	<path style="fill:url(#SVGID_00000093154702872628114670000004619133828622901937_);" d="M302.43,268.91
		c-0.56-1.4-0.7-2.81-0.28-4.35c0.14-0.56-0.56-0.98-1.12-0.42c-5.47,5.61-5.75,12.91-2.24,16.27c1.26,1.12,2.67,1.68,4.21,1.82
		C300.75,279.15,299.63,273.39,302.43,268.91z"/>
	
		<linearGradient id="SVGID_00000076574831014700215170000015513943409280263062_" gradientUnits="userSpaceOnUse" x1="-4498.7793" y1="473.432" x2="-4498.1133" y2="473.432" gradientTransform="matrix(0 -204.404 -204.404 0 97128.8906 -919247.8125)">
		<stop  offset="0" style="stop-color:#00082E"/>
		<stop  offset="0.321" style="stop-color:#010A30"/>
		<stop  offset="0.501" style="stop-color:#030F39"/>
		<stop  offset="0.647" style="stop-color:#071846"/>
		<stop  offset="0.773" style="stop-color:#0D245A"/>
		<stop  offset="0.809" style="stop-color:#0F2961"/>
		<stop  offset="0.839" style="stop-color:#0B386E"/>
		<stop  offset="0.896" style="stop-color:#054E83"/>
		<stop  offset="0.951" style="stop-color:#015B90"/>
		<stop  offset="1" style="stop-color:#006094"/>
	</linearGradient>
	<path style="fill:url(#SVGID_00000076574831014700215170000015513943409280263062_);" d="M357.28,279.71L357.28,279.71
		c0.28-0.56,0.56-1.12,0.84-1.68c0.28-0.42,0.14-0.56-0.14-0.7c-0.56-0.14-1.12-0.56-1.26-1.12c0-0.14,0-0.14,0-0.28l0,0
		C356.86,277.04,357.14,278.58,357.28,279.71L357.28,279.71z"/>
	
		<linearGradient id="SVGID_00000142889623018665013800000016714227941037132943_" gradientUnits="userSpaceOnUse" x1="-4498.7778" y1="473.4518" x2="-4498.1152" y2="473.4518" gradientTransform="matrix(0 -204.4023 -204.4023 0 97140.6094 -919240.125)">
		<stop  offset="0" style="stop-color:#00082E"/>
		<stop  offset="0.321" style="stop-color:#010A30"/>
		<stop  offset="0.501" style="stop-color:#030F39"/>
		<stop  offset="0.647" style="stop-color:#071846"/>
		<stop  offset="0.773" style="stop-color:#0D245A"/>
		<stop  offset="0.809" style="stop-color:#0F2961"/>
		<stop  offset="0.839" style="stop-color:#0B386E"/>
		<stop  offset="0.896" style="stop-color:#054E83"/>
		<stop  offset="0.951" style="stop-color:#015B90"/>
		<stop  offset="1" style="stop-color:#006094"/>
	</linearGradient>
	<path style="fill:url(#SVGID_00000142889623018665013800000016714227941037132943_);" d="M363.45,257.68
		c1.82,1.68,2.95,3.79,3.09,5.75c0.14,0.98,0.84,0.98,1.4,0.28c0.14-0.28,0.28-0.42,0.56-0.84c-0.14-0.28-0.28-0.42-0.42-0.7
		C366.54,260.63,364.99,259.09,363.45,257.68L363.45,257.68z"/>
	
		<linearGradient id="SVGID_00000043446669900938273320000010374671516790003597_" gradientUnits="userSpaceOnUse" x1="-4498.7627" y1="473.2715" x2="-4498.0913" y2="473.2715" gradientTransform="matrix(0 -204.5335 -204.5335 0 97090.3047 -919826.375)">
		<stop  offset="0" style="stop-color:#00082E"/>
		<stop  offset="0.321" style="stop-color:#010A30"/>
		<stop  offset="0.501" style="stop-color:#030F39"/>
		<stop  offset="0.647" style="stop-color:#071846"/>
		<stop  offset="0.773" style="stop-color:#0D245A"/>
		<stop  offset="0.809" style="stop-color:#0F2961"/>
		<stop  offset="0.839" style="stop-color:#0B386E"/>
		<stop  offset="0.896" style="stop-color:#054E83"/>
		<stop  offset="0.951" style="stop-color:#015B90"/>
		<stop  offset="1" style="stop-color:#006094"/>
	</linearGradient>
	<path style="fill:url(#SVGID_00000043446669900938273320000010374671516790003597_);" d="M288.54,254.18
		c1.4,1.96,2.1,4.77,1.96,8.42c0,0.98,0.7,0.84,1.12,0.28c0.28-0.42,0.42-0.7,0.7-0.98l0,0
		C291.21,258.52,289.67,255.3,288.54,254.18L288.54,254.18z"/>
	
		<linearGradient id="SVGID_00000173862193174622007260000004557306550434072739_" gradientUnits="userSpaceOnUse" x1="-4498.7412" y1="473.4029" x2="-4498.0732" y2="473.4029" gradientTransform="matrix(0 -204.6733 -204.6733 0 97237.7266 -920451.5)">
		<stop  offset="0" style="stop-color:#00082E"/>
		<stop  offset="0.321" style="stop-color:#010A30"/>
		<stop  offset="0.501" style="stop-color:#030F39"/>
		<stop  offset="0.647" style="stop-color:#071846"/>
		<stop  offset="0.773" style="stop-color:#0D245A"/>
		<stop  offset="0.809" style="stop-color:#0F2961"/>
		<stop  offset="0.839" style="stop-color:#0B386E"/>
		<stop  offset="0.896" style="stop-color:#054E83"/>
		<stop  offset="0.951" style="stop-color:#015B90"/>
		<stop  offset="1" style="stop-color:#006094"/>
	</linearGradient>
	<path style="fill:url(#SVGID_00000173862193174622007260000004557306550434072739_);" d="M355.88,263.72
		c-4.49-2.1-11.22,1.82-17.39,9.4c-5.05,6.17-7.72,12.48-7.86,18.66c0,2.24,0.84,4.91,2.67,5.89c0.56,0.28,1.26,0.56,1.96,0.7
		c-0.28-0.84-0.28-1.68-0.28-2.52c-0.14-6.31,1.96-12.62,7.01-18.94c6.17-7.57,12.48-11.36,16.97-9.26
		C358.54,266.1,357.7,264.56,355.88,263.72L355.88,263.72z"/>
	
		<linearGradient id="SVGID_00000101080737359427338540000013675033749763010451_" gradientUnits="userSpaceOnUse" x1="-4498.8081" y1="473.1133" x2="-4498.1387" y2="473.1133" gradientTransform="matrix(0 -204.2081 -204.2081 0 96839.8594 -918372.0625)">
		<stop  offset="0" style="stop-color:#00082E"/>
		<stop  offset="0.321" style="stop-color:#010A30"/>
		<stop  offset="0.501" style="stop-color:#030F39"/>
		<stop  offset="0.647" style="stop-color:#071846"/>
		<stop  offset="0.773" style="stop-color:#0D245A"/>
		<stop  offset="0.809" style="stop-color:#0F2961"/>
		<stop  offset="0.839" style="stop-color:#0B386E"/>
		<stop  offset="0.896" style="stop-color:#054E83"/>
		<stop  offset="0.951" style="stop-color:#015B90"/>
		<stop  offset="1" style="stop-color:#006094"/>
	</linearGradient>
	<path style="fill:url(#SVGID_00000101080737359427338540000013675033749763010451_);" d="M222.47,276.34
		c4.77-6.31,9.96-8.84,15.99-11.36c0.84-0.28,0.84-0.84,0.7-1.54c-0.28-1.26-1.12-4.21-1.4-4.91c0.14,0.7,0,1.12-0.7,1.4
		c-6.87,2.67-13.75,6.59-18.52,13.05c-5.33,7.15-6.87,15.85-3.23,20.9c0.84,1.12,1.82,2.1,2.95,2.67
		C216.44,290.51,217.85,282.51,222.47,276.34L222.47,276.34z"/>
	
		<linearGradient id="SVGID_00000092432650518688029900000008715407052560538796_" gradientUnits="userSpaceOnUse" x1="-4498.7739" y1="473.2591" x2="-4498.1045" y2="473.2591" gradientTransform="matrix(0 -204.4506 -204.4506 0 97043.4922 -919456.1875)">
		<stop  offset="0" style="stop-color:#00082E"/>
		<stop  offset="0.321" style="stop-color:#010A30"/>
		<stop  offset="0.501" style="stop-color:#030F39"/>
		<stop  offset="0.647" style="stop-color:#071846"/>
		<stop  offset="0.773" style="stop-color:#0D245A"/>
		<stop  offset="0.809" style="stop-color:#0F2961"/>
		<stop  offset="0.839" style="stop-color:#0B386E"/>
		<stop  offset="0.896" style="stop-color:#054E83"/>
		<stop  offset="0.951" style="stop-color:#015B90"/>
		<stop  offset="1" style="stop-color:#006094"/>
	</linearGradient>
	<path style="fill:url(#SVGID_00000092432650518688029900000008715407052560538796_);" d="M256.98,314.07c4.63,0,10.38,0,14.17,0
		c0.56,0,0.98-0.42,1.26-0.84c5.75-8.98,11.92-18.8,17.81-27.77c1.26,4.49,1.96,6.73,4.35,8.84c2.38,2.24,4.77,2.81,8,2.81
		c3.09,0,6.03-1.12,9.54-2.67c1.26-0.56,2.38-1.12,3.37-1.82c0-1.68,0.14-3.37,0.42-4.91c0-0.14-0.14-1.26-1.12-0.56
		c-1.96,1.4-4.07,2.52-6.45,3.51c-3.23,1.26-4.77,1.68-7.86,1.68c-3.79,0-7.15-1.68-9.68-5.47c-1.4-1.96-1.96-5.19-1.96-7.43
		c0-0.28-0.28-0.7-0.7-0.14c-6.45,9.82-12.34,19.22-18.66,29.04c-0.28,0.42-0.56,0.7-1.26,0.84c-3.93,0-8.14,0-12.48,0
		c-0.42,0-0.84-0.14-0.84-0.56c0.28,1.54,0.84,4.21,0.98,4.91C256.14,313.79,256.42,314.07,256.98,314.07L256.98,314.07z"/>
	
		<linearGradient id="SVGID_00000139291298107268501870000001851093336870229165_" gradientUnits="userSpaceOnUse" x1="-4498.5288" y1="473.4475" x2="-4497.8604" y2="473.4475" gradientTransform="matrix(0 -206.183 -206.183 0 97974.6328 -927198.8125)">
		<stop  offset="0" style="stop-color:#00082E"/>
		<stop  offset="0.321" style="stop-color:#010A30"/>
		<stop  offset="0.501" style="stop-color:#030F39"/>
		<stop  offset="0.647" style="stop-color:#071846"/>
		<stop  offset="0.773" style="stop-color:#0D245A"/>
		<stop  offset="0.809" style="stop-color:#0F2961"/>
		<stop  offset="0.839" style="stop-color:#0B386E"/>
		<stop  offset="0.896" style="stop-color:#054E83"/>
		<stop  offset="0.951" style="stop-color:#015B90"/>
		<stop  offset="1" style="stop-color:#006094"/>
	</linearGradient>
	<path style="fill:url(#SVGID_00000139291298107268501870000001851093336870229165_);" d="M318.84,308.74
		c1.12,2.1,3.51,4.35,4.91,5.05c8.28,4.07,20.2-0.56,27.77-7.86c0.14-0.14,0.14-0.14,0.14-0.28c0.28,1.26,0.84,2.95,0.84,3.09
		c0.56,1.68,1.4,3.23,2.1,4.07c5.19,5.89,16.27,3.23,27.77-5.75c6.45-4.91,11.22-9.96,17.11-16.83c0.28-0.28,0.28-0.7,0.14-1.4
		c-0.28-1.54-0.84-4.21-1.12-5.47c0,0.28-0.14,0.42-0.28,0.56c-6.03,7.43-12.91,14.45-19.36,19.5c-9.96,7.72-20.06,9.68-24.97,4.77
		c-1.82-1.82-2.81-4.49-2.95-6.73c0-1.26-0.7-1.26-1.26-0.7c-5.89,5.89-16.13,12.34-25.53,7.72c-4.77-2.38-7.29-6.87-8.28-11.78
		v0.14C316.46,300.61,317.3,305.52,318.84,308.74L318.84,308.74z"/>
	
		<linearGradient id="SVGID_00000145743064379810291790000001841667925779214476_" gradientUnits="userSpaceOnUse" x1="-4498.6011" y1="473.3318" x2="-4497.9321" y2="473.3318" gradientTransform="matrix(0 -205.6651 -205.6651 0 97659.1719 -924883.625)">
		<stop  offset="0" style="stop-color:#00082E"/>
		<stop  offset="0.321" style="stop-color:#010A30"/>
		<stop  offset="0.501" style="stop-color:#030F39"/>
		<stop  offset="0.647" style="stop-color:#071846"/>
		<stop  offset="0.773" style="stop-color:#0D245A"/>
		<stop  offset="0.809" style="stop-color:#0F2961"/>
		<stop  offset="0.839" style="stop-color:#0B386E"/>
		<stop  offset="0.896" style="stop-color:#054E83"/>
		<stop  offset="0.951" style="stop-color:#015B90"/>
		<stop  offset="1" style="stop-color:#006094"/>
	</linearGradient>
	<path style="fill:url(#SVGID_00000145743064379810291790000001841667925779214476_);" d="M314.77,276.9
		c3.09-1.68,5.75-5.19,5.47-10.94c-0.14-2.81-0.98-5.75-2.38-8.14c0.84,1.68,1.26,3.79,0.98,5.89c-0.56,3.65-2.67,7.01-6.03,8.7
		c-2.95,1.4-6.31,1.12-8.7-0.98c-0.7-0.7-1.26-1.4-1.68-2.38c0.56,2.81,1.12,4.91,1.82,5.89
		C306.64,278.44,310.43,279.29,314.77,276.9z"/>
	
		<linearGradient id="SVGID_00000018218083668038173400000012681749966187243136_" gradientUnits="userSpaceOnUse" x1="-4498.8013" y1="473.4985" x2="-4498.1318" y2="473.4985" gradientTransform="matrix(0 -204.2608 -204.2608 0 97103.1094 -918607.375)">
		<stop  offset="0" style="stop-color:#00082E"/>
		<stop  offset="0.321" style="stop-color:#010A30"/>
		<stop  offset="0.501" style="stop-color:#030F39"/>
		<stop  offset="0.647" style="stop-color:#071846"/>
		<stop  offset="0.773" style="stop-color:#0D245A"/>
		<stop  offset="0.809" style="stop-color:#0F2961"/>
		<stop  offset="0.839" style="stop-color:#0B386E"/>
		<stop  offset="0.896" style="stop-color:#054E83"/>
		<stop  offset="0.951" style="stop-color:#015B90"/>
		<stop  offset="1" style="stop-color:#006094"/>
	</linearGradient>
	<path style="fill:url(#SVGID_00000018218083668038173400000012681749966187243136_);" d="M406.37,228.51
		c-1.96,3.37-39.42,60.46-41.8,66.35c-0.7,1.82-0.84,3.37-0.14,4.35c0.84,0.98,1.96,1.4,3.23,1.4c0.14-0.7,0.42-1.54,0.7-2.38
		c2.38-5.89,37.45-59.34,39.42-62.7c0.14-0.28,0.14-0.56,0-0.84c-0.14-0.56-1.26-6.17-1.4-6.73
		C406.51,228.09,406.51,228.37,406.37,228.51L406.37,228.51z"/>
	
		<linearGradient id="SVGID_00000086682831219879059010000011769191193402614938_" gradientUnits="userSpaceOnUse" x1="-4498.769" y1="473.1825" x2="-4498.0991" y2="473.1825" gradientTransform="matrix(0 -204.4895 -204.4895 0 97014.8906 -919629.8125)">
		<stop  offset="0" style="stop-color:#00082E"/>
		<stop  offset="0.321" style="stop-color:#010A30"/>
		<stop  offset="0.501" style="stop-color:#030F39"/>
		<stop  offset="0.647" style="stop-color:#071846"/>
		<stop  offset="0.773" style="stop-color:#0D245A"/>
		<stop  offset="0.809" style="stop-color:#0F2961"/>
		<stop  offset="0.839" style="stop-color:#0B386E"/>
		<stop  offset="0.896" style="stop-color:#054E83"/>
		<stop  offset="0.951" style="stop-color:#015B90"/>
		<stop  offset="1" style="stop-color:#006094"/>
	</linearGradient>
	<path style="fill:url(#SVGID_00000086682831219879059010000011769191193402614938_);" d="M250.81,255.02
		c0.14,0.14,0.14,0.28,0.28,0.42c2.24,3.37,3.51,8.14,3.65,12.91c0.14,0.98,0.56,1.12,1.12,0.56c0.42-0.42,0.84-0.98,1.4-1.4
		c-0.7-2.67-1.68-5.05-2.67-7.29C253.9,259.37,252.21,256.42,250.81,255.02L250.81,255.02z"/>
	
		<linearGradient id="SVGID_00000064343023066927957860000013096456770829243058_" gradientUnits="userSpaceOnUse" x1="-4498.7793" y1="473.1317" x2="-4498.1104" y2="473.1317" gradientTransform="matrix(0 -204.4135 -204.4135 0 96946.75 -919290.3125)">
		<stop  offset="0" style="stop-color:#00082E"/>
		<stop  offset="0.321" style="stop-color:#010A30"/>
		<stop  offset="0.501" style="stop-color:#030F39"/>
		<stop  offset="0.647" style="stop-color:#071846"/>
		<stop  offset="0.773" style="stop-color:#0D245A"/>
		<stop  offset="0.809" style="stop-color:#0F2961"/>
		<stop  offset="0.839" style="stop-color:#0B386E"/>
		<stop  offset="0.896" style="stop-color:#054E83"/>
		<stop  offset="0.951" style="stop-color:#015B90"/>
		<stop  offset="1" style="stop-color:#006094"/>
	</linearGradient>
	<path style="fill:url(#SVGID_00000064343023066927957860000013096456770829243058_);" d="M190.21,308.46c0.7,0.28,1.4,0,1.68-0.14
		c2.24-1.12,6.73-4.63,8.7-7.01c0.56-0.56,1.12-0.14,1.26,0.42c0.84,2.52,1.96,4.49,3.23,6.59c1.4,2.38,4.35,4.77,8,5.75
		c4.77,1.4,10.1,1.54,16.83-0.98c5.47-2.1,11.22-6.31,15.71-11.22c5.33-5.75,7.29-9.4,9.26-11.92c3.51-4.21,8.84-11.78,16.27-18.24
		c2.67-2.24,5.47-3.65,7.29-2.95c1.12-2.81,0.56-4.35-0.56-5.05c-1.82-1.12-5.33,0.56-8.28,2.81c-8.14,6.17-14.87,15.71-18.38,19.92
		c-1.96,2.52-3.93,6.17-9.26,11.92c-8.28,9.12-19.36,14.31-30.02,10.66c-5.75-1.96-9.96-6.59-11.64-12.34
		c-0.28-1.12-0.98-1.4-1.54-0.7c-1.68,2.1-5.19,5.33-8.14,7.29c-0.28,0.28-1.12,0.7-1.82,0.42c-0.56-0.28-2.81-3.37-3.23-4.21
		c0-0.14-0.14-0.14-0.14-0.28l0,0c0.7,3.79,0.84,4.21,1.96,6.03C188.81,306.92,189.93,308.32,190.21,308.46z"/>
	
		<linearGradient id="SVGID_00000170975507020272358540000000205699145560325523_" gradientUnits="userSpaceOnUse" x1="-4498.8032" y1="472.8785" x2="-4498.1333" y2="472.8785" gradientTransform="matrix(0 -204.2444 -204.2444 0 96712.2031 -918534.0625)">
		<stop  offset="0" style="stop-color:#00082E"/>
		<stop  offset="0.321" style="stop-color:#010A30"/>
		<stop  offset="0.501" style="stop-color:#030F39"/>
		<stop  offset="0.647" style="stop-color:#071846"/>
		<stop  offset="0.773" style="stop-color:#0D245A"/>
		<stop  offset="0.809" style="stop-color:#0F2961"/>
		<stop  offset="0.839" style="stop-color:#0B386E"/>
		<stop  offset="0.896" style="stop-color:#054E83"/>
		<stop  offset="0.951" style="stop-color:#015B90"/>
		<stop  offset="1" style="stop-color:#006094"/>
	</linearGradient>
	<path style="fill:url(#SVGID_00000170975507020272358540000000205699145560325523_);" d="M125.97,274.24
		c2.67-5.47,6.45-8,10.24-10.38c1.54-0.98,2.24-1.96,1.4-4.63c-0.28-0.7-0.42-2.1-0.7-3.37c0.14,1.12-0.42,2.24-1.54,2.67
		c-4.49,2.38-9.96,6.31-12.76,11.78c-2.24,4.49-2.67,9.82,0.7,14.87c0.28,0.42,0.56,0.84,0.98,1.12l0,0
		C123.16,282.23,124.28,277.74,125.97,274.24L125.97,274.24z"/>
	
		<linearGradient id="SVGID_00000122718624825891858700000002288899503536711296_" gradientUnits="userSpaceOnUse" x1="-4498.5283" y1="473.0477" x2="-4497.8589" y2="473.0477" gradientTransform="matrix(0 -206.1787 -206.1787 0 97723.0234 -927178.75)">
		<stop  offset="0" style="stop-color:#00082E"/>
		<stop  offset="0.321" style="stop-color:#010A30"/>
		<stop  offset="0.501" style="stop-color:#030F39"/>
		<stop  offset="0.647" style="stop-color:#071846"/>
		<stop  offset="0.773" style="stop-color:#0D245A"/>
		<stop  offset="0.809" style="stop-color:#0F2961"/>
		<stop  offset="0.839" style="stop-color:#0B386E"/>
		<stop  offset="0.896" style="stop-color:#054E83"/>
		<stop  offset="0.951" style="stop-color:#015B90"/>
		<stop  offset="1" style="stop-color:#006094"/>
	</linearGradient>
	<path style="fill:url(#SVGID_00000122718624825891858700000002288899503536711296_);" d="M172.54,208.45
		c16.55-5.47,34.93-1.96,49.8,1.12c2.1-1.26,3.93-2.24,5.75-3.23c0.84-0.42-0.14-0.98-0.42-0.98c-19.08-3.65-39-8.28-57.93-1.26
		c-13.19,4.91-18.94,15.29-16.13,22.3c0.56,1.26,1.4,2.38,2.53,3.09C155.14,223.04,159.91,212.52,172.54,208.45L172.54,208.45z"/>
	
		<linearGradient id="SVGID_00000098917145088085904640000008509350035735370904_" gradientUnits="userSpaceOnUse" x1="-4498.7871" y1="472.9844" x2="-4498.1177" y2="472.9844" gradientTransform="matrix(0 -204.3566 -204.3566 0 96830.2266 -919035.5625)">
		<stop  offset="0" style="stop-color:#00082E"/>
		<stop  offset="0.321" style="stop-color:#010A30"/>
		<stop  offset="0.501" style="stop-color:#030F39"/>
		<stop  offset="0.647" style="stop-color:#071846"/>
		<stop  offset="0.773" style="stop-color:#0D245A"/>
		<stop  offset="0.809" style="stop-color:#0F2961"/>
		<stop  offset="0.839" style="stop-color:#0B386E"/>
		<stop  offset="0.896" style="stop-color:#054E83"/>
		<stop  offset="0.951" style="stop-color:#015B90"/>
		<stop  offset="1" style="stop-color:#006094"/>
	</linearGradient>
	<path style="fill:url(#SVGID_00000098917145088085904640000008509350035735370904_);" d="M118.67,308.32
		c5.47,3.79,10.8,5.05,16.97,5.19c12.62,0.28,24.27-5.05,36.47-17.39C183.9,284.2,194,267.5,204.1,250.95
		c0.28-0.56,0.7-0.84,2.38-1.12c6.31-0.84,11.92-1.12,17.53-1.68c1.68-0.14,2.95-0.28,3.51,0.28c1.96,1.96,4.35,3.79,5.89,4.77
		c0.98,0,1.82,0.28,2.52,0.84c0.7-0.14,1.26-0.42,1.68-0.84c0.7-0.7,0.7-1.54,0.7-2.24c-0.28-1.4-0.56-4.07-1.12-4.91
		c0.28,0.56,0.14,1.4-0.56,2.1c-0.42,0.56-1.12,0.98-1.96,0.98c-0.7,0-1.12-0.28-2.1-0.7c-1.82-0.98-4.21-2.67-5.75-4.63
		c-0.56-0.7-0.84-0.7-2.1-0.56c-5.89,0.28-15.29,1.26-21.46,1.96c-1.54,0.14-1.68,0.42-2.1,0.98
		c-9.96,16.55-20.76,34.37-32.54,46.29c-12.62,12.76-23.15,16.13-34.23,16.27c-12.91,0.14-24.27-7.15-27.21-19.92l0,0
		C108.85,295.98,113.48,304.53,118.67,308.32L118.67,308.32z"/>
	
		<linearGradient id="SVGID_00000130625436690891896580000007886499822881161630_" gradientUnits="userSpaceOnUse" x1="-4498.6763" y1="473.0005" x2="-4498.0068" y2="473.0005" gradientTransform="matrix(0 -205.1317 -205.1317 0 97203.5625 -922499.5625)">
		<stop  offset="0" style="stop-color:#00082E"/>
		<stop  offset="0.321" style="stop-color:#010A30"/>
		<stop  offset="0.501" style="stop-color:#030F39"/>
		<stop  offset="0.647" style="stop-color:#071846"/>
		<stop  offset="0.773" style="stop-color:#0D245A"/>
		<stop  offset="0.809" style="stop-color:#0F2961"/>
		<stop  offset="0.839" style="stop-color:#0B386E"/>
		<stop  offset="0.896" style="stop-color:#054E83"/>
		<stop  offset="0.951" style="stop-color:#015B90"/>
		<stop  offset="1" style="stop-color:#006094"/>
	</linearGradient>
	<path style="fill:url(#SVGID_00000130625436690891896580000007886499822881161630_);" d="M166.22,252.77
		c-0.28-0.42-0.42-0.98-0.42-1.4c-0.14,2.1,0.7,5.33,1.4,6.31c0.7,1.12,2.95,1.68,4.63,0.42c3.79-2.81,7.29-4.49,11.22-5.19
		c0.98-1.4,2.1-2.81,3.37-4.63c0.14-0.14,0.14-0.28,0.14-0.42c0-0.14-0.14-0.14-0.42-0.14c-5.75,0.14-10.66,1.82-15.43,5.47
		C169.03,254.32,167.07,254.04,166.22,252.77z"/>
	
		<linearGradient id="SVGID_00000036246571419165273690000009205648900433694092_" gradientUnits="userSpaceOnUse" x1="-4498.8032" y1="473.2159" x2="-4498.1328" y2="473.2159" gradientTransform="matrix(0 -204.2487 -204.2487 0 96922.8047 -918553.375)">
		<stop  offset="0" style="stop-color:#00082E"/>
		<stop  offset="0.321" style="stop-color:#010A30"/>
		<stop  offset="0.501" style="stop-color:#030F39"/>
		<stop  offset="0.647" style="stop-color:#071846"/>
		<stop  offset="0.773" style="stop-color:#0D245A"/>
		<stop  offset="0.809" style="stop-color:#0F2961"/>
		<stop  offset="0.839" style="stop-color:#0B386E"/>
		<stop  offset="0.896" style="stop-color:#054E83"/>
		<stop  offset="0.951" style="stop-color:#015B90"/>
		<stop  offset="1" style="stop-color:#006094"/>
	</linearGradient>
	<path style="fill:url(#SVGID_00000036246571419165273690000009205648900433694092_);" d="M320.81,214.06
		c-8,4.35-16.27,5.61-24.97,5.75c-21.04,0.14-40.54-8-60.74-12.34c0,0.84,0.28,1.96-0.42,2.52c-11.22,8.28-21.32,16.69-28.2,28.48
		c-0.28,0.28-0.14,0.56,0.28,0.56c1.82-0.14,3.51-0.14,5.19-0.28c6.17-9.68,12.76-15.29,22.86-22.72c0.7-0.56,1.54-0.98,1.26-3.09
		c20.34,4.49,35.77,11.92,62,12.06c7.86,0,18.8-2.52,24.83-6.17c6.87-4.07,8.7-7.15,8.84-10.24c0.14-0.98-0.14-2.52-0.28-3.23
		c-0.28-1.12-0.42-2.52-0.7-3.51c0.14,0.42,0.14,0.84,0.14,1.4C330.63,206.76,327.82,210.27,320.81,214.06L320.81,214.06z"/>
	
		<linearGradient id="SVGID_00000124860608861596845070000001007414570521955227_" gradientUnits="userSpaceOnUse" x1="-4498.7358" y1="473.1362" x2="-4498.0669" y2="473.1362" gradientTransform="matrix(0 -204.7104 -204.7104 0 97089.4141 -920617.125)">
		<stop  offset="0" style="stop-color:#00082E"/>
		<stop  offset="0.321" style="stop-color:#010A30"/>
		<stop  offset="0.501" style="stop-color:#030F39"/>
		<stop  offset="0.647" style="stop-color:#071846"/>
		<stop  offset="0.773" style="stop-color:#0D245A"/>
		<stop  offset="0.809" style="stop-color:#0F2961"/>
		<stop  offset="0.839" style="stop-color:#0B386E"/>
		<stop  offset="0.896" style="stop-color:#054E83"/>
		<stop  offset="0.951" style="stop-color:#015B90"/>
		<stop  offset="1" style="stop-color:#006094"/>
	</linearGradient>
	<path style="fill:url(#SVGID_00000124860608861596845070000001007414570521955227_);" d="M233.14,227.66
		c-0.28,0.28-0.56,0.42-0.84,0.7c-1.96,2.1-2.67,4.77-2.38,6.87c0.14,0.84,0.42,0.98,0.84,0.98c0.42-0.14,0.84-0.14,1.12-0.42
		c0.14-1.12,0.56-2.24,1.82-3.23c0.84-0.7,1.82-1.12,2.81-0.98c0.84-1.54,0.98-3.37,0-4.21
		C235.66,226.68,234.26,226.82,233.14,227.66L233.14,227.66z"/>
	
		<linearGradient id="SVGID_00000013173626750502951530000003017327093677639589_" gradientUnits="userSpaceOnUse" x1="-4498.7983" y1="473.1411" x2="-4498.1289" y2="473.1411" gradientTransform="matrix(0 -204.2728 -204.2728 0 96887.75 -918661.25)">
		<stop  offset="0" style="stop-color:#00082E"/>
		<stop  offset="0.321" style="stop-color:#010A30"/>
		<stop  offset="0.501" style="stop-color:#030F39"/>
		<stop  offset="0.647" style="stop-color:#071846"/>
		<stop  offset="0.773" style="stop-color:#0D245A"/>
		<stop  offset="0.809" style="stop-color:#0F2961"/>
		<stop  offset="0.839" style="stop-color:#0B386E"/>
		<stop  offset="0.896" style="stop-color:#054E83"/>
		<stop  offset="0.951" style="stop-color:#015B90"/>
		<stop  offset="1" style="stop-color:#006094"/>
	</linearGradient>
	<path style="fill:url(#SVGID_00000013173626750502951530000003017327093677639589_);" d="M241.13,234.96
		c-1.96,3.65-5.05,5.61-8.14,6.59c0,0-0.7,0.14-0.56,0.7c0.14,0.7,2.24,1.96,3.65,2.95c0.14,0,0.42-0.14,0.42-0.14
		c1.54-0.56,4.21-2.24,5.61-5.47c0.98-2.1,1.54-3.79,1.12-7.43c-0.28-2.52-0.84-4.91-1.54-6.03
		C243.09,228.79,242.67,232.15,241.13,234.96L241.13,234.96z"/>
	
		<linearGradient id="SVGID_00000070099147263466358110000005151014845615559818_" gradientUnits="userSpaceOnUse" x1="-4498.793" y1="472.9584" x2="-4498.1221" y2="472.9584" gradientTransform="matrix(0 -204.3203 -204.3203 0 96798.3438 -918873.4375)">
		<stop  offset="0" style="stop-color:#00082E"/>
		<stop  offset="0.321" style="stop-color:#010A30"/>
		<stop  offset="0.501" style="stop-color:#030F39"/>
		<stop  offset="0.647" style="stop-color:#071846"/>
		<stop  offset="0.773" style="stop-color:#0D245A"/>
		<stop  offset="0.809" style="stop-color:#0F2961"/>
		<stop  offset="0.839" style="stop-color:#0B386E"/>
		<stop  offset="0.896" style="stop-color:#054E83"/>
		<stop  offset="0.951" style="stop-color:#015B90"/>
		<stop  offset="1" style="stop-color:#006094"/>
	</linearGradient>
	<path style="fill:url(#SVGID_00000070099147263466358110000005151014845615559818_);" d="M184.74,221.77
		c-5.61,13.05-16.13,23.43-29.04,23.85c-7.29,0.28-12.76-3.23-15.71-8.42c2.1,3.93,5.75,7.29,8.98,9.26
		c2.81,1.68,6.31,2.67,10.24,2.52c13.47-0.42,23.71-11.5,27.07-20.9c0.84-2.52,0.14-5.19-0.28-7.01c-0.14-0.7-0.42-2.24-0.98-3.37
		l0,0C185.44,218.69,185.44,219.95,184.74,221.77L184.74,221.77z"/>
	<path class="st24" d="M256,160.05C113.9,160.05,0,202.7,0,256c0,53.02,114.88,95.95,256,95.95S512,308.88,512,256
		S397.12,160.05,256,160.05 M1.82,257.12c0-11.22,4.91-22.44,15.29-32.96c36.61-37.03,132.7-62,238.47-62.42
		c140.13-0.56,254.46,41.24,254.74,93.14c0,11.22-5.19,22.3-15.57,32.68c-36.61,37.03-132.42,62.14-238.19,62.56
		C116.29,350.83,1.96,309.02,1.82,257.12 M510.46,248.57c0.14,0.42,0.14,0.98,0.28,1.4C510.6,249.55,510.46,249.13,510.46,248.57"/>
	
		<linearGradient id="SVGID_00000075132028594135489300000006844086539318096786_" gradientUnits="userSpaceOnUse" x1="-4486.7603" y1="478.4557" x2="-4486.0908" y2="478.4557" gradientTransform="matrix(-88.4134 -329.9634 -329.9634 88.4134 -238616.9688 -1522370.875)">
		<stop  offset="0" style="stop-color:#A5A5A6"/>
		<stop  offset="0.35" style="stop-color:#D7D7D7"/>
		<stop  offset="0.65" style="stop-color:#D7D7D7"/>
		<stop  offset="1" style="stop-color:#A5A5A6"/>
	</linearGradient>
	<path style="fill:url(#SVGID_00000075132028594135489300000006844086539318096786_);" d="M0.84,256c0,2.52,0.28,5.05,0.84,7.43
		c-0.42-2.1-0.56-4.21-0.56-6.45c0-11.36,5.05-22.86,15.57-33.53c36.89-37.17,132.98-62.14,239.03-62.56
		c14.73,0,29.04,0.28,43.2,1.12c-14.17-0.84-28.48-1.4-42.78-1.4C114.46,160.75,0.84,203.26,0.84,256z"/>
	
		<linearGradient id="SVGID_00000165956135923712807580000017017452193422554519_" gradientUnits="userSpaceOnUse" x1="-3717.3994" y1="606.5483" x2="-3724.2393" y2="581.023" gradientTransform="matrix(8.6315 0 0 8.6315 32441.8438 -4959.5757)">
		<stop  offset="0" style="stop-color:#A5A5A6"/>
		<stop  offset="0.35" style="stop-color:#D7D7D7"/>
		<stop  offset="0.65" style="stop-color:#D7D7D7"/>
		<stop  offset="1" style="stop-color:#A5A5A6"/>
	</linearGradient>
	<path style="fill:url(#SVGID_00000165956135923712807580000017017452193422554519_);" d="M495.17,288.26
		c-36.75,37.03-132.84,62.28-238.75,62.7c-14.73,0.14-29.32-0.28-43.91-1.26c14.17,0.84,28.76,1.4,43.48,1.4
		c140.69,0,255.16-42.92,255.16-95.11c0-1.96-0.14-3.93-0.56-5.89c0.28,1.68,0.28,3.23,0.28,4.91
		C511.16,266.38,505.69,277.74,495.17,288.26"/>
	<path class="st27" d="M256,171.84c-133.4,0-241.55,37.59-241.55,84.02S122.6,339.88,256,339.88s241.55-37.59,241.55-84.02
		C497.55,209.57,389.4,171.84,256,171.84L256,171.84z M256,332.73c-128.77,0-233.14-34.37-233.14-76.73S127.23,179.27,256,179.27
		c128.77,0,233.14,34.37,233.14,76.73C489,298.36,384.77,332.73,256,332.73L256,332.73z"/>
	<path class="st27" d="M406.37,228.51c0.28-0.56,0-0.98-0.7-0.98c-3.93,0-8.98,0-12.91,0c-0.98,0-1.4,0.14-1.96,0.98
		c-1.54,2.81-19.5,29.88-22.86,35.21c-0.56,0.84-1.26,0.7-1.4-0.28c-0.28-3.09-3.09-6.73-7.29-8.42c-3.23-1.26-6.45-1.54-9.68-1.12
		c-5.89,0.84-11.22,3.93-15.85,7.43c-7.01,5.33-13.05,12.2-20.9,17.39c-4.21,2.81-10.1,5.19-14.03,1.54
		c-3.51-3.23-3.09-10.52,2.24-16.27c0.56-0.56,1.26-0.14,1.12,0.42c-0.56,2.52,0.14,5.05,2.1,6.87c2.38,2.1,5.75,2.38,8.7,0.98
		c3.37-1.68,5.47-4.91,6.03-8.7c0.84-5.75-3.51-10.8-9.12-11.22c-4.49-0.28-8.84,1.26-13.05,4.77c-2.1,1.68-3.37,3.09-5.19,5.61
		c-0.42,0.7-1.12,0.7-1.12-0.28c0.14-7.29-2.81-11.5-8.98-11.64c-4.77-0.14-9.82,2.38-13.75,5.61c-4.35,3.51-8.14,8-12.2,12.34
		c-0.56,0.56-0.98,0.56-1.12-0.56c-0.14-4.91-1.4-9.68-3.65-12.91c-0.84-1.12-2.52-1.68-3.93-0.98c-0.7,0.42-2.95,1.4-4.63,2.67
		c-0.84,0.7-1.12,1.68-0.84,2.95c2.24,7.29,1.68,15.57-1.26,22.58c-2.67,6.45-8,12.2-14.17,14.17c-4.07,1.26-8.28,0.7-10.94-2.95
		c-3.65-5.05-2.1-13.75,3.23-20.9c4.77-6.31,11.64-10.38,18.52-13.05c0.84-0.28,0.98-0.84,0.7-1.54c-0.42-1.12-0.98-2.67-1.26-3.37
		c-0.56-1.68-2.38-1.96-4.49-1.68c-4.91,0.56-9.54,2.24-13.89,4.63c-11.64,6.17-17.39,18.24-20.06,24.69
		c-1.26,3.09-2.24,5.05-3.65,6.73c-1.82,2.24-4.07,4.35-8.28,8.14c-0.42,0.28-0.7,0.98-0.28,1.68c0.42,0.84,2.67,3.93,3.23,4.21
		c0.7,0.28,1.54-0.14,1.82-0.42c2.95-1.96,6.45-5.19,8.14-7.29c0.56-0.7,1.26-0.42,1.54,0.7c1.54,5.75,5.75,10.38,11.64,12.34
		c10.66,3.65,21.74-1.54,30.02-10.66c5.33-5.75,7.15-9.4,9.26-11.92c3.51-4.21,10.24-13.75,18.38-19.92
		c2.95-2.24,6.45-3.93,8.28-2.81c1.4,0.98,1.82,3.09-0.42,7.15c-8.28,15.01-20.34,32.82-22.58,37.03c-0.42,0.7,0,1.4,0.7,1.4
		c4.35,0,8.56,0,12.48,0c0.7,0,0.98-0.28,1.26-0.84c6.31-9.96,12.34-19.36,18.66-29.04c0.42-0.56,0.7-0.14,0.7,0.14
		c0.14,2.24,0.7,5.33,1.96,7.43c2.38,3.79,5.89,5.33,9.68,5.33c3.09,0,4.49-0.42,7.86-1.68c2.24-0.84,4.49-1.96,6.45-3.51
		c0.98-0.7,1.12,0.42,1.12,0.56c-1.4,7.86,0.28,17.25,8.14,21.04c9.4,4.63,19.64-1.82,25.53-7.72c0.56-0.56,1.26-0.56,1.26,0.7
		c0.14,2.24,1.12,4.91,2.95,6.73c4.91,4.91,15.01,2.95,24.97-4.77c6.45-4.91,13.19-12.06,19.36-19.5c0.28-0.28,0.42-0.7,0-1.26
		c-0.98-0.98-2.24-2.1-3.23-2.95c-0.42-0.28-0.98-0.28-1.4,0c-6.17,5.89-11.92,12.76-19.92,18.24c-2.81,1.96-7.15,3.51-9.12,0.84
		c-0.7-0.98-0.7-2.52,0.14-4.35C366.96,288.96,404.41,231.87,406.37,228.51 M356.86,276.34c0.14,0.42,0.7,0.84,1.26,1.12
		c0.14,0.14,0.28,0.14,0.14,0.7c-1.54,3.37-3.09,5.33-5.05,8.42c-1.82,2.81-3.93,4.91-6.45,6.87c-3.79,3.09-8.98,6.59-13.33,4.21
		c-1.96-0.98-2.81-3.65-2.67-5.89c0.14-6.17,2.81-12.48,7.86-18.66c6.17-7.57,12.91-11.5,17.39-9.4c4.63,2.24,3.09,7.57,1.12,11.78
		C356.72,275.78,356.72,276.06,356.86,276.34"/>
	<path class="st27" d="M134.38,308.88c-14.03,0.14-26.23-8.56-27.77-23.57c-0.84-8.28,1.54-15.71,6.31-21.74
		c4.21-5.47,11.22-9.96,17.11-11.08c1.96-0.42,4.49-0.14,5.61,1.12c1.68,1.96,1.26,4.07-0.42,5.05c-4.49,2.38-9.96,6.31-12.76,11.78
		c-2.24,4.49-2.67,9.82,0.7,14.87c5.61,8.42,21.32,8.7,35.77-4.77c3.65-3.37,6.87-6.45,10.1-10.24c6.45-7.29,8.56-9.96,17.11-21.88
		c0.14-0.14,0.14-0.28,0.14-0.42s-0.14-0.14-0.42-0.14c-5.75,0.14-10.66,1.82-15.43,5.47c-1.4,0.98-3.37,0.84-4.21-0.42
		c-0.98-1.54-0.28-3.51,1.26-4.63c7.72-5.33,16.27-6.31,24.83-7.86c0,0,0.56,0,1.12-0.56c3.51-4.49,6.17-8.7,9.96-13.33
		c3.79-4.63,8.7-8.98,12.48-12.2c5.19-4.49,8.56-6.03,12.06-7.86c0.84-0.42-0.14-0.98-0.42-0.98c-19.08-3.65-39-8.28-57.93-1.26
		c-13.19,4.91-18.94,15.29-16.13,22.3c1.96,4.91,8.42,5.75,14.59,2.81c5.33-2.67,9.82-6.59,13.05-11.64
		c1.82-2.81,5.75-0.84,3.65,4.21c-5.61,13.05-16.13,23.43-29.04,23.85c-10.94,0.42-18.1-7.72-18.1-17.67
		c0-19.64,22.02-32.68,45.03-34.65c27.77-2.24,54.01,5.05,81.64,8.42c21.18,2.52,41.38,2.67,62.56-2.24
		c2.53-0.56,4.21,1.12,4.07,3.65c-0.14,3.65-3.09,7.15-9.96,10.94c-8,4.35-16.27,5.61-24.97,5.75c-21.04,0.14-40.54-8-60.74-12.34
		c0,0.84,0.28,1.96-0.42,2.52c-11.22,8.28-21.32,16.69-28.2,28.48c-0.28,0.28-0.14,0.56,0.28,0.56c5.89-0.28,11.22-0.42,16.69-0.84
		c0.98-0.14,0.98-0.28,0.98-0.98c-0.42-4.07,0.7-8.7,4.21-11.92c3.65-3.23,8.28-3.65,11.22-1.26c3.51,2.67,3.09,7.57,1.26,11.22
		c-1.96,3.65-5.05,5.61-8.14,6.59c0,0-0.7,0.14-0.56,0.7c0.14,0.98,4.21,3.23,4.63,3.79c0.28,0.56,0.14,1.54-0.42,2.24
		c-0.42,0.56-1.12,0.98-1.96,0.98c-0.7,0-1.12-0.28-2.1-0.7c-1.82-0.98-4.21-2.67-5.75-4.63c-0.56-0.7-0.84-0.7-2.1-0.56
		c-5.89,0.28-15.29,1.26-21.46,1.96c-1.54,0.14-1.68,0.42-2.1,0.98c-9.96,16.55-20.76,34.37-32.54,46.29
		C155.98,305.38,145.6,308.74,134.38,308.88 M230.05,235.38c0.14,0.84,0.42,0.98,0.84,0.98c1.96-0.42,3.93-1.96,5.19-3.79
		c1.12-1.68,1.68-4.07,0.56-5.05c-0.98-0.84-2.67-0.56-3.79,0.42C230.47,230.05,229.63,233.14,230.05,235.38"/>
</g>
</svg>
