<?xml version="1.0" standalone="no"?>
<!DOCTYPE svg PUBLIC "-//W3C//DTD SVG 20010904//EN"
 "http://www.w3.org/TR/2001/REC-SVG-20010904/DTD/svg10.dtd">
<svg version="1.0" xmlns="http://www.w3.org/2000/svg"
 width="640.000000pt" height="347.000000pt" viewBox="0 0 640.000000 347.000000"
 preserveAspectRatio="xMidYMid meet">

<g transform="translate(0.000000,347.000000) scale(0.100000,-0.100000)"
fill="#000000" stroke="none">
<path d="M2260 3461 l-485 -6 2 -65 c2 -36 8 -209 14 -385 7 -211 15 -324 23
-332 13 -14 156 -25 606 -50 432 -23 1162 -23 1570 0 452 26 593 36 601 45 4
4 12 138 18 297 6 160 13 333 16 386 l5 97 -73 6 c-107 8 -1737 14 -2297 7z"/>
<path d="M1105 3443 c-225 -5 -667 -25 -760 -33 -148 -14 -200 -32 -261 -94
-34 -33 -56 -65 -63 -91 -6 -22 -11 -120 -11 -222 0 -192 5 -213 49 -213 10 0
157 -11 327 -25 313 -26 1033 -80 1223 -92 l104 -6 -6 89 c-3 49 -12 225 -18
392 l-13 302 -235 -2 c-130 -1 -281 -3 -336 -5z"/>
<path d="M4719 3373 c0 -43 -6 -215 -13 -383 -8 -168 -10 -309 -6 -314 11 -11
642 33 1480 102 l205 17 8 60 c11 78 2 322 -14 374 -27 92 -111 151 -239 170
-161 23 -839 51 -1267 51 l-153 0 -1 -77z"/>
<path d="M36 2624 c34 -185 78 -286 165 -379 156 -166 395 -257 1009 -384 297
-61 515 -101 548 -101 l25 0 -6 78 c-36 441 -61 718 -67 725 -4 5 -133 17
-286 28 -330 23 -1277 97 -1351 106 l-51 6 14 -79z"/>
<path d="M6170 2684 c-181 -17 -707 -59 -1129 -89 -189 -13 -346 -26 -348 -28
-3 -4 -52 -519 -69 -731 l-7 -88 29 6 c16 3 103 20 194 37 601 111 976 209
1160 305 121 62 233 166 284 264 40 75 86 238 86 301 0 46 15 44 -200 23z"/>
<path d="M1816 2561 c-6 -9 61 -821 67 -827 5 -4 406 -67 597 -93 118 -16 258
-36 310 -43 64 -9 204 -13 430 -13 332 1 337 1 595 38 297 43 684 105 695 112
5 3 11 26 14 53 7 50 66 736 66 764 0 13 -7 16 -32 12 -18 -2 -193 -14 -388
-26 -510 -32 -1401 -31 -1930 0 -201 12 -378 24 -393 25 -15 2 -29 1 -31 -2z"/>
<path d="M69 928 c-25 -19 -46 -46 -51 -63 -5 -16 -9 -184 -9 -371 0 -380 2
-394 64 -432 34 -22 39 -22 591 -22 l556 0 0 264 c0 147 -4 267 -9 270 -5 3
-185 3 -400 -1 l-392 -6 3 -71 3 -71 313 -3 312 -2 0 -115 0 -115 -441 0 -441
0 4 299 c2 165 5 302 8 305 3 3 236 8 518 12 l512 7 0 42 c0 24 3 57 6 74 l7
31 -556 0 -555 0 -43 -32z"/>
<path d="M1490 593 c0 -203 4 -395 10 -427 11 -66 35 -100 84 -115 18 -6 252
-11 556 -13 l525 -3 3 78 3 77 -506 0 -505 0 0 115 0 115 488 2 487 3 3 73 3
72 -249 0 c-137 0 -357 3 -490 7 l-242 6 0 107 0 107 257 6 c141 4 368 7 505
7 l248 0 0 75 0 75 -590 0 -590 0 0 -367z"/>
<path d="M2922 547 c3 -458 1 -445 71 -487 31 -19 54 -20 570 -20 l537 0 0 75
0 75 -505 0 -505 0 0 115 0 115 488 2 487 3 3 78 3 77 -493 0 -493 0 3 110 3
110 122 1 c67 1 293 5 502 8 l380 6 3 73 3 72 -591 0 -592 0 4 -413z"/>
<path d="M4360 549 c0 -448 -1 -439 58 -484 26 -19 45 -20 505 -23 l477 -3 0
76 0 75 -440 0 -440 0 0 385 0 385 -80 0 -80 0 0 -411z"/>
<path d="M5368 677 l282 -282 0 -100 c0 -55 3 -137 7 -182 l6 -83 47 0 c26 0
62 3 79 6 l31 7 0 171 0 171 287 287 288 288 -105 0 -105 0 -215 -215 c-118
-118 -219 -215 -225 -215 -6 0 -107 97 -225 215 l-215 215 -110 0 -110 0 283
-283z"/>
</g>
</svg>
