<?xml version="1.0" encoding="utf-8"?>
<!-- Generator: Adobe Illustrator 26.5.0, SVG Export Plug-In . SVG Version: 6.00 Build 0)  -->
<svg version="1.1" id="Layer_1" xmlns="http://www.w3.org/2000/svg" xmlns:xlink="http://www.w3.org/1999/xlink" x="0px" y="0px"
	 viewBox="0 0 512 512" style="enable-background:new 0 0 512 512;" xml:space="preserve">
<style type="text/css">
	.st0{fill:#161413;}
	.st1{fill:#E11428;}
	.st2{fill-rule:evenodd;clip-rule:evenodd;fill:#B3B3B3;}
</style>
<g id="XMLID_1_">
	<polygon id="XMLID_31_" class="st0" points="54.66,421.26 65.04,421.26 65.04,418.36 40.54,418.36 40.54,421.26 50.92,421.26 
		50.92,443.96 54.66,443.96 	"/>
	<path id="XMLID_32_" class="st0" d="M83.44,443.96h3.6v-10.38c0-5.95-3.6-8.58-8.58-8.58c-3.32,0-6.23,1.25-7.75,3.87V418.5h-3.6
		v25.46h3.6v-8.58c0-5.67,3.6-8.03,7.33-8.03c3.32,0,5.4,1.8,5.4,6.5C83.44,433.86,83.44,443.96,83.44,443.96z"/>
	<path id="XMLID_43_" class="st0" d="M94.93,435.52c0.28,3.6,2.63,6.5,6.78,6.5c3.18,0,5.26-1.11,5.95-3.6h3.87
		c-0.83,4.43-5.26,5.95-9.69,5.95c-6.78,0-10.66-3.6-10.66-9.41c0-6.5,4.15-10.1,10.66-10.1c6.5,0,9.82,3.32,9.82,9.69v0.97
		L94.93,435.52L94.93,435.52z M101.98,427.21c-3.6,0-6.23,1.8-6.78,5.95h13.01C108.21,429.01,105.03,427.21,101.98,427.21z"/>
	<path id="XMLID_44_" class="st0" d="M249.08,428.32c0.55,0,1.25,0,2.63,0.28v-3.18c-0.55-0.28-1.11-0.28-2.08-0.28
		c-3.32,0-5.67,1.8-7.06,4.15l-0.28-3.6h-3.32c0,1.25,0.28,2.63,0.28,4.15v13.98h3.32v-8.86
		C242.58,430.67,244.65,428.32,249.08,428.32z"/>
	<path id="XMLID_45_" class="st0" d="M357.02,428.32c0.83,0,1.52,0,2.91,0.28v-3.18c-0.55-0.28-1.11-0.28-2.35-0.28
		c-3.32,0-5.4,1.8-7.06,4.15v-3.6h-3.32c0,1.25,0,2.63,0,4.15v13.98h3.6v-8.86C350.79,430.67,352.86,428.32,357.02,428.32z"/>
	<polygon id="XMLID_47_" class="st0" points="184.6,441.33 178.92,425.69 174.77,425.69 181.97,443.96 186.95,443.96 192.9,428.6 
		199.4,443.96 204.11,443.96 211.44,425.69 207.57,425.69 201.76,441.33 195.53,425.69 190.82,425.69 	"/>
	<path id="XMLID_52_" class="st0" d="M138.1,433.99h-7.75v9.82h-3.6v-25.46h10.93c7.75-0.28,10.38,3.18,10.38,7.47
		C147.93,430.67,144.88,433.99,138.1,433.99z M137.55,420.99h-7.33v10.1h7.47c4.7,0,6.23-1.8,6.23-5.26
		C144.05,423.06,142.53,420.99,137.55,420.99z"/>
	<path id="XMLID_55_" class="st0" d="M161.21,444.37c-7.33,0-11.21-3.32-11.21-9.69c0-5.95,3.87-9.82,11.21-9.82
		c7.75,0,11.49,3.6,11.49,9.82C172.7,441.05,168.82,444.37,161.21,444.37z M161.21,427.21c-4.98,0-7.47,3.18-7.47,7.61
		c0,3.87,2.63,7.33,7.47,7.33c5.26,0,7.75-3.32,7.75-7.33C168.96,430.4,166.47,427.21,161.21,427.21z"/>
	<path id="XMLID_58_" class="st0" d="M216.84,435.52c0.55,3.6,2.63,6.5,6.78,6.5c3.18,0,5.4-1.11,6.23-3.6h3.6
		c-0.83,4.43-5.26,5.95-9.69,5.95c-6.78,0-10.38-3.6-10.38-9.41c0-6.5,3.87-10.1,10.38-10.1c6.5,0,10.1,3.32,10.1,9.69v0.97
		L216.84,435.52L216.84,435.52z M223.9,427.21c-3.6,0-6.23,1.8-6.78,5.95h13.01C230.12,429.01,226.94,427.21,223.9,427.21z"/>
	<path id="XMLID_62_" class="st0" d="M365.32,435.52c0.28,3.6,2.63,6.5,6.78,6.5c3.18,0,5.26-1.11,5.95-3.6h3.87
		c-0.83,4.43-5.26,5.95-9.82,5.95c-6.5,0-10.38-3.6-10.38-9.41c0-6.5,4.15-10.1,10.66-10.1c6.5,0,9.82,3.32,9.82,9.69v0.97
		L365.32,435.52L365.32,435.52z M372.38,427.21c-3.6,0-6.5,1.8-6.78,5.95h13.01C378.6,429.01,375.42,427.21,372.38,427.21z"/>
	<path id="XMLID_63_" class="st0" d="M298.48,420.29c0.83,0,2.08,0.28,3.87,0.55v-2.63c-1.25-0.28-2.91-0.28-4.7-0.28
		c-5.26,0-6.78,2.63-6.78,7.06v0.83h-4.7v2.35h4.7v15.91h3.32v-15.91h7.47v-2.35h-7.47v-1.52
		C294.33,421.26,295.71,420.29,298.48,420.29z"/>
	<path id="XMLID_69_" class="st0" d="M273.3,444.37c-7.47,0-11.49-3.32-11.49-9.69c0-5.95,4.15-9.82,11.49-9.82
		c7.47,0,11.49,3.6,11.49,9.82C284.78,441.05,280.63,444.37,273.3,444.37z M273.3,427.21c-4.98,0-7.47,3.18-7.47,7.61
		c0,3.87,2.63,7.33,7.47,7.33c4.98,0,7.47-3.32,7.47-7.33C280.77,430.4,278.56,427.21,273.3,427.21z"/>
	<path id="XMLID_70_" class="st0" d="M428.83,429.29c-0.97-2.91-3.87-4.43-6.5-4.43c-2.63,0-5.26,1.25-6.78,3.87l-0.28-3.18h-3.32
		c0,1.25,0.28,2.63,0.28,4.15v13.98h3.32v-8.86c0-5.4,3.18-7.75,5.95-7.75c2.91,0,4.43,2.08,4.43,7.33v9.41h3.6v-8.86
		c0-6.5,3.87-7.75,5.67-7.75c3.6,0,4.7,2.63,4.7,7.33v9.41h3.32V433.3c0-5.95-3.18-8.3-7.47-8.3
		C432.16,424.86,429.53,427.49,428.83,429.29z"/>
	<path id="XMLID_71_" class="st0" d="M457.06,444.37c6.78,0,10.1-1.8,10.1-5.67c0-2.91-1.8-4.15-5.26-4.7l-5.95-1.25
		c-2.63-0.55-3.87-1.11-3.87-2.63c0-1.8,2.08-2.91,5.4-2.91c2.63,0,4.98,0.83,5.26,3.18h3.6c0-4.43-4.98-5.4-8.86-5.4
		c-4.7,0-8.86,1.52-8.86,5.67c0,2.91,2.08,4.15,4.98,4.7l5.67,1.11c1.8,0.55,3.87,1.11,3.87,2.63c0,2.08-2.08,3.18-5.95,3.18
		c-3.18,0-5.4-1.11-5.95-3.32h-3.6C448.07,442.85,451.94,444.37,457.06,444.37z"/>
	<path id="XMLID_78_" class="st0" d="M327.68,443.96h-10.93V418.5h10.93c9.82,0,14.25,4.43,14.25,12.73
		C341.93,439.25,336.67,443.96,327.68,443.96z M326.57,420.99h-5.95v20.06h6.5c8.86,0,10.93-4.7,10.93-9.82
		C338.06,424.45,335.71,420.99,326.57,420.99z"/>
	<path id="XMLID_81_" class="st0" d="M402.54,443.96h3.32c0-1.11,0-2.08,0-3.6v-8.86c0-4.43-3.6-6.5-8.86-6.5
		c-3.87,0-8.58,1.11-9.13,5.4h3.87c0.28-1.8,2.08-3.18,5.26-3.18c3.18,0,5.26,1.25,5.26,4.43v0.83h-2.08
		c-4.15,0-13.56-0.28-13.56,5.95c0,3.6,3.18,5.95,7.75,5.95c3.6,0,5.95-0.28,7.75-3.18L402.54,443.96z M402.27,435.79
		c0,4.43-2.35,6.23-6.78,6.23c-3.6,0-4.98-1.52-4.98-3.6c0-3.87,7.33-3.6,9.82-3.6h1.8v0.97H402.27z"/>
	<path id="XMLID_84_" class="st1" d="M402.27,396.63v-7.75l8.03-0.83c2.63-0.55,3.6-2.91,4.15-3.32l19.51-31.97
		c1.52-2.35,0-4.7-2.08-4.98l-10.1-0.97v-8.03h44.42c2.63,0,4.15,1.8,5.26,3.32l26.02,39.85c2.08,3.18,3.6,5.67,6.23,5.95l8.3,0.83
		v8.03h-50.23v-7.75l6.23-0.83c3.18-0.28,5.67-1.8,3.18-5.4l-2.35-3.6h-35.56l-2.91,4.15c-1.52,2.63,0,4.43,2.63,4.7l6.5,0.83v7.75
		H402.27z M439.49,368.54h22.56l-11.49-17.71L439.49,368.54z"/>
	<path id="XMLID_87_" class="st1" d="M368.92,338.65h-57.15v8.03l7.06,0.55c2.91,0.55,3.87,2.35,3.87,4.98s0,29.06,0,31.14
		c0,2.35-1.11,4.43-3.32,4.7l-7.47,1.11v7.47h57.15c26.57,0,37.92-12.73,37.92-29.89C406.97,351.52,395.49,338.65,368.92,338.65z
		 M360.2,385.42h-14.81v-35.56h14.81c14.25,0,20.06,3.18,20.06,17.99C380.13,382.24,374.45,385.42,360.2,385.42z"/>
	<path id="XMLID_88_" class="st1" d="M0,396.63h46.5v-7.75l-8.03-0.83c-1.8-0.28-3.6-1.25-3.6-5.26v-9.41h35.84v8.86
		c0,2.63-0.55,5.26-3.6,5.4l-8.03,0.83v8.03h46.5v-8.03l-8.3-0.83c-1.52-0.28-3.32-1.52-3.32-4.7V352.9c0-3.18,1.11-5.26,3.6-5.4
		l8.03-0.83v-8.03h-46.5v7.75l8.03,0.97c2.91,0.28,3.6,2.63,3.6,5.4v8.86H34.87v-9.13c0-3.32,1.52-4.98,3.87-5.26l7.75-0.83v-8.03
		H0.28v8.03l7.75,0.83c2.91,0.28,3.87,2.63,3.6,5.4v29.34c0,3.32-0.83,5.4-3.87,5.67L0,388.47C0,388.47,0,396.63,0,396.63z"/>
	<path id="XMLID_97_" class="st1" d="M107.66,367.43c0-18.27,14.81-31,47.6-31c32.52,0,47.33,12.73,47.33,31
		c0,18.4-14.81,31.14-47.33,31.14C122.46,398.71,107.66,385.98,107.66,367.43z M155.26,347.37c-13.28,0-20.76,4.98-20.76,20.06
		c0,15.36,7.61,20.34,20.76,20.34c13.01,0,20.48-4.98,20.48-20.34C175.74,352.35,168.27,347.37,155.26,347.37z"/>
	<path id="XMLID_98_" class="st1" d="M205.22,396.63h36.95v-7.75l-7.75-0.83c-2.35-0.28-3.6-2.08-3.6-4.98v-29.34l30.72,40.54
		c0.97,1.52,3.18,2.35,4.98,2.35h29.06v-44c0-2.08,0.55-4.98,3.32-5.26l8.03-0.83v-8.03h-36.95v7.75l8.03,0.97
		c2.91,0.28,3.32,2.91,3.32,5.4v28.64L250.88,341c-1.25-1.52-2.91-2.63-4.98-2.63h-40.82v8.03l7.47,0.83
		c2.91,0.55,3.87,1.8,3.87,5.4v29.34c0,3.6-1.11,5.26-3.87,5.67l-7.47,0.83v8.16H205.22z"/>
	<path id="XMLID_104_" class="st2" d="M396.18,162.22c0.69-19.65,0.69-24.22-1.52-40.13c0,0-1.11-31.69-26.57-42.34
		c-0.55-0.28-1.11-0.42-1.66-0.69c-4.7-2.08-9.82-3.6-14.94-4.7l-0.42-0.14c-0.42-0.14-0.69-0.14-1.11-0.28h-0.14
		c-33.35-6.92-84.13-6.5-94.24-6.5c-10.24,0-64.35-0.14-96.45,6.92c-3.87,0.83-7.75,2.08-11.07,3.32c-0.28,0.14-0.42,0.14-0.69,0.28
		c-1.52,0.55-2.91,1.11-4.15,1.66c-26.57,11.76-26.71,42.21-26.71,42.21c-0.83,5.4-1.8,13.42-1.8,26.43v0.14
		c0,1.25,0.28,2.63,0.28,4.15c0,6.09,0.28,12.18,0.55,18.4c0,1.11,0.14,2.35,0.28,3.6c1.66,37.09,5.26,78.74,19.93,97.83
		c13.28,17.3,39.99,20.62,75.42,21.86c14.81,0.83,29.75,1.38,44.56,1.38c13.56,0,26.98-0.55,40.54-1.25
		c23.52-0.69,42.76-2.08,58.12-7.89c0.42-0.14,0.69-0.28,1.11-0.42l0.28-0.14c0.83-0.42,1.66-0.69,2.49-1.11
		c3.46-1.52,6.78-3.46,9.69-5.67c2.77-1.94,5.26-4.29,7.61-6.78c14.25-15.64,18.68-60.75,19.93-97.83c0-0.69,0-1.52,0.14-2.21
		C396.04,169,396.18,165.68,396.18,162.22z M359.23,265.86c-3.32,2.77-12.59,8.44-20.2,10.93c-3.87,0.97-7.06,1.25-8.3,0.97
		l-0.28-0.14h-0.14c-0.28-0.14-0.42-0.14-0.55-0.28l0,0c-0.69-0.55-1.25-1.38-1.38-2.63c0.69-5.67,4.15-32.38,8.03-79.84
		c5.4-67.81,5.54-104.34,5.54-106.97c0.42-0.69,1.25-1.25,2.35-1.25c3.18,0.97,6.37,1.8,9.55,3.04c2.77,1.11,5.67,2.35,8.3,4.01
		c1.38,0.83,2.63,1.94,3.87,3.04c0.28,0.28,0.55,0.55,0.83,0.83l0.14,0.14c0.55,0.69,1.11,1.38,1.66,1.94
		c10.66,14.53,9.41,36.12,9.69,53.28c0.28,22-0.69,44.28-3.74,66.01c-0.14,0.83-0.28,1.66-0.28,2.49c-0.14,0.55-0.14,1.25-0.28,1.8
		c-0.42,2.08-0.69,3.87-1.11,5.4c-0.14,0.97-0.69,3.87-1.25,6.92c-2.63,11.76-4.98,19.37-5.54,21.03c-0.69,1.25-1.38,2.63-2.08,3.74
		C362.27,262.54,360.61,264.34,359.23,265.86z M159.69,270.71c-3.87-2.21-6.92-4.43-7.89-5.54c-2.35-2.49-4.29-5.4-5.81-8.58
		c-0.55-1.38-2.91-9.13-5.67-21.03c-0.55-3.04-1.11-5.95-1.25-6.92c-0.28-1.52-0.69-3.46-1.11-5.54c0-0.55-0.14-0.97-0.14-1.52
		c-0.14-0.97-0.28-1.8-0.42-2.63c-3.04-21.73-4.01-44-3.74-66.01c0.14-17.02-1.11-38.75,9.69-53.28c0.55-0.69,1.11-1.25,1.52-1.94
		l0.28-0.28c0.28-0.28,0.42-0.55,0.69-0.83c1.25-1.11,2.49-2.21,3.87-3.04c2.63-1.66,5.54-2.91,8.3-4.01
		c3.18-1.11,6.37-2.08,9.55-2.91c4.57,0.14,2.77,7.47,3.04,10.38c0.28,17.44,1.25,34.87,1.94,52.17
		c2.49,41.51,5.54,82.75,10.93,123.99c0.28,3.04-0.97,4.43-3.18,4.84C176.85,277.49,167.02,274.3,159.69,270.71z M226.25,189.34
		c-5.54-8.44-10.1-23.25-13.56-35.29c-3.74-13.7-7.75-29.61-11.62-44.7c-2.77-10.79-5.26-20.9-6.37-25.05
		c0.14-0.42,0.42-0.69,0.97-0.83c0.42-0.14,0.97-0.28,1.8-0.28c1.38-0.14,3.18-0.28,5.81-0.69c0.55-0.14,1.25-0.14,1.8-0.28
		c3.32-0.28,7.61-0.55,13.28-0.69c21.59-0.69,36.67-0.83,37.5-0.83c0.83,0,15.78,0.14,37.5,0.83c5.67,0.14,10.1,0.42,13.28,0.69
		c0.69,0.14,1.25,0.14,1.8,0.28c2.63,0.28,4.43,0.42,5.81,0.69c0.83,0.14,1.38,0.28,1.8,0.28c0.55,0.14,0.83,0.42,0.97,0.83v0.14
		c-0.97,4.15-3.46,13.98-6.09,24.35c-4.01,15.36-8.03,31.69-11.9,45.66c-3.46,12.04-8.03,26.57-13.42,34.87l0,0
		c-3.87,5.4-9.13,9.41-16.19,11.07c-3.6,0.55-8.03,0.69-13.42,0.69c-5.4,0-9.82-0.14-13.42-0.69c-7.06-1.66-12.18-5.54-16.05-10.93
		L226.25,189.34z M296.82,278.73c0,0.14,0.14,0.55,0.14,0.97c0,0.28-0.14,0.42-0.14,0.55c-0.55,0.42-1.52,0.69-2.21,0.83
		c-1.8,0.14-6.37,0.42-16.47,0.69c-0.55,0-1.11,0-1.66,0c-6.92,0.14-13.84,0.14-20.76,0.14c-6.92,0-13.84,0-20.76-0.14
		c-0.55,0-1.11,0-1.66,0c-10.1-0.28-14.53-0.55-16.47-0.69c-0.69-0.14-1.66-0.42-2.21-0.83c-0.14-0.14-0.14-0.28-0.14-0.55l0,0
		c0-0.42,0.14-0.83,0.14-0.97c0.28-0.83,0.42-1.66,0.69-2.49c2.08-6.92,7.47-24.22,7.47-24.22c0.14-0.28,0.14-0.55,0.28-0.83
		c0.69-2.08,1.52-4.15,2.49-6.5c1.94-4.84,5.26-8.3,7.89-10.1c1.52-0.97,3.18-1.66,4.84-2.21c0.97-0.14,1.94-0.42,2.91-0.55
		c1.8-0.42,3.6-0.69,5.54-0.83c2.63-0.14,5.4-0.28,8.72-0.28c3.32,0,6.09,0,8.72,0.28c1.94,0.28,3.87,0.55,5.54,0.83
		c1.11,0.28,2.08,0.42,2.91,0.55c1.8,0.55,3.46,1.25,4.84,2.21c2.77,1.8,5.95,5.26,7.89,10.1c0.97,2.35,1.8,4.57,2.49,6.5
		c0.14,0.28,0.14,0.55,0.28,0.83c0,0,5.4,17.57,7.47,24.35C296.41,277.21,296.68,278.04,296.82,278.73z"/>
</g>
</svg>
