<?xml version="1.0" encoding="utf-8"?>
<!-- Generator: Adobe Illustrator 26.5.0, SVG Export Plug-In . SVG Version: 6.00 Build 0)  -->
<svg version="1.1" id="Layer_1" xmlns="http://www.w3.org/2000/svg" xmlns:xlink="http://www.w3.org/1999/xlink" x="0px" y="0px"
	 viewBox="0 0 512 512" style="enable-background:new 0 0 512 512;" xml:space="preserve">
<style type="text/css">
	.st0{fill:#FF0000;}
</style>
<g id="layer1" transform="translate(-273.48418,-395.90361)">
	<polygon id="polygon2395" class="st0" points="299.19,693.67 299.19,610.13 273.6,610.13 273.6,693.67 	"/>
	<path id="path2397" class="st0" d="M511.07,693.67h1.11h1.11l2.07-0.14l1.94-0.14l1.8-0.14l1.66-0.28l1.66-0.28l1.52-0.41
		l1.52-0.41l1.38-0.55l1.38-0.55l1.24-0.55l1.11-0.69l1.11-0.69l0.97-0.69l0.97-0.69l0.83-0.83l0.83-0.83l0.69-0.83l0.69-0.97
		l0.55-0.97l0.55-0.97l0.55-0.97l0.41-1.11l0.41-1.11l0.28-1.11l0.28-1.11l0.28-1.24l0.14-1.24l0.14-1.24l0.14-1.24v-1.24v-1.24l0,0
		v-59.06h-25.45v50.48l0,0c0,7.47-1.8,13.42-15.21,13.42l0,0h-14.25l0,0c-13.42,0-15.21-5.95-15.21-13.42l0,0v-50.48h-25.59v59.06
		l0,0c0,13.69,6.36,24.34,29.46,24.34l0,0h36.93V693.67z"/>
	<path id="path2399" class="st0" d="M755.86,693.67h1.11h1.11l2.07-0.14l1.94-0.14l1.8-0.14l1.8-0.28l1.66-0.28l1.52-0.41l1.52-0.41
		l1.38-0.55l1.24-0.55l1.24-0.55l1.24-0.69l1.11-0.69l0.97-0.69l0.97-0.69l0.83-0.83l0.83-0.83l0.69-0.83l0.69-0.97l0.69-0.97
		l0.55-0.97l0.55-0.97l0.41-1.11l0.41-1.11l0.41-1.11l0.28-1.11l0.28-1.24l0.14-1.24l0.14-1.24l0.14-1.24v-1.24v-1.24l0,0v-59.06
		h-25.86v50.48l0,0c0,7.47-1.8,13.42-15.21,13.42l0,0h-14.11l0,0c-13.42,0-15.21-5.95-15.21-13.42l0,0v-50.48h-25.59v59.06l0,0
		c0,13.69,6.36,24.34,29.46,24.34l0,0h36.79V693.67z"/>
	<path id="path2401" class="st0" d="M323.25,674.17v19.5h82.98l0,0c13.83,0,18.81-10.23,19.92-15.49
		c1.11-5.26-0.41-17.01-9.54-20.47l0,0l-62.24-23.37l0,0c-2.63-1.24-1.24-4.56,1.94-4.56l0,0h61.68v-19.5h-63.62l0,0
		c-13.42,0-24.76,4.98-27.66,13.97c-2.63,8.16-2.21,21.02,10.1,25.31l0,0l56.01,20.75l0,0c3.6,1.38,2.63,4.01-0.41,4.01l0,0h-69.15
		V674.17z"/>
	<path id="path2403" class="st0" d="M662.09,674.17v19.5h-79.39l0,0c-13.83,0-16.32-7.74-17.43-13.14
		c-1.11-5.26,0.41-17.01,9.54-20.47l0,0l56.98-29.04l0,0c1.24-0.55,1.24-1.38,0.14-1.38l0,0H567.5v-19.5h64.59l0,0
		c13.42,0,24.76,0.55,28.77,9.4c3.6,7.74,1.8,19.64-10.65,23.79l0,0l-53.66,27.38l0,0c-2.49,1.11-2.77,3.46,0.14,3.46l0,0H662.09z"
		/>
</g>
</svg>
