<?xml version="1.0" encoding="UTF-8"?>
<svg xmlns="http://www.w3.org/2000/svg" version="1.1" viewBox="0 0 512 512">
  <defs>
    <style>
      .cls-1 {
        fill: #231f20;
      }
    </style>
  </defs>
  <!-- Generator: Adobe Illustrator 28.6.0, SVG Export Plug-In . SVG Version: 1.2.0 Build 709)  -->
  <g>
    <g id="Layer_1">
      <g>
        <path class="cls-1" d="M108.15,161.04c3.48,1.06,6.59,2.94,9.32,5.15-8.3-4.64-13.07-5.58-13.38-5.63h-.09c-1.3-.21-2.38-.44-3.36-.69,1.61-.33,3.1-.83,4.45-1.45,0,.03,0,.06,0,.08.63,1.73,2.31,2.34,3.06,2.54h0ZM68.43,164.03s.36-1.03.45-1.28c.1-.25,1.08-2.94,3.52-3.19,0,0,1.41-.09,3.59-.09,0,0-1.06,3.42-5.25,4.16,0,0-1.64.37-2.3.4h0ZM489.22,274.67c-.86,2.99-5.12,6.97-10.3,9.27-5.44,2.43-16.78,3.07-23.33,2-.02,0-12.71-1.29-23.83-12.91-3.5-3.67-7.82-7.82-11.8-11.93-1.75-1.84-6.06-6.15-13.23-7.1-7.47-1.01-25.7-1.5-32.56-3.78-4.58-1.53-10.11-4.63-17.46-15.52-3.54-5.22-6.05-6.65-10.87-9.7,0,0,3.69,2.93,5.78,6.64,3.02,5.38,4.54,9.3,6.19,12.16,1.64,2.88,3.5,5.43,6.31,7.68,3.49,2.8,5.66,3.33,9.44,3.95,3.62.6,15.82.49,26.29.34,10.3-.16,14.9,3.16,18.28,6.02,3.13,2.63,8.5,10.18,11.8,13.49,3.94,3.91,6.82,7.92,14.6,11.84,2.7,1.37,7.12,4.73,6.9,7.98-3.5,3.5-7.84,4.42-18.26,1.64.74.72,6.19,6.45,15.52,3.74-2.82,2.35-5.57,3.35-8.45,3.2-9.76-.54-19.33-12.57-24.69-17.01-4.08-3.37-4.55-4.22-11.47-9.01-10.51-7.28-34.1-5.23-34.1-5.23l-17.31.9c-33.71,2.55-47.87-27.31-51.6-33.55-1.3-2.16-2.47-3.91-3.59-5.32-1.72-2.29-10.93-14.24-20.25-18.17,0,0,9.15,7.88,8.61,13.09,0,0-3.79-1.76-14.11-.29-44.41,6.33-59.52-4.79-59.52-4.79,2.06-8.9-4.15-18.03-4.15-18.03,3.43,1.09,25.26,8.46,45.99,4.25,0,0-33.74.18-57.4-18.69,0,0,14.72,18.45,11.23,30.53,0,0-2.42,12.87-28.08,7.68-2.74-.54-5.96-1.46-44.38-12.12-9.03-2.7-12.15,1.61-13.78,4.2-.07,3.8-4.54,8.23-6.8,9.62-11.89-2.14-7.15-13.17-7.15-13.17-7.48,10.7.35,15.43,2.83,15.77-1.48.72-2.89,1.24-4.08,1.68,0,0-9.72-5.79-4.29-15.27,7.57-13.22,15.29-17.46,29.43-18.75,6.18-.59,11.34-1.03,15.27-.49,10.26,1.42,16.69,7.21,32.05,8.7-32.61-9.6-32.68-28.49-32.79-28.84,0,0-.01-.04-.01-.04-1.81,6.23-.81,11.48.78,15.91-.45-.16-7.58-4.85-10.3-6.5-11.71-7.15-20.95-8.4-20.95-8.4-3.88-.49-5.69-5.21-5.69-5.21-.13-.24-.27-.46-.41-.69-5.4-9.22-10.74-9.41-10.74-9.41,1.91,2.6,2.63,5.89,2.9,7.95.16,1.18.31,3.35.3,4-.1,9.85-11.5,12.95-11.5,12.95-7.95,10.09-7.54,10.3-9.3,10.56-1.78.25-5.65-1.73-5.65-1.73-.3-.16-.38-.6-.33-.89.1-.61.59-1,.59-1,1.49-1.18,2.71-2.36,2.71-2.36,8.4-8.59,9.41-12.79,8.37-18.36-2.12-11.17-10.11-9.87-10.11-9.87-3.89.37-5.45,3.58-5.45,3.58-1.33,2.06-4.16,8.36-4.16,8.36-1.74,3.76-3.51,4.61-4.42,4.77-.4.07-1.14.06-1.38.05-2.7-.1-4.75-2.59-4.75-2.59-.13-.13-.24-.26-.34-.37-2.47-2.65-.68-6.12-.68-6.12,3.33-7.76,9.8-8.88,10.67-9,.91-.11,3.88-.55,3.88-.55,8.21-1.38,12.09-9.94,12.09-9.94-5.54-.07-8.24.3-8.24.3-5.45.95-7.3,7.37-7.3,7.36-4.61,1.05-4.49-2.91-3.68-4.12.72-1.12,3.43-5.87,21.15-9.97,0,0,8.74-2.63,27.41-1.79l-.77,1.43c-1.65,3.12-8.2,9.56-19.02,7.18,0,0,.09,4.81,11.83,6.53,0,0,10.62,1.9,28.62,16.36,0,0-8.61-17.1-23.22-21.53,0,0-1.82-.39-.93-1.54,0,0,8.64-8.11,20.63-8.11,0,0,37.43.8,61.2,25.67,0,0-1.04-4.32-4.78-10.45l-1.57-2.55s1.43.16,5.33.8c0,0,14.29,1.78,47.85,13.37,0,0,25.14,8.26,38.91,13.72,20.68,8.24,72.5,28.31,105.53,46.32,5.9,3.21,65.65,34.36,65.65,34.36,16.55,7.43,28,2.91,28,2.91,3.72-1.41,10.48-6.61,13.43-3.67,1.52,1.52,1.73,3.56.99,5.56h0ZM80.57,172.98c-1.73-1.21-3.66-1.45-5.41-1.17.77-.57,2-.65,2-.65.81-.1,4.64-.24,6.41,5.75-.76-1.72-1.79-3.09-3-3.94ZM52.29,174.67c3.78-5.57,8.7-9.77,8.76-9.81.07-.06.14-.11.18-.18.07-.07.13-.15.21-.22.29.35.68.7,1.2.99-2.87,1.22-10.35,9.22-10.35,9.22ZM105.7,144.11c64.36-3.81,157.83,36.87,158.74,37.28l.06.02h.05c7.83,3.13,15.27,6.17,22.25,9.08-1.65-.65-10.13-4.02-10.14-4.02-13.67-5.43-38.78-13.69-39-13.76-32.94-11.37-47.34-13.37-48.36-13.5-3.9-.64-5.39-.81-5.45-.81l-5.94-.68s3.26,5.27,3.28,5.31c-23.25-16.45-51.08-17.28-52.45-17.31h-.06c-5.61,0-10.5,1.59-14.3,3.42.43-.8,1.9-3.53,1.9-3.53l-4.61-.2c-8.24-.37-14.61-.08-19.22.37,7.36-1.36,13.1-1.66,13.25-1.66h0ZM492.81,267.41c-2.42-5.39-9.1-3.64-9.1-3.64-3.16.66-6.75,4.27-12.1,5.85-11.48,3.4-20.65-.55-20.65-.55-17.68-7.64-74.53-40.19-103.43-54.4,0,0-33.16-16.63-81.89-35.92,0,0-94.28-41.43-160.1-37.52,0,0-34.12,1.52-44.8,17.02,0,0-1.82,2.07-.79,4.31,0,0,.2.64-.23,1.07,0,0-5.74,5.14-8.66,9.71-1.03,1.66-2.17,4.45-.06,6.41,0,0,.95.74,1.34,1.38.83,1.36,1.61,3.39,2.64,4.6,1.49,1.78,4.5,4.85,8.74,4.11,1.57-.27,1.9-.86,1.9-.86,2.12,2.11,5.57,2.05,5.57,2.05-.43-1.35-1.91-4-2.12-5.6-.23-1.76.29-3.45.29-3.45.6-2,1.79-4.52,3.1-5.79,1.15-1.14,4.09-2.45,6.46-.81,1.89,1.34,4.15,5.71,2.27,11.94-.08.47-2.15,4.89-4.37,5.56,0,0-.21.07-.63.07-1.49,0-4.27-1.56-4.27-1.56,0,0-.07.4.32,2.01.25.93.57,1.93.84,2.72,0,0-.54.97-.89,1.53-.54.96-.99,2.8.16,3.64,0,0,4.92,3.35,9.7,3.64,3.29.2,4.54-2.02,4.54-2.02,2.42-3.34,4.25-6.18,6.8-8.51,6.98-6.4,16.79-8.11,16.79-8.11.65-.08,11.36-3.06,29.57,11.5-5.2.42-11.39,1.66-16.11,2.5-13.49,2.4-22.14,15.13-24.66,20.31-6.55,13.51,6.84,18.16,6.84,18.16.13-.12,12.77-1.12,18.88-14.57,0,0,2.24-5.96,8.17-4.03,3.88,1.26,38.19,13.25,45.91,15.28,0,0,22.97,5.98,31.63-4.58,13.83,4.54,26.81,6.73,60.81,2.35,5.9-.77,10.54-.59,10.54-.59,7.94.6,15.19,5.94,17.39,9.44,8.94,14.31,20.28,42.73,59.66,39.27l17.81-1.61c10.87-.65,19.72-1.07,28.69,3.65,3.91,2.05,6.08,2.8,12.71,9.13,9.07,8.63,17.42,17.97,28.52,12.87,3.94-1.81,8.37-8.85,8.37-8.85-.43-3.21-1.86-6.3-5.39-8.94,10.08,2.4,32.83,3.95,41.64-11.44,2.27-3.59,2.52-6.78,1.66-8.71ZM96.58,153.53c.44.02.93.03,1.51.04,2.36.04,5.03-.93,6.8-1.76,1.26-.59,2.08-1.11,1.97-1.11-1.64-.02-4.26-.04-5.24-.04-4.26,0-6.5,2.41-6.52,2.64-.02.14.57.2,1.48.23"/>
        <path class="cls-1" d="M330.14,329.01v20.27c0,5.25-.58,9.4-3.22,12.86-4.3,5.65-12.19,8.89-34.21,8.89h-.23c-21.89,0-29.82-3.25-34.12-8.88-2.65-3.47-3.22-7.62-3.22-12.87v-20.27h15.15v19.69c0,5.29.67,8.39,2.6,11.12,3.28,4.62,8.93,6.28,19.1,6.28h1.29c10.64,0,15.83-1.67,19.1-6.28,1.94-2.73,2.61-5.97,2.61-11.1v-19.71h15.15ZM480.79,334.14c5.68,0,8.19.53,9.92,1.82,1.64,1.23,2.23,3.11,2.23,6.03v.76c0,2.63-.63,4.77-2.56,6.11-1.9,1.31-4.56,1.61-9.4,1.61h-30.03v-16.33h29.84ZM488.16,355.33c5.69-.19,10.52-1.05,14.24-3.05,3.86-2.08,5.7-6,5.7-10.07,0-5.44-2.43-8.92-6.86-10.86-3.93-1.73-8.79-2.33-18.47-2.33h-46.96v40.68h15.15v-14.1h19.9l22.7,14.1h18.45l-23.84-14.37ZM223.35,364.26v-13.25h15.07v18.68h-43.83c-8.22,0-14.69-.95-19.58-2.92-8.14-3.29-11.87-9.29-11.87-17.49,0-7.75,4.06-13.12,9.22-16.01,5.49-3.08,11.67-4.25,21.97-4.25h42.56v5.43h-37.84c-8.11,0-12.53,1.23-15.89,3.96-2.99,2.43-4.59,6.07-4.59,10.94,0,5.04,1.67,8.76,4.87,11.2,3.38,2.57,7.92,3.71,15.73,3.71h24.18ZM64.96,329.01v19.84c0,6.42-1.47,10.31-4.52,13.43-5.32,5.45-15.53,7.41-29.98,7.41H0v-5.46h28.04c8.6,0,14.42-1.42,17.92-4.89,2.66-2.62,3.85-6.28,3.85-11.71v-18.63h15.15ZM397.91,361.03h-44.88l-7.44,8.66h-8.78l35.29-40.68h14.93l35.32,40.68h-16.98l-7.46-8.66ZM357.54,355.77h35.84l-17.95-20.84-17.89,20.84ZM132.97,361.03h-44.88l-7.44,8.66h-8.78l35.3-40.68h14.92l35.33,40.68h-16.98l-7.46-8.66ZM92.61,355.77h35.84l-17.94-20.84-17.89,20.84Z"/>
      </g>
    </g>
  </g>
</svg>