<?xml version="1.0" encoding="utf-8"?>
<!-- Generator: Adobe Illustrator 26.5.0, SVG Export Plug-In . SVG Version: 6.00 Build 0)  -->
<svg version="1.1" id="Layer_1" xmlns="http://www.w3.org/2000/svg" xmlns:xlink="http://www.w3.org/1999/xlink" x="0px" y="0px"
	 viewBox="0 0 512 512" style="enable-background:new 0 0 512 512;" xml:space="preserve">
<style type="text/css">
	.st0{fill:#131E29;}
</style>
<g>
	<path class="st0" d="M297.03,302.41c0,0.97,0.31,1.54,0.87,1.54c0.46-0.05,0.87-0.26,1.23-0.51L458.7,199.87
		c2.7-1.88,5.93-2.85,9.21-2.76h35.07c5.38,0,9.01,3.58,9.01,8.96v66.96c0,8.09-1.79,12.8-8.96,17.1l-42.54,25.6
		c-0.42,0.29-0.92,0.47-1.43,0.51c-0.51,0-1.02-0.41-1.02-1.89v-78.12c0-0.92-0.26-1.54-0.87-1.54c-0.45,0.05-0.88,0.23-1.23,0.51
		l-116.62,75.77c-2.66,1.79-5.79,2.76-8.96,2.71h-77.3c-5.43,0-9.01-3.58-9.01-9.01v-96.5c0-0.72-0.31-1.38-0.92-1.38
		c-0.45,0.06-0.87,0.23-1.23,0.51l-76.95,46.18c-0.77,0.51-0.97,0.87-0.97,1.23c0,0.31,0.15,0.61,0.67,1.18l54.98,54.93
		c0.72,0.72,1.23,1.28,1.23,1.89c0,0.51-0.82,0.92-1.79,0.92H169.4c-3.89,0-6.91-0.56-9.01-2.66l-33.33-33.28
		c-0.26-0.31-0.63-0.49-1.02-0.51c-0.36,0.02-0.71,0.12-1.02,0.31l-55.7,33.48c-3.38,2.05-5.68,2.61-9.01,2.61H9.06
		C3.58,313.62,0,309.99,0,304.61v-65.68c0-8.14,1.79-12.8,9.01-17.1l42.8-25.7c0.34-0.22,0.73-0.34,1.13-0.36
		c0.67,0,1.02,0.67,1.02,2.15v87.95c0,0.92,0.2,1.33,0.87,1.33c0.46-0.05,0.87-0.26,1.28-0.51l144.57-86.98
		c2.77-1.89,6.14-2.82,9.52-2.66h77.82c5.38,0,9.01,3.58,9.01,8.96l-0.05,96.4L297.03,302.41L297.03,302.41z"/>
</g>
</svg>
