<?xml version="1.0" encoding="utf-8"?>
<!-- Generator: Adobe Illustrator 27.0.0, SVG Export Plug-In . SVG Version: 6.00 Build 0)  -->
<svg version="1.1" id="Ñëîé_1" xmlns="http://www.w3.org/2000/svg" xmlns:xlink="http://www.w3.org/1999/xlink" x="0px" y="0px"
	 viewBox="0 0 512 512" style="enable-background:new 0 0 512 512;" xml:space="preserve">
<style type="text/css">
	.st0{fill:#58595B;}
	.st1{fill:#595A5C;}
	.st2{fill:#5A5B5D;}
	.st3{fill:#5B5C5E;}
	.st4{fill:#5C5C5F;}
	.st5{fill:#5C5D60;}
	.st6{fill:#5D5E60;}
	.st7{fill:#5E5F61;}
	.st8{fill:#5F6062;}
	.st9{fill:#606163;}
	.st10{fill:#616264;}
	.st11{fill:#616365;}
	.st12{fill:#626366;}
	.st13{fill:#636467;}
	.st14{fill:#646567;}
	.st15{fill:#656668;}
	.st16{fill:#666769;}
	.st17{fill:#66686A;}
	.st18{fill:#67686B;}
	.st19{fill:#68696C;}
	.st20{fill:#696A6C;}
	.st21{fill:#6A6B6D;}
	.st22{fill:#6A6C6E;}
	.st23{fill:#6B6C6F;}
	.st24{fill:#6C6D70;}
	.st25{fill:#6D6E70;}
	.st26{fill:#6D6F71;}
	.st27{fill:#6E7072;}
	.st28{fill:#6F7073;}
	.st29{fill:#707174;}
	.st30{fill:#717275;}
	.st31{fill:#717375;}
	.st32{fill:#727476;}
	.st33{fill:#737477;}
	.st34{fill:#747578;}
	.st35{fill:#747678;}
	.st36{fill:#757779;}
	.st37{fill:#76777A;}
	.st38{fill:#77787B;}
	.st39{fill:#77797C;}
	.st40{fill:#787A7C;}
	.st41{fill:#797B7D;}
	.st42{fill:#7A7B7E;}
	.st43{fill:#7A7C7F;}
	.st44{fill:#7B7D7F;}
	.st45{fill:#7C7E80;}
	.st46{fill:#7D7E81;}
	.st47{fill:#7D7F82;}
	.st48{fill:#7E8082;}
	.st49{fill:#7F8183;}
	.st50{fill:#808184;}
	.st51{fill:#808285;}
	.st52{fill:#818385;}
	.st53{fill:#828486;}
	.st54{fill:#828487;}
	.st55{fill:#838588;}
	.st56{fill:#848688;}
	.st57{fill:#858789;}
	.st58{fill:#85878A;}
	.st59{fill:#86888B;}
	.st60{fill:#87898B;}
	.st61{fill:#888A8C;}
	.st62{fill:#888A8D;}
	.st63{fill:#898B8E;}
	.st64{fill:#8A8C8E;}
	.st65{fill:#8B8D8F;}
	.st66{fill:#8B8D90;}
	.st67{fill:#8C8E91;}
	.st68{fill:#8D8F92;}
	.st69{fill:#8E9092;}
	.st70{fill:#8E9093;}
	.st71{fill:#8F9194;}
	.st72{fill:#909295;}
	.st73{fill:#919395;}
	.st74{fill:#919396;}
	.st75{fill:#929497;}
	.st76{fill:#939598;}
	.st77{fill:#949698;}
	.st78{fill:#949699;}
	.st79{fill:#95979A;}
	.st80{fill:#96989B;}
	.st81{fill:#97999B;}
	.st82{fill:#979A9C;}
	.st83{fill:#989A9D;}
	.st84{fill:#999B9E;}
	.st85{fill:#9A9C9E;}
	.st86{fill:#9B9D9F;}
	.st87{fill:#9B9DA0;}
	.st88{fill:#9C9EA1;}
	.st89{fill:#9D9FA2;}
	.st90{fill:#9EA0A2;}
	.st91{fill:#9EA1A3;}
	.st92{fill:#9FA1A4;}
	.st93{fill:#A0A2A5;}
	.st94{fill:#A1A3A5;}
	.st95{fill:#A2A4A6;}
	.st96{fill:#A2A4A7;}
	.st97{fill:#A3A5A8;}
	.st98{fill:#A4A6A9;}
	.st99{fill:#A5A7A9;}
	.st100{fill:#A5A8AA;}
	.st101{fill:#A6A8AB;}
	.st102{fill:#A7A9AC;}
	.st103{fill:#A8AAAD;}
	.st104{fill:#A9ABAD;}
	.st105{fill:#A9ACAE;}
	.st106{fill:#AAACAF;}
	.st107{fill:#ABADB0;}
	.st108{fill:#ACAEB0;}
	.st109{fill:#ADAFB1;}
	.st110{fill:#AEB0B2;}
	.st111{fill:#AEB0B3;}
	.st112{fill:#AFB1B4;}
	.st113{fill:#B0B2B4;}
	.st114{fill:#B1B3B5;}
	.st115{fill:#B2B4B6;}
	.st116{fill:#B2B4B7;}
	.st117{fill:#B3B5B8;}
	.st118{fill:#B4B6B8;}
	.st119{fill:#B5B7B9;}
	.st120{fill:#B6B8BA;}
	.st121{fill:#B7B9BB;}
	.st122{fill:#B7B9BC;}
	.st123{fill:#B8BABC;}
	.st124{fill:#B9BBBD;}
	.st125{fill:#BABCBE;}
	.st126{fill:#BBBDBF;}
	.st127{fill:#BCBDC0;}
	.st128{fill:#BCBEC0;}
	.st129{fill:#BDBFC1;}
	.st130{fill:#BEC0C2;}
	.st131{fill:#BFC1C3;}
	.st132{fill:#C0C2C4;}
	.st133{fill:#C1C2C4;}
	.st134{fill:#C1C3C5;}
	.st135{fill:#C2C4C6;}
	.st136{fill:#C3C5C7;}
	.st137{fill:#C4C6C8;}
	.st138{fill:#C5C6C8;}
	.st139{fill:#C5C7C9;}
	.st140{fill:#C7C9CB;}
	.st141{fill:#C8CACC;}
	.st142{fill:#C9CBCC;}
	.st143{fill:#CACBCD;}
	.st144{fill:#CBCCCE;}
	.st145{fill:#CBCDCF;}
	.st146{fill:#CCCED0;}
	.st147{fill:#CDCFD0;}
	.st148{fill:#CECFD1;}
	.st149{fill:#CFD0D2;}
	.st150{fill:#D0D1D3;}
	.st151{fill:#D0D2D3;}
	.st152{fill:#D2D3D5;}
	.st153{fill:#D3D4D6;}
	.st154{fill:#D4D5D7;}
	.st155{fill:#D5D6D7;}
	.st156{fill:#D5D7D8;}
	.st157{fill:#D6D7D9;}
	.st158{fill:#D7D8DA;}
	.st159{fill:#D8D9DB;}
	.st160{fill:#D9DADB;}
	.st161{fill:#D9DBDC;}
	.st162{fill:#DADCDD;}
	.st163{fill:#DBDCDE;}
	.st164{fill:#DDDEDF;}
	.st165{fill:#DEDFE0;}
	.st166{fill:#DEE0E1;}
	.st167{fill:#DFE0E2;}
	.st168{fill:#E0E1E2;}
	.st169{fill:#E1E2E3;}
	.st170{fill:#E2E3E4;}
	.st171{fill:#E3E4E5;}
	.st172{fill:#E4E5E6;}
	.st173{fill:#E5E6E7;}
	.st174{fill:#E7E8E9;}
	
		.st175{clip-path:url(#SVGID_00000141454267033070999320000002382665791219205820_);fill:url(#XMLID_00000074427992838561560910000013491293363102612114_);}
	.st176{fill:#004E25;}
	.st177{fill:#F5F0CC;}
	
		.st178{clip-path:url(#SVGID_00000066475555808479645490000015180901890464858540_);fill:url(#XMLID_00000017510475827675235180000002842683998123473086_);}
	
		.st179{clip-path:url(#SVGID_00000070828006566826254770000004068712044261470096_);fill:url(#XMLID_00000001664016696411496120000013315522043094247824_);}
	
		.st180{clip-path:url(#SVGID_00000076597041374540317840000001362635475195450764_);fill:url(#XMLID_00000098938827260698884310000013439761729739470480_);}
	
		.st181{clip-path:url(#SVGID_00000085252635004103841970000016613673083714168492_);fill:url(#XMLID_00000014593002312696487720000001633789427197355422_);}
	
		.st182{clip-path:url(#SVGID_00000041271530552915290190000000700244473429713036_);fill:url(#XMLID_00000139985216418089289850000007053481013462544518_);}
	
		.st183{clip-path:url(#SVGID_00000183945821342185691080000007923077732669202844_);fill:url(#XMLID_00000090998968440746022440000005664007157729525387_);}
	
		.st184{clip-path:url(#SVGID_00000182519826223000028510000013518311039138045884_);fill:url(#XMLID_00000062162208411292473170000018306506507482104993_);}
	
		.st185{clip-path:url(#SVGID_00000152239871042780624560000002171138434780771201_);fill:url(#XMLID_00000119808399574273216160000009574937712216921006_);}
	
		.st186{clip-path:url(#SVGID_00000139261879059162885760000011677126387806341566_);fill:url(#XMLID_00000121999712455237156050000015942070197782933384_);}
	
		.st187{clip-path:url(#SVGID_00000091006661142828993060000011464793241171945878_);fill:url(#XMLID_00000165208217373503873160000006099434564472184978_);}
	
		.st188{clip-path:url(#SVGID_00000106849370230181493380000003719295878295691160_);fill:url(#XMLID_00000050633125991613838140000002717621601154816646_);}
</style>
<g id="XMLID_1_">
	<path id="XMLID_234_" class="st0" d="M256,121.63C114.58,121.63,0,181.83,0,256s114.58,134.37,256,134.37S512,330.17,512,256
		S397.42,121.63,256,121.63"/>
	<path id="XMLID_233_" class="st1" d="M256,121.63C114.58,121.63,0,181.83,0,256s114.58,134.37,256,134.37S512,330.17,512,256
		S397.42,121.63,256,121.63"/>
	<path id="XMLID_232_" class="st2" d="M256,121.63C114.72,121.63,0,181.83,0,256s114.58,134.37,256,134.37
		c141.28,0,256-60.19,256-134.37S397.28,121.63,256,121.63"/>
	<path id="XMLID_231_" class="st3" d="M256,121.63C114.72,121.63,0.14,181.83,0.14,256S114.72,390.37,256,390.37S512,330.17,512,256
		S397.28,121.63,256,121.63"/>
	<path id="XMLID_230_" class="st4" d="M256,121.77C114.72,121.77,0.14,181.83,0.14,256S114.72,390.23,256,390.23
		S511.86,330.03,511.86,256C511.86,181.83,397.28,121.77,256,121.77"/>
	<path id="XMLID_229_" class="st5" d="M256,121.77C114.72,121.77,0.14,181.83,0.14,256S114.72,390.23,256,390.23
		S511.86,330.17,511.86,256S397.28,121.77,256,121.77"/>
	<path id="XMLID_228_" class="st6" d="M256,121.77C114.72,121.77,0.14,181.83,0.14,256S114.72,390.23,256,390.23
		S511.86,330.17,511.86,256S397.28,121.77,256,121.77"/>
	<path id="XMLID_227_" class="st7" d="M256,121.77C114.72,121.77,0.14,181.83,0.14,256S114.72,390.23,256,390.23
		S511.86,330.17,511.86,256S397.28,121.77,256,121.77"/>
	<path id="XMLID_226_" class="st8" d="M256,121.77C114.72,121.77,0.28,181.83,0.28,256c0,74.03,114.58,134.23,255.72,134.23
		c141.28,0,255.86-60.06,255.86-134.23S397.28,121.77,256,121.77"/>
	<path id="XMLID_225_" class="st9" d="M256,121.91c-141.28,0-255.72,60.06-255.72,134.23c0,74.03,114.44,134.23,255.72,134.23
		s255.72-60.06,255.72-134.23S397.28,121.91,256,121.91"/>
	<path id="XMLID_224_" class="st10" d="M256,121.91C114.85,121.91,0.28,181.97,0.28,256S114.72,390.09,256,390.09
		S511.72,330.03,511.72,256S397.28,121.91,256,121.91"/>
	<path id="XMLID_223_" class="st11" d="M256,121.91C114.85,121.91,0.28,181.97,0.28,256S114.72,390.09,256,390.09
		c141.15,0,255.72-60.06,255.72-134.09S397.28,121.91,256,121.91"/>
	<path id="XMLID_222_" class="st12" d="M256,121.91C114.85,121.91,0.28,181.97,0.28,256S114.72,390.09,256,390.09
		c141.15,0,255.72-60.06,255.72-134.09S397.28,121.91,256,121.91"/>
	<path id="XMLID_221_" class="st13" d="M256,121.91C114.85,121.91,0.42,181.97,0.42,256S114.85,390.09,256,390.09
		S511.58,330.03,511.58,256C511.72,181.97,397.15,121.91,256,121.91"/>
	<path id="XMLID_220_" class="st14" d="M256,121.91C114.85,121.91,0.42,181.97,0.42,256S114.85,390.09,256,390.09
		S511.58,330.03,511.58,256C511.72,181.97,397.15,121.91,256,121.91"/>
	<path id="XMLID_219_" class="st15" d="M256,122.05c-141.15,0-255.58,60.06-255.58,134.09S114.85,390.09,256,390.09
		s255.58-60.06,255.58-133.95C511.58,181.97,397.15,122.05,256,122.05"/>
	<path id="XMLID_218_" class="st16" d="M256,122.05C114.85,122.05,0.42,181.97,0.42,256S114.85,389.95,256,389.95
		S511.58,329.89,511.58,256C511.58,181.97,397.15,122.05,256,122.05"/>
	<path id="XMLID_217_" class="st17" d="M256,122.05C114.85,122.05,0.42,181.97,0.42,256S114.85,389.95,256,389.95
		S511.58,330.03,511.58,256C511.58,182.11,397.15,122.05,256,122.05"/>
	<path id="XMLID_216_" class="st18" d="M256,122.05C114.85,122.05,0.55,181.97,0.55,256c0,73.89,114.44,133.95,255.45,133.95
		c141.15,0,255.45-59.92,255.45-133.95C511.58,182.11,397.15,122.05,256,122.05"/>
	<path id="XMLID_215_" class="st19" d="M256,122.19c-141.15,0-255.45,59.92-255.45,133.95c0,73.89,114.44,133.95,255.45,133.95
		s255.45-59.92,255.45-133.95C511.58,182.11,397.15,122.19,256,122.19"/>
	<path id="XMLID_214_" class="st20" d="M256,122.19c-141.01,0-255.45,59.92-255.45,133.95c0,73.89,114.44,133.81,255.45,133.81
		s255.45-59.92,255.45-133.81C511.45,182.11,397.15,122.19,256,122.19"/>
	<path id="XMLID_213_" class="st21" d="M256,122.19C114.99,122.19,0.55,182.11,0.55,256S114.85,389.81,256,389.81
		c141.01,0,255.45-59.92,255.45-133.81S397.15,122.19,256,122.19"/>
	<path id="XMLID_212_" class="st22" d="M256,122.19C114.99,122.19,0.69,182.11,0.69,256S114.99,389.81,256,389.81
		S511.45,329.89,511.45,256S397.15,122.19,256,122.19"/>
	<path id="XMLID_211_" class="st23" d="M256,122.19C114.99,122.19,0.69,182.11,0.69,256S114.99,389.81,256,389.81
		S511.31,329.89,511.31,256C511.45,182.11,397.15,122.19,256,122.19"/>
	<path id="XMLID_210_" class="st24" d="M256,122.19C114.99,122.19,0.69,182.11,0.69,256S114.99,389.81,256,389.81
		S511.31,329.89,511.31,256C511.45,182.11,397.01,122.19,256,122.19"/>
	<path id="XMLID_209_" class="st25" d="M256,122.33c-141.01,0-255.31,59.92-255.31,133.81S114.99,389.81,256,389.81
		s255.31-59.92,255.31-133.67C511.45,182.11,397.01,122.33,256,122.33"/>
	<path id="XMLID_208_" class="st26" d="M256,122.33C114.99,122.33,0.69,182.24,0.69,256c0,73.89,114.3,133.67,255.31,133.67
		S511.31,329.76,511.31,256S397.01,122.33,256,122.33"/>
	<path id="XMLID_207_" class="st27" d="M256,122.33C114.99,122.33,0.69,182.24,0.69,256c0,73.89,114.3,133.67,255.31,133.67
		S511.31,329.76,511.31,256S397.01,122.33,256,122.33"/>
	<path id="XMLID_206_" class="st28" d="M256.14,122.33C115.13,122.33,0.97,182.11,0.97,256c0,73.76,114.3,133.67,255.17,133.67
		S511.31,329.89,511.31,256C511.31,182.24,397.01,122.33,256.14,122.33"/>
	<path id="XMLID_205_" class="st29" d="M256.14,122.33C115.27,122.33,0.97,182.11,0.97,256c0,73.76,114.3,133.67,255.17,133.67
		S511.31,329.89,511.31,256C511.31,182.24,397.01,122.33,256.14,122.33"/>
	<path id="XMLID_204_" class="st30" d="M256.14,122.46c-140.87,0-255.17,59.78-255.17,133.67c0,73.76,114.3,133.67,255.17,133.67
		s255.17-59.78,255.17-133.67S397.01,122.46,256.14,122.46"/>
	<path id="XMLID_203_" class="st31" d="M256.14,122.46C115.27,122.46,0.97,182.24,0.97,256s114.3,133.54,255.17,133.54
		S511.31,329.76,511.31,256C511.17,182.24,397.01,122.46,256.14,122.46"/>
	<path id="XMLID_202_" class="st32" d="M256.14,122.46C115.27,122.46,0.97,182.24,0.97,256s114.16,133.54,255.17,133.54
		c140.87,0,255.17-59.78,255.17-133.54C511.17,182.24,397.01,122.46,256.14,122.46"/>
	<path id="XMLID_201_" class="st33" d="M256.14,122.46C115.27,122.46,1.11,182.24,1.11,256s114.16,133.54,255.03,133.54
		S511.17,329.76,511.17,256C511.17,182.24,397.01,122.46,256.14,122.46"/>
	<path id="XMLID_200_" class="st34" d="M256.14,122.46C115.27,122.46,1.11,182.24,1.11,256s114.16,133.54,255.03,133.54
		S511.17,329.76,511.17,256C511.17,182.24,397.01,122.46,256.14,122.46"/>
	<path id="XMLID_199_" class="st35" d="M256.14,122.6c-140.87,0-255.03,59.78-255.03,133.54s114.16,133.54,255.03,133.54
		s255.03-59.78,255.03-133.54C511.17,182.38,396.87,122.6,256.14,122.6"/>
	<path id="XMLID_198_" class="st36" d="M256.14,122.6c-140.87,0-255.03,59.78-255.03,133.54s114.16,133.4,255.03,133.4
		s255.03-59.78,255.03-133.4C511.17,182.38,396.87,122.6,256.14,122.6"/>
	<path id="XMLID_197_" class="st37" d="M256.14,122.6C115.27,122.6,1.11,182.38,1.11,256s114.16,133.4,255.03,133.4
		S511.17,329.62,511.17,256C511.03,182.38,396.87,122.6,256.14,122.6"/>
	<path id="XMLID_196_" class="st38" d="M256.14,122.6C115.41,122.6,1.25,182.38,1.25,256s114.16,133.4,254.89,133.4
		S511.03,329.62,511.03,256S396.87,122.6,256.14,122.6"/>
	<path id="XMLID_195_" class="st39" d="M256.14,122.6C115.41,122.6,1.25,182.38,1.25,256s114.16,133.4,254.89,133.4
		S511.03,329.62,511.03,256S396.87,122.6,256.14,122.6"/>
	<path id="XMLID_194_" class="st40" d="M256.14,122.74c-140.73,0-254.89,59.64-254.89,133.4c0,73.62,114.16,133.4,254.89,133.4
		s254.89-59.78,254.89-133.4C511.03,182.38,396.87,122.74,256.14,122.74"/>
	<path id="XMLID_193_" class="st41" d="M256.14,122.74c-140.73,0-254.89,59.64-254.89,133.4c0,73.62,114.16,133.26,254.89,133.26
		s254.89-59.64,254.89-133.26C511.03,182.38,396.87,122.74,256.14,122.74"/>
	<path id="XMLID_192_" class="st42" d="M256.14,122.74C115.41,122.74,1.38,182.38,1.38,256s114.16,133.26,254.89,133.26
		S511.17,329.62,511.17,256C510.89,182.38,396.87,122.74,256.14,122.74"/>
	<path id="XMLID_191_" class="st43" d="M256.14,122.74C115.41,122.74,1.38,182.38,1.38,256s114.02,133.26,254.75,133.26
		S510.89,329.62,510.89,256S396.87,122.74,256.14,122.74"/>
	<path id="XMLID_190_" class="st44" d="M256.14,122.74C115.41,122.74,1.38,182.52,1.38,256c0,73.62,114.02,133.26,254.75,133.26
		S510.89,329.62,510.89,256C510.89,182.52,396.87,122.74,256.14,122.74"/>
	<path id="XMLID_189_" class="st45" d="M256.14,122.88C115.41,122.88,1.38,182.52,1.38,256c0,73.62,114.02,133.26,254.75,133.26
		S510.89,329.62,510.89,256C510.89,182.52,396.87,122.88,256.14,122.88"/>
	<path id="XMLID_188_" class="st46" d="M256.14,122.88C115.41,122.88,1.38,182.52,1.38,256c0,73.62,114.02,133.12,254.75,133.12
		S510.89,329.48,510.89,256C510.89,182.52,396.73,122.88,256.14,122.88"/>
	<path id="XMLID_187_" class="st47" d="M256.14,122.88C115.55,122.88,1.52,182.52,1.52,256s114.02,133.12,254.62,133.12
		S510.89,329.48,510.89,256C510.89,182.52,396.73,122.88,256.14,122.88"/>
	<path id="XMLID_186_" class="st48" d="M256.14,122.88C115.55,122.88,1.52,182.52,1.52,256s114.02,133.12,254.62,133.12
		S510.75,329.48,510.75,256C510.75,182.52,396.73,122.88,256.14,122.88"/>
	<path id="XMLID_185_" class="st49" d="M256.14,122.88C115.55,122.88,1.52,182.52,1.52,256s114.02,133.12,254.62,133.12
		S510.75,329.48,510.75,256C510.75,182.52,396.73,122.88,256.14,122.88"/>
	<path id="XMLID_184_" class="st50" d="M256.14,123.02c-140.59,0-254.62,59.64-254.62,133.12s114.02,133.12,254.62,133.12
		s254.62-59.64,254.62-133.12C510.75,182.52,396.73,123.02,256.14,123.02"/>
	<path id="XMLID_183_" class="st51" d="M256.14,123.02c-140.59,0-254.62,59.64-254.62,133.12s114.02,133.12,254.62,133.12
		s254.62-59.64,254.62-133.12C510.75,182.52,396.73,123.02,256.14,123.02"/>
	<path id="XMLID_182_" class="st52" d="M256.14,123.02C115.55,123.02,1.52,182.52,1.52,256s114.02,132.98,254.62,132.98
		S510.75,329.48,510.75,256S396.73,123.02,256.14,123.02"/>
	<path id="XMLID_181_" class="st53" d="M256.14,123.02C115.55,123.02,1.66,182.52,1.66,256s114.02,132.98,254.48,132.98
		S510.62,329.48,510.62,256C510.62,182.66,396.73,123.02,256.14,123.02"/>
	<path id="XMLID_180_" class="st54" d="M256.14,123.02C115.55,123.02,1.66,182.52,1.66,256s113.89,132.98,254.48,132.98
		S510.62,329.48,510.62,256C510.62,182.66,396.73,123.02,256.14,123.02"/>
	<path id="XMLID_179_" class="st55" d="M256.14,123.16c-140.59,0-254.48,59.5-254.48,132.98s113.89,132.98,254.48,132.98
		s254.48-59.5,254.48-132.98S396.73,123.16,256.14,123.16"/>
	<path id="XMLID_178_" class="st56" d="M256.14,123.16C115.68,123.16,1.66,182.66,1.66,256s113.89,132.98,254.48,132.98
		c140.45,0,254.48-59.5,254.48-132.98C510.62,182.66,396.73,123.16,256.14,123.16"/>
	<path id="XMLID_177_" class="st57" d="M256.14,123.16C115.68,123.16,1.8,182.66,1.8,256s113.89,132.84,254.34,132.84
		S510.62,329.34,510.62,256S396.59,123.16,256.14,123.16"/>
	<path id="XMLID_176_" class="st58" d="M256.14,123.16C115.68,123.16,1.8,182.66,1.8,256s113.89,132.84,254.34,132.84
		S510.48,329.34,510.48,256C510.62,182.66,396.59,123.16,256.14,123.16"/>
	<path id="XMLID_175_" class="st59" d="M256.14,123.16C115.68,123.16,1.8,182.66,1.8,256s113.89,132.84,254.34,132.84
		S510.48,329.34,510.48,256C510.48,182.66,396.59,123.16,256.14,123.16"/>
	<path id="XMLID_174_" class="st60" d="M256.14,123.3C115.68,123.3,1.8,182.8,1.8,256.14s113.89,132.84,254.34,132.84
		s254.34-59.5,254.34-132.84C510.48,182.66,396.59,123.3,256.14,123.3"/>
	<path id="XMLID_173_" class="st61" d="M256.14,123.3C115.68,123.3,1.8,182.8,1.8,256.14s113.89,132.84,254.34,132.84
		s254.34-59.5,254.34-132.84C510.48,182.66,396.59,123.3,256.14,123.3"/>
	<path id="XMLID_172_" class="st62" d="M256.14,123.3c-140.45,0-254.2,59.5-254.2,132.84s113.89,132.7,254.2,132.7
		c140.45,0,254.34-59.5,254.34-132.7C510.48,182.8,396.59,123.3,256.14,123.3"/>
	<path id="XMLID_171_" class="st63" d="M256.14,123.3c-140.45,0-254.2,59.36-254.2,132.7s113.89,132.7,254.2,132.7
		c140.45,0,254.2-59.5,254.2-132.7C510.48,182.8,396.59,123.3,256.14,123.3"/>
	<path id="XMLID_170_" class="st64" d="M256.14,123.3c-140.45,0-254.2,59.36-254.2,132.7s113.89,132.7,254.2,132.7
		c140.45,0,254.2-59.36,254.2-132.7C510.34,182.8,396.59,123.3,256.14,123.3"/>
	<path id="XMLID_169_" class="st65" d="M256.14,123.43c-140.32,0-254.2,59.36-254.2,132.7s113.75,132.7,254.2,132.7
		c140.32,0,254.2-59.36,254.2-132.7S396.59,123.43,256.14,123.43"/>
	<path id="XMLID_168_" class="st66" d="M256.14,123.43c-140.32,0-254.2,59.36-254.2,132.7c0,73.2,113.75,132.7,254.2,132.7
		c140.32,0,254.2-59.36,254.2-132.7S396.59,123.43,256.14,123.43"/>
	<path id="XMLID_167_" class="st67" d="M256.14,123.43c-140.32,0-254.06,59.36-254.06,132.7c0,73.2,113.75,132.7,254.06,132.7
		s254.2-59.36,254.2-132.7S396.59,123.43,256.14,123.43"/>
	<path id="XMLID_166_" class="st68" d="M256.14,123.43C115.82,123.43,2.08,182.8,2.08,256s113.75,132.57,254.06,132.57
		S510.2,329.2,510.2,256C510.34,182.8,396.45,123.43,256.14,123.43"/>
	<path id="XMLID_165_" class="st69" d="M256.14,123.43C115.82,123.43,2.08,182.8,2.08,256s113.75,132.57,254.06,132.57
		S510.2,329.2,510.2,256C510.34,182.8,396.45,123.43,256.14,123.43"/>
	<path id="XMLID_164_" class="st70" d="M256.14,123.57c-140.32,0-254.06,59.36-254.06,132.57S115.82,388.7,256.14,388.7
		S510.2,329.34,510.2,256.14C510.2,182.8,396.45,123.57,256.14,123.57"/>
	<path id="XMLID_163_" class="st71" d="M256.14,123.57c-140.32,0-254.06,59.36-254.06,132.57S115.82,388.7,256.14,388.7
		S510.2,329.34,510.2,256.14S396.45,123.57,256.14,123.57"/>
	<path id="XMLID_162_" class="st72" d="M256.14,123.57c-140.32,0-253.92,59.36-253.92,132.57S115.96,388.7,256.14,388.7
		c140.32,0,254.06-59.36,254.06-132.57S396.45,123.57,256.14,123.57"/>
	<path id="XMLID_161_" class="st73" d="M256.14,123.57C115.82,123.57,2.21,182.94,2.21,256c0,73.2,113.75,132.43,253.92,132.43
		c140.32,0,253.92-59.36,253.92-132.43C510.2,182.94,396.45,123.57,256.14,123.57"/>
	<path id="XMLID_160_" class="st74" d="M256.14,123.57C115.96,123.57,2.21,182.94,2.21,256c0,73.2,113.75,132.43,253.92,132.43
		S510.06,329.06,510.06,256C510.2,182.94,396.45,123.57,256.14,123.57"/>
	<path id="XMLID_159_" class="st75" d="M256.14,123.71c-140.18,0-253.92,59.23-253.92,132.43c0,73.06,113.75,132.43,253.92,132.43
		s253.92-59.36,253.92-132.43C510.06,182.94,396.45,123.71,256.14,123.71"/>
	<path id="XMLID_158_" class="st76" d="M256.14,123.71c-140.18,0-253.92,59.23-253.92,132.43c0,73.06,113.61,132.43,253.92,132.43
		s253.92-59.23,253.92-132.43S396.45,123.71,256.14,123.71"/>
	<path id="XMLID_157_" class="st77" d="M256.14,123.71c-140.18,0-253.92,59.23-253.92,132.43c0,73.06,113.61,132.43,253.92,132.43
		c140.18,0,253.92-59.23,253.92-132.43S396.45,123.71,256.14,123.71"/>
	<path id="XMLID_156_" class="st78" d="M256.14,123.71c-140.18,0-253.79,59.23-253.79,132.43c0,73.06,113.61,132.29,253.79,132.29
		s253.79-59.23,253.79-132.29C510.06,182.94,396.45,123.71,256.14,123.71"/>
	<path id="XMLID_155_" class="st79" d="M256.28,123.71C116.1,123.71,2.49,182.94,2.49,256S116.1,388.29,256.28,388.29
		S510.06,329.06,510.06,256C510.06,182.94,396.32,123.71,256.28,123.71"/>
	<path id="XMLID_154_" class="st80" d="M256.28,123.85c-140.18,0-253.79,59.23-253.79,132.29S116.1,388.43,256.28,388.43
		s253.79-59.23,253.79-132.29C510.06,183.07,396.32,123.85,256.28,123.85"/>
	<path id="XMLID_153_" class="st81" d="M256.28,123.85c-140.18,0-253.79,59.23-253.79,132.29S116.1,388.43,256.28,388.43
		s253.79-59.23,253.79-132.29C509.92,183.07,396.32,123.85,256.28,123.85"/>
	<path id="XMLID_152_" class="st82" d="M256.28,123.85c-140.18,0-253.65,59.23-253.65,132.29s113.61,132.29,253.65,132.29
		c140.18,0,253.79-59.23,253.79-132.29C509.92,183.07,396.32,123.85,256.28,123.85"/>
	<path id="XMLID_151_" class="st83" d="M256.28,123.85c-140.04,0-253.65,59.23-253.65,132.29s113.61,132.15,253.65,132.15
		s253.65-59.23,253.65-132.15C509.92,183.07,396.32,123.85,256.28,123.85"/>
	<path id="XMLID_150_" class="st84" d="M256.28,123.85C116.24,123.85,2.63,183.07,2.63,256c0,73.06,113.61,132.15,253.65,132.15
		S509.92,328.93,509.92,256S396.32,123.85,256.28,123.85"/>
	<path id="XMLID_149_" class="st85" d="M256.28,123.85C116.24,123.85,2.63,183.07,2.63,256s113.61,132.15,253.65,132.15
		S509.92,328.93,509.92,256S396.32,123.85,256.28,123.85"/>
	<path id="XMLID_148_" class="st86" d="M256.28,123.99c-140.04,0-253.65,59.23-253.65,132.15s113.61,132.15,253.65,132.15
		s253.65-59.23,253.65-132.15C509.79,183.07,396.32,123.99,256.28,123.99"/>
	<path id="XMLID_147_" class="st87" d="M256.28,123.99c-140.04,0-253.51,59.09-253.51,132.15c0,72.93,113.47,132.15,253.51,132.15
		s253.65-59.23,253.65-132.15C509.79,183.07,396.32,123.99,256.28,123.99"/>
	<path id="XMLID_146_" class="st88" d="M256.28,123.99c-140.04,0-253.51,59.09-253.51,132.15c0,72.93,113.47,132.15,253.51,132.15
		s253.51-59.09,253.51-132.15S396.32,123.99,256.28,123.99"/>
	<path id="XMLID_145_" class="st89" d="M256.28,123.99c-140.04,0-253.51,59.23-253.51,132.15s113.47,132.01,253.51,132.01
		s253.51-59.09,253.51-132.01S396.32,123.99,256.28,123.99"/>
	<path id="XMLID_144_" class="st90" d="M256.28,123.99c-140.04,0-253.51,59.23-253.51,132.15s113.47,132.01,253.51,132.01
		s253.51-59.09,253.51-132.01S396.18,123.99,256.28,123.99"/>
	<path id="XMLID_143_" class="st91" d="M256.28,124.13c-140.04,0-253.51,59.09-253.51,132.01s113.47,132.01,253.51,132.01
		s253.51-59.09,253.51-132.01S396.18,124.13,256.28,124.13"/>
	<path id="XMLID_142_" class="st92" d="M256.28,124.13c-140.04,0-253.51,59.09-253.51,132.01s113.47,132.01,253.37,132.01
		s253.51-59.09,253.51-132.01S396.18,124.13,256.28,124.13"/>
	<path id="XMLID_141_" class="st93" d="M256.28,124.13c-139.9,0-253.37,59.09-253.37,132.01s113.47,132.01,253.37,132.01
		s253.37-59.09,253.37-132.01S396.18,124.13,256.28,124.13"/>
	<path id="XMLID_140_" class="st94" d="M256.28,124.13C116.38,124.13,2.91,183.21,2.91,256s113.47,131.87,253.37,131.87
		S509.65,328.79,509.65,256S396.18,124.13,256.28,124.13"/>
	<path id="XMLID_139_" class="st95" d="M256.28,124.13C116.38,124.13,2.91,183.21,2.91,256s113.47,131.87,253.37,131.87
		S509.65,328.79,509.65,256S396.18,124.13,256.28,124.13"/>
	<path id="XMLID_138_" class="st96" d="M256.28,124.26c-139.9,0-253.37,59.09-253.37,131.87s113.47,131.87,253.37,131.87
		s253.37-59.09,253.37-131.87C509.65,183.21,396.18,124.26,256.28,124.26"/>
	<path id="XMLID_137_" class="st97" d="M256.28,124.26c-139.9,0-253.23,59.09-253.23,131.87s113.47,131.87,253.23,131.87
		c139.9,0,253.37-59.09,253.37-131.87C509.51,183.21,396.18,124.26,256.28,124.26"/>
	<path id="XMLID_136_" class="st98" d="M256.28,124.26c-139.9,0-253.23,59.09-253.23,131.87s113.33,131.87,253.23,131.87
		s253.23-59.09,253.23-131.87S396.18,124.26,256.28,124.26"/>
	<path id="XMLID_135_" class="st99" d="M256.28,124.26c-139.9,0-253.23,58.95-253.23,131.87c0,72.79,113.33,131.74,253.23,131.74
		s253.23-59.09,253.23-131.74C509.51,183.35,396.18,124.26,256.28,124.26"/>
	<path id="XMLID_134_" class="st100" d="M256.28,124.26C116.38,124.26,3.04,183.21,3.04,256s113.33,131.74,253.23,131.74
		S509.51,328.79,509.51,256C509.51,183.35,396.18,124.26,256.28,124.26"/>
	<path id="XMLID_133_" class="st101" d="M256.28,124.4c-139.76,0-253.23,58.95-253.23,131.74s113.33,131.74,253.23,131.74
		c139.76,0,253.23-58.95,253.23-131.74S396.04,124.4,256.28,124.4"/>
	<path id="XMLID_132_" class="st102" d="M256.28,124.4c-139.76,0-253.09,58.95-253.09,131.74s113.33,131.74,253.09,131.74
		s253.23-58.95,253.23-131.74S396.04,124.4,256.28,124.4"/>
	<path id="XMLID_131_" class="st103" d="M256.28,124.4c-139.76,0-253.09,58.95-253.09,131.74s113.33,131.74,253.09,131.74
		s253.09-58.95,253.09-131.74C509.37,183.35,396.04,124.4,256.28,124.4"/>
	<path id="XMLID_130_" class="st104" d="M256.28,124.4c-139.76,0-253.09,58.95-253.09,131.74c0,72.65,113.33,131.74,253.09,131.74
		s253.09-58.95,253.09-131.74C509.37,183.35,396.04,124.4,256.28,124.4"/>
	<path id="XMLID_129_" class="st105" d="M256.28,124.4C116.51,124.4,3.18,183.35,3.18,256s113.33,131.6,253.09,131.6
		S509.37,328.65,509.37,256C509.37,183.35,396.04,124.4,256.28,124.4"/>
	<path id="XMLID_128_" class="st106" d="M256.28,124.54c-139.76,0-253.09,58.95-253.09,131.6s113.33,131.6,253.09,131.6
		s253.09-58.95,253.09-131.6C509.37,183.35,396.04,124.54,256.28,124.54"/>
	<path id="XMLID_127_" class="st107" d="M256.28,124.54c-139.76,0-252.96,58.95-252.96,131.6s113.33,131.6,252.96,131.6
		c139.76,0,253.09-58.95,253.09-131.6C509.37,183.49,396.04,124.54,256.28,124.54"/>
	<path id="XMLID_126_" class="st108" d="M256.28,124.54c-139.76,0-252.96,58.95-252.96,131.6s113.33,131.6,252.96,131.6
		c139.76,0,252.96-58.95,252.96-131.6C509.37,183.49,396.04,124.54,256.28,124.54"/>
	<path id="XMLID_125_" class="st109" d="M256.28,124.54c-139.76,0-252.96,58.95-252.96,131.6s113.33,131.6,252.96,131.6
		c139.76,0,252.96-58.95,252.96-131.6S396.04,124.54,256.28,124.54"/>
	<path id="XMLID_124_" class="st110" d="M256.28,124.54C116.65,124.54,3.32,183.35,3.32,256s113.19,131.46,252.96,131.46
		c139.62,0,252.96-58.95,252.96-131.46S396.04,124.54,256.28,124.54"/>
	<path id="XMLID_123_" class="st111" d="M256.28,124.68c-139.62,0-252.96,58.81-252.96,131.46S116.51,387.6,256.28,387.6
		c139.62,0,252.96-58.81,252.96-131.46S396.04,124.68,256.28,124.68"/>
	<path id="XMLID_122_" class="st112" d="M256.28,124.68c-139.62,0-252.82,58.81-252.82,131.46S116.65,387.6,256.28,387.6
		s252.96-58.81,252.96-131.46S395.9,124.68,256.28,124.68"/>
	<path id="XMLID_121_" class="st113" d="M256.28,124.68c-139.62,0-252.82,58.81-252.82,131.46c0,72.51,113.19,131.46,252.82,131.46
		s252.82-58.81,252.82-131.46C509.23,183.49,395.9,124.68,256.28,124.68"/>
	<path id="XMLID_120_" class="st114" d="M256.28,124.68c-139.62,0-252.82,58.81-252.82,131.46c0,72.51,113.19,131.46,252.82,131.46
		s252.82-58.81,252.82-131.46S395.9,124.68,256.28,124.68"/>
	<path id="XMLID_119_" class="st115" d="M256.28,124.68C116.65,124.68,3.46,183.49,3.46,256s113.19,131.32,252.82,131.32
		S509.09,328.51,509.09,256S395.9,124.68,256.28,124.68"/>
	<path id="XMLID_118_" class="st116" d="M256.28,124.82c-139.62,0-252.82,58.81-252.82,131.32s113.19,131.32,252.82,131.32
		s252.82-58.81,252.82-131.32S395.9,124.82,256.28,124.82"/>
	<path id="XMLID_117_" class="st117" d="M256.28,124.82C116.65,124.82,3.6,183.63,3.6,256.14s113.19,131.32,252.68,131.32
		c139.62,0,252.82-58.81,252.82-131.32S395.9,124.82,256.28,124.82"/>
	<path id="XMLID_116_" class="st118" d="M256.28,124.82C116.65,124.82,3.6,183.63,3.6,256.14s113.19,131.32,252.68,131.32
		c139.62,0,252.68-58.81,252.68-131.32C509.09,183.63,395.9,124.82,256.28,124.82"/>
	<path id="XMLID_115_" class="st119" d="M256.28,124.82C116.79,124.82,3.6,183.63,3.6,256.14s113.19,131.32,252.68,131.32
		s252.68-58.81,252.68-131.32C509.09,183.63,395.9,124.82,256.28,124.82"/>
	<path id="XMLID_114_" class="st120" d="M256.28,124.82C116.79,124.82,3.6,183.63,3.6,256.14s113.19,131.32,252.68,131.32
		s252.68-58.81,252.68-131.32S395.9,124.82,256.28,124.82"/>
	<path id="XMLID_113_" class="st121" d="M256.28,124.96C116.79,124.96,3.6,183.77,3.6,256.14c0,72.51,113.06,131.18,252.68,131.18
		s252.68-58.81,252.68-131.18C508.96,183.63,395.9,124.96,256.28,124.96"/>
	<path id="XMLID_112_" class="st122" d="M256.28,124.96c-139.49,0-252.54,58.67-252.54,131.18s113.06,131.18,252.54,131.18
		s252.68-58.81,252.68-131.18C508.96,183.63,395.9,124.96,256.28,124.96"/>
	<path id="XMLID_111_" class="st123" d="M256.28,124.96c-139.49,0-252.54,58.67-252.54,131.18c0,72.37,113.06,131.18,252.54,131.18
		s252.54-58.67,252.54-131.18C508.96,183.63,395.76,124.96,256.28,124.96"/>
	<path id="XMLID_110_" class="st124" d="M256.28,124.96c-139.49,0-252.54,58.67-252.54,131.18c0,72.37,113.06,131.18,252.54,131.18
		s252.54-58.67,252.54-131.18C508.96,183.63,395.76,124.96,256.28,124.96"/>
	<path id="XMLID_109_" class="st125" d="M256.28,124.96c-139.49,0-252.54,58.67-252.54,131.18c0,72.37,113.06,131.18,252.54,131.18
		s252.54-58.67,252.54-131.18C508.82,183.77,395.76,124.96,256.28,124.96"/>
	<path id="XMLID_108_" class="st126" d="M256.28,125.09c-139.49,0-252.54,58.67-252.54,131.04s113.06,131.04,252.54,131.04
		s252.54-58.67,252.54-131.04S395.76,125.09,256.28,125.09"/>
	<path id="XMLID_107_" class="st127" d="M256.28,125.09c-139.49,0-252.4,58.67-252.4,131.04s113.06,131.04,252.4,131.04
		c139.49,0,252.54-58.67,252.54-131.04S395.76,125.09,256.28,125.09"/>
	<path id="XMLID_106_" class="st128" d="M256.28,125.09c-139.35,0-252.4,58.67-252.4,131.04s113.06,131.04,252.4,131.04
		s252.4-58.67,252.4-131.04C508.82,183.77,395.76,125.09,256.28,125.09"/>
	<path id="XMLID_105_" class="st129" d="M256.42,125.09c-139.35,0-252.4,58.67-252.4,131.04s113.06,131.04,252.4,131.04
		s252.4-58.67,252.4-131.04S395.76,125.09,256.42,125.09"/>
	<path id="XMLID_104_" class="st130" d="M256.42,125.09c-139.35,0-252.4,58.67-252.4,131.04s113.06,131.04,252.4,131.04
		s252.4-58.67,252.4-131.04S395.76,125.09,256.42,125.09"/>
	<path id="XMLID_103_" class="st131" d="M256.42,125.23c-139.35,0-252.4,58.67-252.4,130.91c0,72.37,113.06,130.91,252.4,130.91
		s252.4-58.67,252.4-130.91C508.68,183.77,395.76,125.23,256.42,125.23"/>
	<path id="XMLID_102_" class="st132" d="M256.42,125.23c-139.35,0-252.26,58.67-252.26,130.91s112.92,130.91,252.26,130.91
		s252.4-58.67,252.4-130.91C508.68,183.77,395.76,125.23,256.42,125.23"/>
	<path id="XMLID_101_" class="st133" d="M256.42,125.23c-139.35,0-252.26,58.67-252.26,130.91s112.92,130.91,252.26,130.91
		s252.26-58.67,252.26-130.91C508.68,183.77,395.76,125.23,256.42,125.23"/>
	<path id="XMLID_100_" class="st134" d="M256.42,125.23c-139.35,0-252.26,58.67-252.26,130.91s112.92,130.91,252.26,130.91
		s252.26-58.67,252.26-130.91S395.62,125.23,256.42,125.23"/>
	<path id="XMLID_99_" class="st135" d="M256.42,125.23c-139.35,0-252.26,58.67-252.26,130.91s112.92,130.91,252.26,130.91
		s252.26-58.53,252.26-130.91C508.68,183.9,395.62,125.23,256.42,125.23"/>
	<path id="XMLID_98_" class="st136" d="M256.42,125.37c-139.35,0-252.26,58.53-252.26,130.77s112.92,130.91,252.26,130.91
		s252.26-58.53,252.26-130.91C508.54,183.9,395.62,125.37,256.42,125.37"/>
	<path id="XMLID_97_" class="st137" d="M256.42,125.37c-139.35,0-252.26,58.53-252.26,130.77s112.92,130.77,252.13,130.77
		c139.35,0,252.26-58.53,252.26-130.77S395.62,125.37,256.42,125.37"/>
	<path id="XMLID_96_" class="st138" d="M256.42,125.37c-139.35,0-252.26,58.53-252.26,130.77s112.92,130.77,252.13,130.77
		S508.4,328.37,508.4,256.14C508.54,183.9,395.62,125.37,256.42,125.37"/>
	<path id="XMLID_95_" class="st139" d="M256.42,125.37c-139.21,0-252.13,58.53-252.13,130.77s112.92,130.77,252.13,130.77
		s252.13-58.53,252.13-130.77S395.62,125.37,256.42,125.37"/>
	<path id="XMLID_94_" class="st139" d="M256.42,125.37c-139.21,0-252.13,58.53-252.13,130.77s112.92,130.77,252.13,130.77
		s252.13-58.53,252.13-130.77S395.62,125.37,256.42,125.37"/>
	<path id="XMLID_93_" class="st140" d="M256.42,125.51c-139.21,0-252.13,58.53-252.13,130.77s112.92,130.77,252.13,130.77
		s252.13-58.53,252.13-130.77C508.54,183.9,395.62,125.51,256.42,125.51"/>
	<path id="XMLID_92_" class="st141" d="M256.42,125.51c-139.21,0-251.99,58.53-251.99,130.63s112.92,130.63,251.99,130.63
		c139.21,0,252.13-58.53,252.13-130.63C508.4,183.9,395.62,125.51,256.42,125.51"/>
	<path id="XMLID_91_" class="st142" d="M256.42,125.51c-139.21,0-251.99,58.53-251.99,130.63s112.78,130.63,251.99,130.63
		S508.4,328.23,508.4,256.14C508.4,184.04,395.62,125.51,256.42,125.51"/>
	<path id="XMLID_90_" class="st143" d="M256.42,125.51c-139.21,0-251.99,58.53-251.99,130.63s112.78,130.63,251.99,130.63
		S508.4,328.23,508.4,256.14C508.4,184.04,395.49,125.51,256.42,125.51"/>
	<path id="XMLID_89_" class="st144" d="M256.42,125.51c-139.21,0-251.99,58.53-251.99,130.63s112.78,130.63,251.99,130.63
		S508.4,328.23,508.4,256.14C508.4,184.04,395.49,125.51,256.42,125.51"/>
	<path id="XMLID_88_" class="st145" d="M256.42,125.65c-139.07,0-251.99,58.4-251.99,130.63c0,72.1,112.78,130.63,251.99,130.63
		c139.07,0,251.99-58.53,251.99-130.63C508.4,184.04,395.49,125.65,256.42,125.65"/>
	<path id="XMLID_87_" class="st146" d="M256.42,125.65c-139.07,0-251.85,58.4-251.85,130.49s112.78,130.49,251.85,130.49
		s251.99-58.4,251.99-130.49C508.26,184.04,395.49,125.65,256.42,125.65"/>
	<path id="XMLID_86_" class="st147" d="M256.42,125.65c-139.07,0-251.85,58.4-251.85,130.49s112.78,130.49,251.85,130.49
		s251.85-58.4,251.85-130.49S395.49,125.65,256.42,125.65"/>
	<path id="XMLID_85_" class="st148" d="M256.42,125.65c-139.07,0-251.85,58.4-251.85,130.49s112.78,130.49,251.85,130.49
		s251.85-58.4,251.85-130.49S395.49,125.65,256.42,125.65"/>
	<path id="XMLID_84_" class="st149" d="M256.42,125.65c-139.07,0-251.85,58.4-251.85,130.49s112.78,130.49,251.85,130.49
		s251.85-58.4,251.85-130.49S395.49,125.65,256.42,125.65"/>
	<path id="XMLID_83_" class="st149" d="M256.42,125.79c-139.07,0-251.85,58.4-251.85,130.49s112.78,130.49,251.85,130.49
		s251.85-58.4,251.85-130.49S395.49,125.79,256.42,125.79"/>
	<path id="XMLID_82_" class="st150" d="M256.42,125.79c-139.07,0-251.71,58.4-251.71,130.35s112.78,130.35,251.71,130.35
		c139.07,0,251.85-58.4,251.85-130.35S395.49,125.79,256.42,125.79"/>
	<path id="XMLID_81_" class="st151" d="M256.42,125.79c-139.07,0-251.71,58.4-251.71,130.35s112.78,130.35,251.71,130.35
		c139.07,0,251.71-58.4,251.71-130.35S395.49,125.79,256.42,125.79"/>
	<path id="XMLID_80_" class="st152" d="M256.42,125.79c-139.07,0-251.71,58.4-251.71,130.35s112.64,130.35,251.71,130.35
		s251.71-58.4,251.71-130.35S395.49,125.79,256.42,125.79"/>
	<path id="XMLID_79_" class="st153" d="M256.42,125.79c-138.93,0-251.71,58.4-251.71,130.35s112.64,130.35,251.71,130.35
		c138.93,0,251.71-58.4,251.71-130.35S395.49,125.79,256.42,125.79"/>
	<path id="XMLID_78_" class="st154" d="M256.42,125.79c-138.93,0-251.71,58.4-251.71,130.35s112.64,130.35,251.71,130.35
		c138.93,0,251.71-58.4,251.71-130.35S395.35,125.79,256.42,125.79"/>
	<path id="XMLID_77_" class="st155" d="M256.42,125.92c-138.93,0-251.57,58.26-251.57,130.21s112.64,130.35,251.57,130.35
		s251.71-58.4,251.71-130.35S395.35,125.92,256.42,125.92"/>
	<path id="XMLID_76_" class="st156" d="M256.42,125.92c-138.93,0-251.57,58.26-251.57,130.21s112.64,130.21,251.57,130.21
		s251.57-58.4,251.57-130.21C507.99,184.18,395.35,125.92,256.42,125.92"/>
	<path id="XMLID_75_" class="st157" d="M256.42,125.92c-138.93,0-251.57,58.26-251.57,130.21s112.64,130.21,251.57,130.21
		s251.57-58.26,251.57-130.21S395.35,125.92,256.42,125.92"/>
	<path id="XMLID_74_" class="st158" d="M256.42,125.92c-138.93,0-251.57,58.26-251.57,130.21s112.64,130.21,251.57,130.21
		s251.57-58.26,251.57-130.21C507.99,184.32,395.35,125.92,256.42,125.92"/>
	<path id="XMLID_73_" class="st159" d="M256.42,126.06c-138.93,0-251.57,58.26-251.57,130.21s112.64,130.21,251.57,130.21
		s251.57-58.26,251.57-130.21S395.35,126.06,256.42,126.06"/>
	<path id="XMLID_72_" class="st159" d="M256.42,126.06c-138.93,0-251.43,58.26-251.43,130.21c0,71.82,112.64,130.21,251.43,130.21
		c138.93,0,251.57-58.26,251.57-130.21S395.35,126.06,256.42,126.06"/>
	<path id="XMLID_71_" class="st160" d="M256.42,126.06c-138.93,0-251.43,58.26-251.43,130.08s112.64,130.08,251.43,130.08
		c138.93,0,251.43-58.26,251.43-130.08C507.99,184.32,395.35,126.06,256.42,126.06"/>
	<path id="XMLID_70_" class="st161" d="M256.42,126.06c-138.79,0-251.43,58.26-251.43,130.08s112.64,130.08,251.43,130.08
		c138.93,0,251.43-58.26,251.43-130.08S395.35,126.06,256.42,126.06"/>
	<path id="XMLID_69_" class="st162" d="M256.42,126.06c-138.79,0-251.43,58.26-251.43,130.08s112.5,130.08,251.43,130.08
		c138.79,0,251.43-58.26,251.43-130.08S395.35,126.06,256.42,126.06"/>
	<path id="XMLID_68_" class="st163" d="M256.42,126.06c-138.79,0-251.43,58.26-251.43,130.08s112.5,130.08,251.43,130.08
		c138.79,0,251.43-58.26,251.43-130.08S395.35,126.06,256.42,126.06"/>
	<path id="XMLID_67_" class="st164" d="M256.42,126.2c-138.79,0-251.3,58.26-251.3,130.08s112.5,130.08,251.3,130.08
		s251.43-58.26,251.43-130.08C507.85,184.32,395.21,126.2,256.42,126.2"/>
	<path id="XMLID_66_" class="st165" d="M256.42,126.2c-138.79,0-251.3,58.26-251.3,129.94c0,71.82,112.5,129.94,251.3,129.94
		s251.3-58.26,251.3-129.94C507.85,184.32,395.21,126.2,256.42,126.2"/>
	<path id="XMLID_65_" class="st166" d="M256.42,126.2c-138.79,0-251.3,58.12-251.3,129.94s112.5,129.94,251.3,129.94
		s251.3-58.26,251.3-129.94C507.71,184.46,395.21,126.2,256.42,126.2"/>
	<path id="XMLID_64_" class="st167" d="M256.42,126.2c-138.79,0-251.3,58.12-251.3,129.94s112.5,129.94,251.3,129.94
		s251.3-58.12,251.3-129.94C507.71,184.46,395.21,126.2,256.42,126.2"/>
	<path id="XMLID_63_" class="st168" d="M256.42,126.2c-138.79,0-251.3,58.12-251.3,129.94c0,71.68,112.5,129.94,251.3,129.94
		s251.3-58.12,251.3-129.94C507.71,184.46,395.21,126.2,256.42,126.2"/>
	<path id="XMLID_62_" class="st169" d="M256.42,126.34c-138.79,0-251.16,58.12-251.16,129.94c0,71.68,112.5,129.94,251.16,129.94
		c138.79,0,251.3-58.12,251.3-129.94C507.71,184.46,395.21,126.34,256.42,126.34"/>
	<path id="XMLID_61_" class="st169" d="M256.42,126.34c-138.66,0-251.16,58.12-251.16,129.8s112.5,129.8,251.16,129.8
		s251.16-58.12,251.16-129.8C507.71,184.46,395.21,126.34,256.42,126.34"/>
	<path id="XMLID_60_" class="st170" d="M256.42,126.34c-138.66,0-251.16,58.12-251.16,129.8s112.5,129.8,251.16,129.8
		s251.16-58.12,251.16-129.8C507.71,184.46,395.21,126.34,256.42,126.34"/>
	<path id="XMLID_59_" class="st171" d="M256.42,126.34c-138.66,0-251.16,58.12-251.16,129.8s112.5,129.8,251.16,129.8
		s251.16-58.12,251.16-129.8S395.21,126.34,256.42,126.34"/>
	<path id="XMLID_58_" class="st171" d="M256.42,126.34c-138.66,0-251.16,58.12-251.16,129.8s112.36,129.8,251.16,129.8
		c138.66,0,251.16-58.12,251.16-129.8S395.21,126.34,256.42,126.34"/>
	<path id="XMLID_57_" class="st172" d="M256.42,126.48C117.76,126.48,5.4,184.6,5.4,256.28s112.36,129.8,251.02,129.8
		s251.16-58.12,251.16-129.8C507.57,184.46,395.21,126.48,256.42,126.48"/>
	<path id="XMLID_56_" class="st173" d="M256.42,126.48C117.76,126.48,5.4,184.6,5.4,256.28s112.36,129.8,251.02,129.8
		s251.02-58.12,251.02-129.8C507.57,184.6,395.07,126.48,256.42,126.48"/>
	<path id="XMLID_55_" class="st174" d="M256.42,126.48C117.76,126.48,5.4,184.6,5.4,256.14c0,71.68,112.36,129.66,251.02,129.66
		s251.02-58.12,251.02-129.66C507.57,184.6,395.07,126.48,256.42,126.48"/>
	<g id="XMLID_2_">
		<g id="XMLID_3_">
			<g>
				<defs>
					<path id="SVGID_1_" d="M10.1,256c0,68.36,110.15,123.85,245.9,123.85c135.89,0,246.04-55.49,246.04-123.85
						S391.89,132.15,256,132.15S10.1,187.64,10.1,256"/>
				</defs>
				<clipPath id="SVGID_00000175296330761886174240000006721633705927672738_">
					<use xlink:href="#SVGID_1_"  style="overflow:visible;"/>
				</clipPath>
				
					<linearGradient id="XMLID_00000029729005912537726920000003664928614488419990_" gradientUnits="userSpaceOnUse" x1="-418.5749" y1="29.9271" x2="-414.3394" y2="29.9271" gradientTransform="matrix(30.5259 65.463 65.463 -30.5259 11009.6074 28432.0879)">
					<stop  offset="0" style="stop-color:#008948"/>
					<stop  offset="0.3764" style="stop-color:#008948"/>
					<stop  offset="0.5955" style="stop-color:#004E25"/>
					<stop  offset="1" style="stop-color:#000000"/>
				</linearGradient>
				
					<polygon id="XMLID_53_" style="clip-path:url(#SVGID_00000175296330761886174240000006721633705927672738_);fill:url(#XMLID_00000029729005912537726920000003664928614488419990_);" points="
					414.03,-56.18 596.83,335.57 97.83,568.18 -84.83,176.43 				"/>
			</g>
		</g>
	</g>
	<path id="XMLID_4_" class="st176" d="M256,368.92c-128,0-232.06-50.09-232.06-111.67S128,145.57,256,145.57
		s232.06,50.09,232.06,111.67C488.06,318.69,384,368.92,256,368.92z M256,148.62c-126.2,0-228.88,48.71-228.88,108.49
		C27.12,317.02,129.8,365.6,256,365.6s228.88-48.71,228.88-108.49S382.2,148.62,256,148.62z"/>
	<path id="XMLID_5_" class="st177" d="M256,374.87c-132.15,0-239.67-53.28-239.67-118.59c0-65.45,107.52-118.59,239.67-118.59
		s239.67,53.28,239.67,118.59S388.15,374.87,256,374.87z M256,143.5c-128.83,0-233.72,50.51-233.72,112.64S127.17,368.78,256,368.78
		s233.72-50.51,233.72-112.64S384.83,143.5,256,143.5z"/>
	<g id="XMLID_6_">
		<g id="XMLID_7_">
			<g>
				<defs>
					<polygon id="SVGID_00000118398796407220927930000002872344151506625167_" points="362.97,207.57 358.26,221.54 383.31,221.54 
						354.66,231.92 352.86,237.6 396.73,222.51 401.57,207.57 					"/>
				</defs>
				<clipPath id="SVGID_00000169529407875420043690000012986679051162693784_">
					<use xlink:href="#SVGID_00000118398796407220927930000002872344151506625167_"  style="overflow:visible;"/>
				</clipPath>
				
					<linearGradient id="XMLID_00000018916435746372529300000015458768536064232327_" gradientUnits="userSpaceOnUse" x1="-415.2347" y1="33.0487" x2="-410.9992" y2="33.0487" gradientTransform="matrix(23.6597 50.7384 50.7384 -23.6597 8490.1436 21998.7832)">
					<stop  offset="0" style="stop-color:#004E25"/>
					<stop  offset="1" style="stop-color:#000000"/>
				</linearGradient>
				
					<polygon id="XMLID_47_" style="clip-path:url(#SVGID_00000169529407875420043690000012986679051162693784_);fill:url(#XMLID_00000018916435746372529300000015458768536064232327_);" points="
					392.86,188.89 413.2,232.34 361.58,256.42 341.24,212.96 				"/>
			</g>
		</g>
	</g>
	<g id="XMLID_8_">
		<g id="XMLID_9_">
			<g>
				<defs>
					<path id="SVGID_00000096759931029423239590000001303655918396929968_" d="M159,231.23L159,231.23L159,231.23z M136.58,183.35
						c2.77,1.38,0.28,6.64,0.28,6.64s-17.44,50.78-18.68,53.28c-1.25,2.49-2.08,2.91-2.08,2.91h37.64l5.26-14.94
						c-0.55,1.38-4.01,0.97-4.01,0.97h-15.78c0,0,14.53-40.68,15.78-43.73c1.66-4.43,2.91-4.98,3.18-5.12H136.58z M158.17,183.35
						L158.17,183.35C158.3,183.35,158.3,183.35,158.17,183.35C158.3,183.35,158.17,183.35,158.17,183.35"/>
				</defs>
				<clipPath id="SVGID_00000083067041679872421990000006079655588546744242_">
					<use xlink:href="#SVGID_00000096759931029423239590000001303655918396929968_"  style="overflow:visible;"/>
				</clipPath>
				
					<linearGradient id="XMLID_00000059307987594999032730000007284026087796409226_" gradientUnits="userSpaceOnUse" x1="-419.3475" y1="27.6616" x2="-415.112" y2="27.6616" gradientTransform="matrix(45.6193 97.8309 97.8309 -45.6193 16629.6523 42647.4648)">
					<stop  offset="0" style="stop-color:#004E25"/>
					<stop  offset="1" style="stop-color:#000000"/>
				</linearGradient>
				
					<polygon id="XMLID_43_" style="clip-path:url(#SVGID_00000083067041679872421990000006079655588546744242_);fill:url(#XMLID_00000059307987594999032730000007284026087796409226_);" points="
					151.39,166.88 183.07,234.97 123.71,262.64 92.02,194.56 				"/>
			</g>
		</g>
	</g>
	<g id="XMLID_11_">
		<g id="XMLID_12_">
			<g>
				<defs>
					<path id="SVGID_00000078008294529100747210000013392400610100721056_" d="M274.96,187.09c-0.55,1.66-10.38,28.78-10.38,28.78
						l-3.74-32.38h-18.4c0,0,0.97,1.66,0.28,3.32c-0.55,1.38-19.51,55.9-19.51,55.9s-1.25,3.46-2.21,3.46h17.71
						c0,0-1.25-1.94-0.42-3.87c0.97-2.91,10.52-29.61,10.52-29.61l4.15,33.63h16.05l21.03-59.78c0,0,0.83-2.77,2.08-2.77H275.1
						C275.1,183.49,275.51,185.57,274.96,187.09"/>
				</defs>
				<clipPath id="SVGID_00000138556304226185006480000000525230590108289962_">
					<use xlink:href="#SVGID_00000078008294529100747210000013392400610100721056_"  style="overflow:visible;"/>
				</clipPath>
				
					<linearGradient id="XMLID_00000165931170646701917930000010505342046352430002_" gradientUnits="userSpaceOnUse" x1="-419.3533" y1="28.8367" x2="-415.118" y2="28.8367" gradientTransform="matrix(40.7155 87.3146 87.3146 -40.7155 14818.166 38015.8125)">
					<stop  offset="0" style="stop-color:#004E25"/>
					<stop  offset="1" style="stop-color:#000000"/>
				</linearGradient>
				
					<polygon id="XMLID_41_" style="clip-path:url(#SVGID_00000138556304226185006480000000525230590108289962_);fill:url(#XMLID_00000165931170646701917930000010505342046352430002_);" points="
					279.39,156.23 316.19,234.97 233.72,273.3 197.05,194.7 				"/>
			</g>
		</g>
	</g>
	<g id="XMLID_13_">
		<g id="XMLID_14_">
			<g>
				<defs>
					<path id="SVGID_00000066513148187888502750000000307702037261815719_" d="M316.61,197.05h4.57c0,0,11.76-0.69,3.32,20.76
						c-5.12,13.15-12.73,13.98-16.88,13.98c-2.77,0-2.77,0-2.77,0L316.61,197.05z M322.42,183.49h-20.2c0,0,1.52,2.49-0.42,8.44
						c-1.94,5.81-17.44,49.54-17.44,49.54s-1.25,4.15-2.91,4.84h24.22c0,0,29.47,1.11,38.61-31.14c0,0,11.35-31.55-21.31-31.55
						C322.7,183.49,322.56,183.49,322.42,183.49"/>
				</defs>
				<clipPath id="SVGID_00000183248926973832713810000014593911044353830288_">
					<use xlink:href="#SVGID_00000066513148187888502750000000307702037261815719_"  style="overflow:visible;"/>
				</clipPath>
				
					<linearGradient id="XMLID_00000098192367151284359230000002321329028769484928_" gradientUnits="userSpaceOnUse" x1="-419.0088" y1="29.7745" x2="-414.7733" y2="29.7745" gradientTransform="matrix(36.6467 78.589 78.589 -36.6467 13310.2871 34185.4023)">
					<stop  offset="0" style="stop-color:#004E25"/>
					<stop  offset="1" style="stop-color:#000000"/>
				</linearGradient>
				
					<polygon id="XMLID_38_" style="clip-path:url(#SVGID_00000183248926973832713810000014593911044353830288_);fill:url(#XMLID_00000098192367151284359230000002321329028769484928_);" points="
					342.49,155.12 380.13,236.07 294.75,275.79 256.97,194.98 				"/>
			</g>
		</g>
	</g>
	<g id="XMLID_16_">
		<g id="XMLID_17_">
			<g>
				<defs>
					<polygon id="SVGID_00000013193228348839917260000007625630201489719697_" points="93.96,281.74 89.12,296.82 127.86,296.82 
						132.57,282.71 107.52,282.71 136.03,272.33 137.96,266.66 					"/>
				</defs>
				<clipPath id="SVGID_00000038374217361957771830000015721341524063737478_">
					<use xlink:href="#SVGID_00000013193228348839917260000007625630201489719697_"  style="overflow:visible;"/>
				</clipPath>
				
					<linearGradient id="XMLID_00000092425874357056773820000000040201545718591156_" gradientUnits="userSpaceOnUse" x1="-413.7526" y1="29.4466" x2="-409.5172" y2="29.4466" gradientTransform="matrix(23.6606 50.7403 50.7403 -23.6606 8444.8555 22049.1914)">
					<stop  offset="0" style="stop-color:#004E25"/>
					<stop  offset="1" style="stop-color:#000000"/>
				</linearGradient>
				
					<polygon id="XMLID_36_" style="clip-path:url(#SVGID_00000038374217361957771830000015721341524063737478_);fill:url(#XMLID_00000092425874357056773820000000040201545718591156_);" points="
					129.25,247.97 149.45,291.42 97.83,315.5 77.63,272.05 				"/>
			</g>
		</g>
	</g>
	<g id="XMLID_18_">
		<g id="XMLID_19_">
			<g>
				<defs>
					<path id="SVGID_00000010993307029290359230000017343630147703248275_" d="M172,274.4c0,0,2.21,0,4.15,0
						c8.99,0,5.81,7.2,5.81,7.2c-2.77,6.23-10.24,5.54-10.24,5.54h-3.87L172,274.4z M181.97,259.87h-25.05
						c1.8,2.08,0.42,6.64,0.42,6.64s-15.64,46.5-16.74,50.09c-1.25,3.6-3.46,6.09-3.46,6.09h19.79c-0.55,0-0.55-2.08-0.55-2.08
						l7.06-19.65c0,0,8.86,18.13,9.41,19.37c0.55,1.25,0.28,2.35,0.28,2.35h21.17c-2.08,0-4.15-4.01-4.15-4.01l-10.52-19.79
						c14.94,0,19.65-15.22,19.65-15.22c6.92-23.11-14.94-23.66-17.02-23.66C182.11,259.87,181.97,259.87,181.97,259.87"/>
				</defs>
				<clipPath id="SVGID_00000180333373133867485230000004556785959002586539_">
					<use xlink:href="#SVGID_00000010993307029290359230000017343630147703248275_"  style="overflow:visible;"/>
				</clipPath>
				
					<linearGradient id="XMLID_00000014635360985689639020000008006274108084407942_" gradientUnits="userSpaceOnUse" x1="-417.9795" y1="28.3075" x2="-413.744" y2="28.3075" gradientTransform="matrix(36.7057 78.7157 78.7157 -36.7057 13309.1719 34282.4102)">
					<stop  offset="0" style="stop-color:#004E25"/>
					<stop  offset="1" style="stop-color:#000000"/>
				</linearGradient>
				
					<polygon id="XMLID_33_" style="clip-path:url(#SVGID_00000180333373133867485230000004556785959002586539_);fill:url(#XMLID_00000014635360985689639020000008006274108084407942_);" points="
					193.87,233.44 230.26,311.49 149.45,349.27 113.06,271.22 				"/>
			</g>
		</g>
	</g>
	<g id="XMLID_21_">
		<g id="XMLID_22_">
			<g>
				<defs>
					<path id="SVGID_00000128487491687091207090000017023410333251310470_" d="M376.39,322.98L376.39,322.98
						C376.25,322.98,376.25,322.98,376.39,322.98 M391.06,274.82h5.54c0,0,6.64-0.14,4.01,7.06c-2.21,6.09-9.69,5.54-9.69,5.54
						h-3.87L391.06,274.82z M401.16,260.15h-24.91c1.8,2.08,0.42,6.5,0.42,6.5s-16.19,46.77-17.44,50.37
						c-1.25,3.6-3.6,5.95-3.6,5.95h20.62c-1.38,0-0.42-3.87-0.42-3.87l6.37-17.99c0,0,8.58,18.13,9.13,19.37
						c0.55,1.25,0.28,2.35,0.28,2.35h22c-2.08,0-4.29-4.01-4.29-4.01l-10.52-19.79c14.81,0,19.23-14.81,19.23-14.81
						c7.06-23.25-12.87-24.22-16.47-24.22C401.3,260.15,401.16,260.15,401.16,260.15"/>
				</defs>
				<clipPath id="SVGID_00000027577480236264587860000005428426929608049298_">
					<use xlink:href="#SVGID_00000128487491687091207090000017023410333251310470_"  style="overflow:visible;"/>
				</clipPath>
				
					<linearGradient id="XMLID_00000037676240137746480100000003289755481565750145_" gradientUnits="userSpaceOnUse" x1="-419.1791" y1="30.0467" x2="-414.9437" y2="30.0467" gradientTransform="matrix(36.7273 78.762 78.762 -36.7273 13346.0986 34253.7773)">
					<stop  offset="0" style="stop-color:#004E25"/>
					<stop  offset="1" style="stop-color:#000000"/>
				</linearGradient>
				
					<polygon id="XMLID_29_" style="clip-path:url(#SVGID_00000027577480236264587860000005428426929608049298_);fill:url(#XMLID_00000037676240137746480100000003289755481565750145_);" points="
					412.78,233.58 449.18,311.77 368.09,349.68 331.55,271.36 				"/>
			</g>
		</g>
	</g>
	<g id="XMLID_24_">
		<g id="XMLID_25_">
			<g>
				<defs>
					<path id="SVGID_00000090252330370189965460000002737542256467084434_" d="M226.8,309.41c-7.47-1.38-6.09-13.42-4.98-18.96
						c2.63-12.18,9.13-17.99,13.98-17.44c1.66,0.14,10.38,0.42,5.54,20.2c-2.77,11.76-8.03,16.33-13.01,16.33
						C227.91,309.69,227.36,309.55,226.8,309.41 M203.28,292.81c-3.04,17.57,6.5,31.55,22.14,31.55c21.86,0,34.87-22.42,34.87-38.61
						c0-16.88-6.64-27.4-21.86-27.4C219.19,258.35,206.6,273.71,203.28,292.81"/>
				</defs>
				<clipPath id="SVGID_00000078735710285053939500000008860724773694917283_">
					<use xlink:href="#SVGID_00000090252330370189965460000002737542256467084434_"  style="overflow:visible;"/>
				</clipPath>
				
					<linearGradient id="XMLID_00000153675726572843146550000001101381195822212761_" gradientUnits="userSpaceOnUse" x1="-417.8884" y1="28.9566" x2="-413.6529" y2="28.9566" gradientTransform="matrix(34.8598 74.7572 74.7572 -34.8598 12631.5566 32537.5781)">
					<stop  offset="0" style="stop-color:#004E25"/>
					<stop  offset="1" style="stop-color:#000000"/>
				</linearGradient>
				
					<polygon id="XMLID_235_" style="clip-path:url(#SVGID_00000078735710285053939500000008860724773694917283_);fill:url(#XMLID_00000153675726572843146550000001101381195822212761_);" points="
					249.63,235.38 285.61,312.6 211.03,347.33 175.05,270.11 				"/>
			</g>
		</g>
	</g>
	<g id="XMLID_236_">
		<g id="XMLID_237_">
			<g>
				<defs>
					<path id="SVGID_00000148641248483928916400000009588097409076818330_" d="M265.55,260.15c0,0,1.52,0.83,1.52,4.84v54.38
						c0,0-0.28,3.04-1.25,3.6h16.33c0,0,0-1.25,1.66-3.46c1.66-2.08,35.42-49.54,35.42-49.54s7.75-9.96,9.69-9.96h-23.25
						c0,0,1.8,1.25,0.42,3.6c-1.38,2.35-22.14,34.73-22.14,34.73l0.28-32.66c0,0,0-5.26,1.94-5.67L265.55,260.15z"/>
				</defs>
				<clipPath id="SVGID_00000067951336674739268360000005552262113794986141_">
					<use xlink:href="#SVGID_00000148641248483928916400000009588097409076818330_"  style="overflow:visible;"/>
				</clipPath>
				
					<linearGradient id="XMLID_00000152259429649867969970000016336801808242350499_" gradientUnits="userSpaceOnUse" x1="-418.3384" y1="29.4288" x2="-414.1029" y2="29.4288" gradientTransform="matrix(35.5823 76.3065 76.3065 -35.5823 12909.916 33202.4922)">
					<stop  offset="0" style="stop-color:#004E25"/>
					<stop  offset="1" style="stop-color:#000000"/>
				</linearGradient>
				
					<polygon id="XMLID_239_" style="clip-path:url(#SVGID_00000067951336674739268360000005552262113794986141_);fill:url(#XMLID_00000152259429649867969970000016336801808242350499_);" points="
					317.58,235.94 352.86,311.77 276.9,347.19 241.47,271.36 				"/>
			</g>
		</g>
	</g>
	<g id="XMLID_240_">
		<g id="XMLID_241_">
			<g>
				<defs>
					<path id="SVGID_00000140701900899551931250000009877025288123081643_" d="M357.57,283.26L357.57,283.26L357.57,283.26z
						 M329.76,260.15c0,0,1.38,1.25-0.42,6.64c-1.8,5.26-17.85,50.37-17.85,50.37s-2.91,5.95-3.6,5.95h40.68l4.84-14.94
						c0,0-0.55,0.83-4.43,0.83h-17.16l3.6-10.1h13.28c0,0,2.77-0.28,3.46,0.55l5.4-16.05c-0.14,0.14-0.69,1.38-4.01,1.38h-13.01
						l3.87-11.21h16.33c0,0,2.21-0.28,3.04,1.52l5.26-14.81L329.76,260.15L329.76,260.15z"/>
				</defs>
				<clipPath id="SVGID_00000162335919208256929290000012172053620193610144_">
					<use xlink:href="#SVGID_00000140701900899551931250000009877025288123081643_"  style="overflow:visible;"/>
				</clipPath>
				
					<linearGradient id="XMLID_00000114770186740042151650000014583614903526012832_" gradientUnits="userSpaceOnUse" x1="-420.2803" y1="28.7986" x2="-416.045" y2="28.7986" gradientTransform="matrix(44.6754 95.8067 95.8067 -44.6754 16295.7793 41715.4648)">
					<stop  offset="0" style="stop-color:#004E25"/>
					<stop  offset="1" style="stop-color:#000000"/>
				</linearGradient>
				
					<polygon id="XMLID_245_" style="clip-path:url(#SVGID_00000162335919208256929290000012172053620193610144_);fill:url(#XMLID_00000114770186740042151650000014583614903526012832_);" points="
					358.26,236.63 393.27,311.77 318.82,346.5 283.81,271.36 				"/>
			</g>
		</g>
	</g>
	<g id="XMLID_246_">
		<g id="XMLID_247_">
			<g>
				<defs>
					<path id="SVGID_00000060725636793872553290000002828207756119899064_" d="M200.51,204.8l0.14,18.4h-10.93L200.51,204.8z
						 M197.05,183.49c0,0,1.38,1.8-1.25,5.67c-2.63,4.01-35.42,54.94-35.42,54.94s-0.69,1.25-2.35,2.08h19.51c0,0,0-1.52,0.42-2.63
						c0.97-1.8,3.32-6.23,3.32-6.23h19.65v5.54c0,0,0.14,1.94-1.38,3.32h19.37c0,0-1.38-0.83-1.66-3.32l-2.49-55.21
						c0,0-0.14-3.6,1.52-4.29h-19.23V183.49z"/>
				</defs>
				<clipPath id="SVGID_00000059994781918078321860000013870628979564030121_">
					<use xlink:href="#SVGID_00000060725636793872553290000002828207756119899064_"  style="overflow:visible;"/>
				</clipPath>
				
					<linearGradient id="XMLID_00000111908880288859116230000003118328953656164746_" gradientUnits="userSpaceOnUse" x1="-418.6462" y1="28.5688" x2="-414.4107" y2="28.5688" gradientTransform="matrix(38.2316 81.988 81.988 -38.2316 13883.7607 35699.5625)">
					<stop  offset="0" style="stop-color:#004E25"/>
					<stop  offset="1" style="stop-color:#000000"/>
				</linearGradient>
				
					<polygon id="XMLID_255_" style="clip-path:url(#SVGID_00000059994781918078321860000013870628979564030121_);fill:url(#XMLID_00000111908880288859116230000003118328953656164746_);" points="
					208.12,160.1 243.13,234.97 168.96,269.56 134.09,194.7 				"/>
			</g>
		</g>
	</g>
	<polygon id="XMLID_256_" class="st177" points="397.98,203.55 359.37,203.55 354.66,217.67 379.71,217.67 351.07,228.05 
		349.13,233.72 393.13,218.64 	"/>
	<path id="XMLID_257_" class="st177" d="M155.4,227.22l-5.26,15.08H112.5c0,0,0.83-0.28,2.08-2.91
		c1.25-2.49,18.68-53.28,18.68-53.28s2.35-5.26-0.28-6.64h21.73c0,0-1.25-0.42-3.32,5.12c-1.25,3.04-15.78,43.73-15.78,43.73h15.78
		C151.39,228.32,154.98,228.6,155.4,227.22"/>
	<path id="XMLID_258_" class="st177" d="M217.53,242.16h17.71c0,0-1.25-1.94-0.42-3.87c0.97-2.91,10.52-29.61,10.52-29.61
		l4.15,33.63h16.05l21.03-59.78c0,0,0.83-2.77,2.08-2.77h-17.02c0,0,0.55,2.08-0.14,3.6c-0.55,1.66-10.38,28.78-10.38,28.78
		l-3.74-32.38h-18.4c0,0,0.97,1.66,0.28,3.32c-0.55,1.38-19.51,55.9-19.51,55.9S218.5,242.16,217.53,242.16"/>
	<path class="st177" d="M318.82,179.62h-20.2c0,0,1.52,2.49-0.42,8.44c-1.94,5.81-17.44,49.54-17.44,49.54s-1.25,4.15-2.91,4.84
		h24.22c0,0,29.47,1.11,38.61-31.14C340.69,211.17,352.17,179.2,318.82,179.62 M320.9,213.79c-5.12,13.15-12.73,13.98-16.88,13.98
		c-2.77,0-2.77,0-2.77,0l11.9-34.87h4.57C317.58,193.04,329.34,192.35,320.9,213.79"/>
	<polygon id="XMLID_259_" class="st177" points="85.52,292.81 124.26,292.81 128.83,278.69 103.92,278.69 132.43,268.45 
		134.37,262.64 90.36,277.73 	"/>
	<path class="st177" d="M195.67,279.66c7.33-24.35-17.3-23.66-17.3-23.66h-25.05c1.8,2.08,0.42,6.64,0.42,6.64
		s-15.64,46.5-16.74,50.09c-1.25,3.6-3.46,6.09-3.46,6.09h19.79c-0.55,0-0.55-2.08-0.55-2.08l7.06-19.65c0,0,8.86,18.13,9.55,19.51
		c0.55,1.25,0.28,2.35,0.28,2.35h21.17c-2.08,0-4.15-4.01-4.15-4.01l-10.52-19.79C190.82,295.02,195.67,279.66,195.67,279.66
		 M178.37,277.59c-2.77,6.23-10.24,5.54-10.24,5.54h-3.87l4.15-12.59c0,0,2.21,0,4.15,0C181.55,270.39,178.37,277.59,178.37,277.59"
		/>
	<path class="st177" d="M414.44,280.49c7.75-25.46-16.88-24.22-16.88-24.22h-24.91c1.8,2.08,0.42,6.5,0.42,6.5
		s-16.19,46.77-17.44,50.37s-3.6,5.95-3.6,5.95h20.62c-1.52,0-0.42-3.87-0.42-3.87l6.37-17.99c0,0,8.58,18.13,9.13,19.37
		c0.55,1.25,0.28,2.35,0.28,2.35h22c-2.08,0-4.29-4.01-4.29-4.01l-10.52-19.79C410.02,295.16,414.44,280.49,414.44,280.49
		 M396.87,277.86c-2.21,6.09-9.69,5.54-9.69,5.54h-3.87l4.01-12.45h5.54C392.86,270.81,399.64,270.67,396.87,277.86"/>
	<path class="st177" d="M234.97,254.34c-19.37,0-31.97,15.36-35.29,34.46c-3.04,17.57,6.5,31.55,22.14,31.55
		c21.86,0,34.87-22.42,34.87-38.61C256.69,264.86,250.05,254.34,234.97,254.34 M237.87,289.35c-3.18,13.15-9.13,17.16-14.53,16.19
		c-7.47-1.38-6.23-13.42-4.98-18.96c2.63-12.18,9.13-17.99,13.98-17.44C233.86,269.28,242.58,269.42,237.87,289.35"/>
	<path id="XMLID_262_" class="st177" d="M261.95,256.28c0,0,1.52,0.83,1.52,4.84v54.38c0,0-0.28,3.04-1.25,3.6h16.33
		c0,0,0-1.25,1.66-3.46c1.66-2.08,35.42-49.54,35.42-49.54s7.75-9.96,9.69-9.96h-23.25c0,0,1.8,1.25,0.42,3.6
		c-1.38,2.35-22.14,34.73-22.14,34.73l0.28-32.66c0,0,0-5.26,1.94-5.67L261.95,256.28"/>
	<path id="XMLID_273_" class="st177" d="M360.34,271.08l5.26-14.81h-39.44c0,0,1.38,1.25-0.42,6.64
		c-1.8,5.26-17.85,50.37-17.85,50.37s-2.91,5.95-3.6,5.95h40.68l4.84-14.94c0,0-0.55,0.83-4.43,0.83h-17.16l3.6-10.1h13.28
		c0,0,2.77-0.28,3.46,0.55l5.4-16.05c0,0-0.42,1.52-4.01,1.52h-13.01l3.87-11.21h16.33C357.29,269.56,359.51,269.28,360.34,271.08"
		/>
	<path class="st177" d="M215.46,242.3c0,0-1.38-0.83-1.66-3.32l-2.49-55.21c0,0-0.14-3.6,1.52-4.29h-19.23c0,0,1.38,1.66-1.25,5.67
		c-2.63,4.01-35.42,54.94-35.42,54.94s-0.69,1.25-2.35,2.08h19.51c0,0-0.14-1.52,0.42-2.63c0.97-1.8,3.32-6.23,3.32-6.23h19.65v5.54
		c0,0,0.14,1.94-1.38,3.32h19.37V242.3z M186.12,219.19l10.79-18.4l0.14,18.4H186.12z"/>
</g>
</svg>
