<?xml version="1.0" encoding="utf-8"?>
<!-- Generator: Adobe Illustrator 26.5.0, SVG Export Plug-In . SVG Version: 6.00 Build 0)  -->
<svg version="1.1" id="Layer_1" xmlns="http://www.w3.org/2000/svg" xmlns:xlink="http://www.w3.org/1999/xlink" x="0px" y="0px"
	 viewBox="0 0 512 512" style="enable-background:new 0 0 512 512;" xml:space="preserve">
<style type="text/css">
	.st0{fill:#0088CF;}
	.st1{fill:#455E66;}
	.st2{fill-rule:evenodd;clip-rule:evenodd;fill:#697C86;}
	
		.st3{clip-path:url(#SVGID_00000114782139480679167450000018378980588627617950_);fill:url(#XMLID_00000175283220849502259170000003236295887183362433_);}
	
		.st4{clip-path:url(#SVGID_00000130618263138746427880000005167276984869650879_);fill:url(#XMLID_00000016068837918855441670000006558258106509452981_);}
	
		.st5{clip-path:url(#SVGID_00000094611978703842113120000017487914166859454892_);fill:url(#XMLID_00000132804349400180683670000005324040052732284088_);}
	
		.st6{clip-path:url(#SVGID_00000169531982913623422330000017449635582908961467_);fill:url(#XMLID_00000103234847874230497280000008921292763218874288_);}
	.st7{fill:#00010B;}
	.st8{fill:#C5CBD0;}
	
		.st9{clip-path:url(#SVGID_00000026122251586501718750000007944533466402557119_);fill:url(#XMLID_00000013172328568583826690000012147567599524755098_);}
	
		.st10{clip-path:url(#SVGID_00000149373169862553104980000004025671734441715334_);fill:url(#XMLID_00000056410249066197014780000005775324107678516384_);}
	.st11{fill:#2B373E;}
	
		.st12{clip-path:url(#SVGID_00000011744216762526413740000000182652848196412584_);fill:url(#XMLID_00000069397605084188926390000004539417168837641917_);}
	
		.st13{clip-path:url(#SVGID_00000113332263968818898330000004504454449691063217_);fill:url(#XMLID_00000135674237488285585940000013858794678738847660_);}
	
		.st14{clip-path:url(#SVGID_00000020362634903021691980000005217305478338486176_);fill:url(#XMLID_00000051380091118684306350000016336846911132168602_);}
	
		.st15{clip-path:url(#SVGID_00000124122967560063655730000017229791781122402478_);fill:url(#XMLID_00000178906841758523703140000000387269305514946472_);}
	
		.st16{clip-path:url(#SVGID_00000032648485583335307430000014821025285239285400_);fill:url(#XMLID_00000137114493780765098790000016626054456804554886_);}
	.st17{fill:url(#XMLID_00000150104757659570059570000001581892219649688715_);}
	
		.st18{clip-path:url(#SVGID_00000107557110243111858070000006962026659126500224_);fill:url(#XMLID_00000054962863178334455330000016398387761016047030_);}
	
		.st19{clip-path:url(#SVGID_00000119839341948919541490000011463550124910874523_);fill:url(#XMLID_00000039125094474231470700000014159223269571886475_);}
	
		.st20{clip-path:url(#SVGID_00000181051438772628783100000004257974550305683122_);fill:url(#XMLID_00000040536378270473617330000001691870927859464083_);}
	.st21{fill:#3F4E56;}
	
		.st22{clip-path:url(#SVGID_00000117658370563540311010000008739395626291225499_);fill:url(#XMLID_00000105406938585508937540000009574188746699734957_);}
	.st23{fill-rule:evenodd;clip-rule:evenodd;fill:#3F4E56;}
	
		.st24{clip-path:url(#SVGID_00000166651059566482632210000006933105968914705541_);fill:url(#XMLID_00000045585967757586805840000017475703847365402263_);}
	
		.st25{clip-path:url(#SVGID_00000064322734856882065870000009806115489083995574_);fill:url(#XMLID_00000082336004241941600520000008452574926659201165_);}
	.st26{fill:url(#XMLID_00000016058956149989367770000006725648970468279471_);}
	.st27{fill:url(#XMLID_00000155866816335248596350000006690118141846504584_);}
	.st28{fill-rule:evenodd;clip-rule:evenodd;fill:url(#XMLID_00000155131887195526250430000005045579660817344911_);}
	
		.st29{clip-path:url(#SVGID_00000021087540116398368190000013054165134697852299_);fill:url(#XMLID_00000031887496811184672290000002983681506059334074_);}
	.st30{fill:#FFFFFF;}
	
		.st31{clip-path:url(#SVGID_00000081641331794745040140000004589703885439194782_);fill:url(#XMLID_00000168834451291850188470000014818200146389332364_);}
	.st32{fill:url(#XMLID_00000085937249240361467780000004678634960105640886_);}
	.st33{fill:url(#XMLID_00000080918401803998605970000001333827582984368532_);}
</style>
<g id="XMLID_1_">
	<path id="XMLID_5841_" class="st0" d="M249.07,512.03h57.5v-19.46h-33.65L249.07,512.03 M291.5,441.07H234v19.61h33.8L291.5,441.07
		z M353.1,492.57h-20.78v-31.9h20.78c5.71,0,14.19,2.19,14.19,15.95S358.81,492.57,353.1,492.57z M440.45,441.07h-49.89v19.61h44.62
		c3.8,0,7.46,1.02,7.46,4.24v1.76H408.7c-11.12,0-16.83,3.8-19.75,8.49c-0.29-29.12-8.78-34.24-33.36-34.24h-58.96l-66.57,55.01
		v-35.26c0-7.17-5.85-19.61-24.14-19.61h-49.89v19.61h44.62c3.66,0,7.61,1.02,7.61,4.24v1.76h-33.94
		c-15.22,0-20.34,7.17-22.09,14.05v-19.17c0-13.75-12.29-20.63-22.68-20.63H47.31v71.11H69.7v-51.36h18.87v51.36h22.53v-51.36h10.1
		c5.56,0,8.63,3.22,8.63,8.05v43.31h22.53v-15.66c1.76,6.88,6.88,15.66,22.09,15.66h69.5l65.84-54.28v54.28h45.8
		c18,0,27.36-2.63,31.31-15.36c1.76,6.73,6.88,15.36,21.95,15.36h55.74v-51.36C464.44,453.51,458.74,441.07,440.45,441.07z
		 M442.79,494.62h-29.26c-3.66,0-6.44-2.34-6.44-5.12c0-2.78,2.78-5.12,6.44-5.12h29.26V494.62z M208.4,494.62h-29.41
		c-3.66,0-6.44-2.34-6.44-5.12c0-2.78,2.78-5.12,6.44-5.12h29.41V494.62z"/>
	<g id="XMLID_2_">
		<path id="XMLID_5840_" class="st1" d="M212.2,177.71c-14.48-19.61-31.6-30.58-49.31-39.36c-2.93-1.46-5.71-2.78-8.63-4.1
			c8.34,3.37,16.53,7.02,29.41,14.48c14.19,8.05,26.92,25.31,34.97,37.31c1.02,1.46,2.05,2.93,3.07,4.39
			C218.5,186.34,215.42,182.1,212.2,177.71L212.2,177.71z"/>
		<path id="XMLID_5737_" class="st2" d="M69.11,209.31c0.59,4.39,1.32,9.66,2.19,15.51c35.26,118.07,76.37,126.85,177.33,131.24
			c78.42,3.51,123.34-15.95,149.68-40.38c26.48-24.43,34.53-53.84,39.21-70.67c3.37-12.14,5.56-23.85,6.44-35.7h56.18
			c-2.34,38.19-14.34,75.06-39.65,107.68c-31.31,38.63-80.32,56.33-122.61,64.38c-42.43,8.05-78.42,6.44-83.84,6.29
			c-5.56-0.15-25.6,0.15-50.48-2.05s-54.43-6.73-78.86-16.68c-10.68-4.39-20.04-8.92-28.09-13.61
			c-22.09-13.31-42.43-32.63-52.38-46.82c-12.58-17.85-27.51-49.01-31.9-99.2L69.11,209.31L69.11,209.31z M252.73,209.31
			c1.76,2.34,3.07,3.8,3.8,3.95c0.44-0.15,0.88-0.44,1.61-1.32c0.59-0.73,1.17-1.61,1.9-2.63h49.01
			c-8.49,6.29-15.8,13.61-22.68,22.24c-11.27,14.19-17.7,28.24-19.75,34.97c-2.19,7.02-6.29,13.02-6.88,13.9
			c-0.73,1.02-4.24,1.9-5.41,0c-1.17-1.02-2.34-3.22-3.51-6.15c-1.46-3.8-3.22-9.66-6.88-16.97s-9.07-16.24-18-25.9
			c-7.61-8.49-15.51-15.8-23.56-22.09L252.73,209.31L252.73,209.31z"/>
		<path id="XMLID_5736_" class="st2" d="M12.49,209.31c-0.73-9.07-1.17-18.73-1.17-28.97v-0.29v-0.29v-0.29v-0.29
			c0.44-47.7,22.24-90.86,38.19-109.44c2.19-2.49,10.24-11.85,17.12-18.29c19.9-18.73,73.89-54.43,194.3-51.21
			C329.4,0.38,370.95,9.45,399.19,21.6c14.05,6.15,24.87,13.02,33.8,20.04c8.92,7.02,16.24,14.05,23.41,20.48l0.15,0.15l0.15,0.29
			c0,0.15,34.09,41.11,41.85,98.91c2.19,16.09,2.93,32.04,1.9,47.84h-56.18c1.02-12.14,0.73-24.43-1.02-37.6
			c-1.17-6.88-2.49-12.29-3.37-15.95c0.15-0.15-1.17,1.02-1.17,1.02s-9.95,6.15-58.38,20.78c-32.19,9.66-53.84,18.73-70.96,31.6
			h-49.01c0.15-0.15,0.29-0.44,0.44-0.59c1.61-2.63,3.37-5.85,5.12-8.49c3.66-5.85,14.63-21.51,30.14-36.14
			c15.22-14.19,51.65-31.02,78.72-41.11c4.97-1.9,9.36-3.66,13.46-5.27c11.12-5.12,22.09-11.56,31.9-18.14
			c-0.59-2.49-1.32-4.1-1.76-4.97c0,0-0.44-1.17-1.61-3.37c-1.17-2.05-2.93-5.12-5.56-8.63c-5.27-7.17-13.9-16.53-27.51-25.75
			c-6.29-4.39-15.51-9.22-27.51-14.48c-23.85-9.8-56.48-17.12-100.66-17.12c-68.33,0-108.42,17.26-131.24,34.38
			c-11.41,8.63-18.58,17.12-22.97,23.56c-2.19,3.22-3.66,5.85-4.54,7.75c-0.88,1.76-2.19,4.39-2.19,4.39
			c-1.32,3.66,0.15,5.12,2.78,6.88c5.41,3.51,13.46,8.34,14.92,9.22c6.58,3.22,15.51,7.32,27.07,11.56
			c26.92,9.95,63.5,26.77,78.72,41.11c15.66,14.63,25.75,30.58,29.41,36.29c1.61,2.63,3.51,5.85,5.41,8.34
			c0.15,0.15,0.29,0.29,0.44,0.59h-50.33c-10.68-8.19-21.65-14.48-32.63-18.44c-19.46-7.02-39.36-11.41-48.14-14.05
			c-4.1-1.32-9.22-2.93-13.31-4.24c-2.93-0.88-5.27-1.76-6.73-2.19l-1.02-0.29c-9.51-3.37-19.17-7.46-28.24-12.73
			c-0.29-0.15-0.59-0.29-0.73-0.29s-0.15,0-0.29,0.15c-0.15,0-0.15,0.15-0.29,0.44c-0.15,0.15-0.29,0.44-0.44,0.73
			c-0.59,0.73-2.63,17.56-2.93,37.6c0,0,0.29,5.27,1.32,13.61L12.49,209.31L12.49,209.31z"/>
		<g id="XMLID_27_">
			<g>
				<defs>
					<path id="SVGID_1_" d="M69.84,222.92C105.4,343.63,146.8,352.7,248.78,357.23c157.14,7.02,180.69-77.98,189.91-111.78
						c10.24-37.31,4.54-86.03,4.54-86.03l15.95,54.43l-31.46,102.27l-44.19,32.77l-47.11,14.34l-75.35,8.63l-96.13-8.63
						l-54.43-27.36l-27.36-39.36L72.48,259.2C72.33,259.35,67.79,232.72,69.84,222.92L69.84,222.92z"/>
				</defs>
				<clipPath id="SVGID_00000145033057899863199420000006321739411479377053_">
					<use xlink:href="#SVGID_1_"  style="overflow:visible;"/>
				</clipPath>
				
					<linearGradient id="XMLID_00000158745332787906576560000012379660880889473458_" gradientUnits="userSpaceOnUse" x1="264.1445" y1="138.5263" x2="264.1445" y2="354.1888" gradientTransform="matrix(1 0 0 -1 0 512)">
					<stop  offset="0" style="stop-color:#E6E6E6"/>
					<stop  offset="0.1" style="stop-color:#E1E2E2"/>
					<stop  offset="0.2183" style="stop-color:#D3D5D7"/>
					<stop  offset="0.3454" style="stop-color:#BBC1C4"/>
					<stop  offset="0.414" style="stop-color:#ABB3B8"/>
					<stop  offset="0.4894" style="stop-color:#B9BFC3"/>
					<stop  offset="0.6313" style="stop-color:#DDDFDF"/>
					<stop  offset="0.6613" style="stop-color:#E6E6E6"/>
					<stop  offset="0.8905" style="stop-color:#7B858A"/>
					<stop  offset="1" style="stop-color:#46555D"/>
				</linearGradient>
				
					<rect id="XMLID_26_" x="69.26" y="157.81" style="clip-path:url(#SVGID_00000145033057899863199420000006321739411479377053_);fill:url(#XMLID_00000158745332787906576560000012379660880889473458_);" width="389.77" height="215.66"/>
			</g>
		</g>
		<g id="XMLID_24_">
			<g>
				<defs>
					<path id="SVGID_00000008111540004192048230000012479499853388072333_" d="M440.3,146.69c0,0,17.26,71.25-10.24,128.17
						s-53.55,91.74-175.57,92.03c-122.02,0.44-147.34-50.33-166.21-85.59c-18.87-35.11-21.22-85.59-21.22-85.59l-2.19,59.11
						l34.97,65.69l29.12,26.63l41.26,18l110.46,7.02l48.72-7.02l51.94-13.02l49.6-41.41l19.61-70.81l-2.05-78.57
						C445.42,149.47,442.79,144.5,440.3,146.69L440.3,146.69z"/>
				</defs>
				<clipPath id="SVGID_00000178905567343244236460000007065647652444960389_">
					<use xlink:href="#SVGID_00000008111540004192048230000012479499853388072333_"  style="overflow:visible;"/>
				</clipPath>
				
					<linearGradient id="XMLID_00000088116198595701918240000018187464840568314813_" gradientUnits="userSpaceOnUse" x1="257.7068" y1="139.5504" x2="257.7068" y2="366.04" gradientTransform="matrix(1 0 0 -1 0 512)">
					<stop  offset="0" style="stop-color:#E6E6E6"/>
					<stop  offset="0.0551" style="stop-color:#E1E1E2"/>
					<stop  offset="0.1203" style="stop-color:#D3D4D5"/>
					<stop  offset="0.1906" style="stop-color:#BBBFC1"/>
					<stop  offset="0.2646" style="stop-color:#99A0A4"/>
					<stop  offset="0.3406" style="stop-color:#6F7A80"/>
					<stop  offset="0.414" style="stop-color:#3F4E56"/>
					<stop  offset="0.5538" style="stop-color:#3F4E56"/>
					<stop  offset="0.5989" style="stop-color:#4E5F67"/>
					<stop  offset="0.6613" style="stop-color:#697C86"/>
					<stop  offset="0.7634" style="stop-color:#46555D"/>
					<stop  offset="0.9355" style="stop-color:#000000"/>
				</linearGradient>
				
					<rect id="XMLID_23_" x="64.87" y="145.96" style="clip-path:url(#SVGID_00000178905567343244236460000007065647652444960389_);fill:url(#XMLID_00000088116198595701918240000018187464840568314813_);" width="385.68" height="226.49"/>
			</g>
		</g>
		<g id="XMLID_9_">
			<g>
				<defs>
					<path id="SVGID_00000114764125995053907420000000445268552073053090_" d="M443.67,148.89c0,0,17.41,73.16-8.92,129.63
						c-26.48,56.48-45.5,85.01-174.55,90.13c-104.76,2.63-131.97-24.58-151.29-44.48c-15.36-15.66-26.04-41.99-26.04-41.99
						s-47.26-87.49-42.28-59.84c6.58,36.14,17.12,87.93,57.79,120.56c24.87,19.9,75.2,32.19,75.2,32.19l78.86,6.29l70.52-4.24
						l111.49-43.02l47.7-104.32c-2.19-48.43-6.88-88.52-14.05-120.27l-15.51,13.46L443.67,148.89L443.67,148.89z"/>
				</defs>
				<clipPath id="SVGID_00000016077523149303596290000017294753679732481215_">
					<use xlink:href="#SVGID_00000114764125995053907420000000445268552073053090_"  style="overflow:visible;"/>
				</clipPath>
				
					<linearGradient id="XMLID_00000052797780838759416960000015911331119738286781_" gradientUnits="userSpaceOnUse" x1="261.0719" y1="127.8456" x2="261.0719" y2="405.3977" gradientTransform="matrix(1 0 0 -1 0 512)">
					<stop  offset="0.1183" style="stop-color:#E6E6E6"/>
					<stop  offset="0.2903" style="stop-color:#697C86"/>
					<stop  offset="0.4086" style="stop-color:#768790"/>
					<stop  offset="0.5538" style="stop-color:#CED2D3"/>
					<stop  offset="0.7581" style="stop-color:#E6E6E6"/>
					<stop  offset="0.7842" style="stop-color:#CBCDCE"/>
					<stop  offset="0.8598" style="stop-color:#80898E"/>
					<stop  offset="0.9139" style="stop-color:#515E66"/>
					<stop  offset="0.9409" style="stop-color:#3F4E56"/>
				</linearGradient>
				
					<rect id="XMLID_8_" x="40.14" y="106.6" style="clip-path:url(#SVGID_00000016077523149303596290000017294753679732481215_);fill:url(#XMLID_00000052797780838759416960000015911331119738286781_);" width="441.86" height="277.55"/>
			</g>
		</g>
		<g id="XMLID_6_">
			<g>
				<defs>
					<path id="SVGID_00000041985644568783876540000005584168095558519208_" d="M50.09,78.22c0,0-2.05,21.95,2.93,34.82
						c-6.58,10.68-15.36,42.43-16.53,68.03s3.66,92.47,36.58,130.51c-5.56,10.39-8.78,16.83-8.78,16.83s-51.94-35.26-51.94-148.07
						c0-54.43,29.26-103.3,44.92-116.32C52.43,70.76,50.09,78.22,50.09,78.22L50.09,78.22z"/>
				</defs>
				<clipPath id="SVGID_00000170254596008673609300000010632914349922479550_">
					<use xlink:href="#SVGID_00000041985644568783876540000005584168095558519208_"  style="overflow:visible;"/>
				</clipPath>
				
					<linearGradient id="XMLID_00000016782605862727574520000009209928230024882616_" gradientUnits="userSpaceOnUse" x1="42.7026" y1="183.1512" x2="42.7026" y2="447.9742" gradientTransform="matrix(1 0 0 -1 0 512)">
					<stop  offset="0.2204" style="stop-color:#3F4E56"/>
					<stop  offset="0.4946" style="stop-color:#FFFFFF"/>
					<stop  offset="0.7581" style="stop-color:#E6E6E6"/>
					<stop  offset="0.7842" style="stop-color:#CBCDCE"/>
					<stop  offset="0.8598" style="stop-color:#80898E"/>
					<stop  offset="0.9139" style="stop-color:#515E66"/>
					<stop  offset="0.9409" style="stop-color:#3F4E56"/>
				</linearGradient>
				
					<rect id="XMLID_5_" x="12.34" y="64.03" style="clip-path:url(#SVGID_00000170254596008673609300000010632914349922479550_);fill:url(#XMLID_00000016782605862727574520000009209928230024882616_);" width="60.72" height="264.82"/>
			</g>
		</g>
		<path id="XMLID_4871_" class="st7" d="M16.15,202.14c0,0,1.46,54.72,21.95,89.4c20.48,34.68,38.92,56.92,87.35,76.67
			c48.43,19.9,117.93,18.29,128.9,18.73c10.97,0.29,143.53,6.29,205.71-70.38c35.7-45.94,44.92-100.37,37.46-154.8
			c-7.46-54.43-35.11-86.18-35.11-86.18s3.8,9.8-0.73,37.16c6.73,11.7,17.7,50.62,15.51,81.64c-2.05,31.16-7.75,73.3-31.46,106.37
			c-15.22,21.22-27.21,36.14-60.43,51.65c-33.21,15.51-83.98,23.26-130.07,22.68c-45.94-0.73-90.13-4.24-127.29-21.22
			s-56.92-42.72-71.11-63.21s-3.22-10.1-20.48-27.21C19.22,246.18,16.15,202.14,16.15,202.14L16.15,202.14z"/>
		<path id="XMLID_4870_" class="st8" d="M51.12,69.44c0,0,47.99-72.57,209.81-68.18C397.58,1.55,427.14,37.25,455.81,63
			c0.59,1.9-11.41,11.56-11.41,11.56l-19.75,7.46l-56.33-44.19l-100.08-21.8c0,0-94.22,11.12-98.17,10.68
			c-3.95-0.44-65.69,33.94-65.69,33.94L92.81,96.07L56.24,68.42L51.12,69.44L51.12,69.44z"/>
		<g id="XMLID_48_">
			<g>
				<defs>
					<path id="SVGID_00000123401826655582257740000008772633985274627229_" d="M59.75,63.88c0,0,43.89-65.69,201.03-61.45
						c132.85,0.29,165.04,38.33,192.84,63.35c-8.92,7.61-18.29,6.58-18.29,6.58l-15.51,8.49L365.1,37.98l-97.3-21.22
						c0,0-91.59,10.83-95.39,10.39c-3.8-0.44-63.79,33.07-63.79,33.07L76.87,79.97L57.7,68.42L59.75,63.88L59.75,63.88z"/>
				</defs>
				<clipPath id="SVGID_00000032622772905497502740000017338629658100700808_">
					<use xlink:href="#SVGID_00000123401826655582257740000008772633985274627229_"  style="overflow:visible;"/>
				</clipPath>
				
					<linearGradient id="XMLID_00000109725233332246795270000005016685688300078976_" gradientUnits="userSpaceOnUse" x1="48.4819" y1="470.3598" x2="482.148" y2="470.3598" gradientTransform="matrix(1 0 0 -1 0 512)">
					<stop  offset="0" style="stop-color:#CCD1DB"/>
					<stop  offset="0.1477" style="stop-color:#D3D7E0"/>
					<stop  offset="0.3561" style="stop-color:#E5E8ED"/>
					<stop  offset="0.5699" style="stop-color:#FFFFFF"/>
				</linearGradient>
				
					<rect id="XMLID_47_" x="48.48" y="-6.79" style="clip-path:url(#SVGID_00000032622772905497502740000017338629658100700808_);fill:url(#XMLID_00000109725233332246795270000005016685688300078976_);" width="433.67" height="96.86"/>
			</g>
		</g>
		<g id="XMLID_30_">
			<g>
				<defs>
					<path id="SVGID_00000020390693642681228700000009871459045304326044_" d="M59.75,71.2c0,0,52.96-59.26,194.45-59.26
						S447.33,59.78,452.74,67.1c-6.15,7.9-17.26,16.39-17.26,16.39c-36.29-22.82-70.23-40.82-102.13-53.99l-85.59-12.58
						c0,0-101.1,23.26-103,23.26c-1.9,0-54.43,36.87-54.43,36.87s-4.24,7.17-8.34,6.29C71.16,74.56,59.75,71.2,59.75,71.2
						L59.75,71.2z"/>
				</defs>
				<clipPath id="SVGID_00000021820236815525187400000005945172397162222504_">
					<use xlink:href="#SVGID_00000020390693642681228700000009871459045304326044_"  style="overflow:visible;"/>
				</clipPath>
				
					<linearGradient id="XMLID_00000062179700246973103520000005109089795549646509_" gradientUnits="userSpaceOnUse" x1="50.5303" y1="464.2879" x2="460.9329" y2="464.2879" gradientTransform="matrix(1 0 0 -1 0 512)">
					<stop  offset="0" style="stop-color:#46555D"/>
					<stop  offset="0.0556" style="stop-color:#5B6A73"/>
					<stop  offset="0.3387" style="stop-color:#C2D2DE"/>
					<stop  offset="0.4003" style="stop-color:#CDDAE4"/>
					<stop  offset="0.6374" style="stop-color:#F1F5F7"/>
					<stop  offset="0.7634" style="stop-color:#FFFFFF"/>
					<stop  offset="0.8064" style="stop-color:#EDF2F5"/>
					<stop  offset="0.8776" style="stop-color:#D5E0E8"/>
					<stop  offset="0.9439" style="stop-color:#C7D6E1"/>
					<stop  offset="1" style="stop-color:#C2D2DE"/>
				</linearGradient>
				
					<rect id="XMLID_29_" x="50.53" y="11.94" style="clip-path:url(#SVGID_00000021820236815525187400000005945172397162222504_);fill:url(#XMLID_00000062179700246973103520000005109089795549646509_);" width="410.4" height="71.55"/>
			</g>
		</g>
		<path id="XMLID_4542_" class="st11" d="M418.94,94.31c0,0-26.48-69.94-163.72-69.94S94.28,93.58,94.28,93.58l-6.58-11.56
			l23.26-31.9l62.04-28.24l42.87-6.58l40.97-2.05l52.53,2.93l41.41,8.78l57.06,28.82l30.87,24.58l2.19,2.49L418.94,94.31
			L418.94,94.31z"/>
		<g id="XMLID_60_">
			<g>
				<defs>
					<path id="SVGID_00000096039622161577587540000000115518478014856878_" d="M415.14,105.14c0,0-13.17,8.78-40.24,18.87
						c-26.92,9.95-63.35,26.77-78.28,40.82c-15.51,14.48-26.34,29.99-29.99,35.85c-3.51,5.85-7.75,14.48-10.1,13.61
						c-0.29,4.97-1.46,34.68-1.46,34.68l1.61,1.17l14.19-24.43l46.97-51.06l21.36-22.82l72.86-34.82L415.14,105.14L415.14,105.14z"
						/>
				</defs>
				<clipPath id="SVGID_00000090273778273311087000000004719733824452002487_">
					<use xlink:href="#SVGID_00000096039622161577587540000000115518478014856878_"  style="overflow:visible;"/>
				</clipPath>
				
					<linearGradient id="XMLID_00000134945748036877209850000001353251386844838797_" gradientUnits="userSpaceOnUse" x1="253.4638" y1="334.2905" x2="419.2343" y2="334.2905" gradientTransform="matrix(1 0 0 -1 0 512)">
					<stop  offset="0.0161" style="stop-color:#697C86"/>
					<stop  offset="1" style="stop-color:#F2F2F2"/>
				</linearGradient>
				
					<rect id="XMLID_59_" x="253.46" y="100.75" style="clip-path:url(#SVGID_00000090273778273311087000000004719733824452002487_);fill:url(#XMLID_00000134945748036877209850000001353251386844838797_);" width="165.77" height="153.92"/>
			</g>
		</g>
		<path id="XMLID_4430_" class="st7" d="M372.12,125.77c-8.78,3.8-49.89,16.83-70.23,41.7c-6.88,8.49-19.17,30.87-22.39,36.29
			c-3.37,5.41-19.46,39.8-23.26,44.62c-3.95,4.68,20.92-20.04,20.92-20.04s67.3-59.84,68.77-60.72
			c1.46-0.88,25.46-22.39,25.46-22.39S379,122.84,372.12,125.77L372.12,125.77z"/>
		<g id="XMLID_57_">
			<g>
				<defs>
					<path id="SVGID_00000158011878138695871720000004217125403344192429_" d="M458.15,72.07c0,0-35.26,31.16-71.11,47.26
						s-80.76,31.6-107.54,90.57c-20.34,35.99,31.9-32.33,31.9-32.33l27.51-19.75l63.79-28.38l32.63-20.92L458.15,72.07L458.15,72.07
						z"/>
				</defs>
				<clipPath id="SVGID_00000156561243008232823470000008441631300269923731_">
					<use xlink:href="#SVGID_00000158011878138695871720000004217125403344192429_"  style="overflow:visible;"/>
				</clipPath>
				
					<linearGradient id="XMLID_00000161619807020501727560000001392190846093323670_" gradientUnits="userSpaceOnUse" x1="368.8934" y1="458.1363" x2="378.5696" y2="273.5048" gradientTransform="matrix(1 0 0 -1 0 512)">
					<stop  offset="0.0161" style="stop-color:#B3B3B3"/>
					<stop  offset="0.1774" style="stop-color:#F2F2F2"/>
					<stop  offset="0.2444" style="stop-color:#C9CCCE"/>
					<stop  offset="0.3486" style="stop-color:#8E969B"/>
					<stop  offset="0.4378" style="stop-color:#636F75"/>
					<stop  offset="0.5072" style="stop-color:#49575E"/>
					<stop  offset="0.5484" style="stop-color:#3F4E56"/>
				</linearGradient>
				
					<rect id="XMLID_56_" x="255.95" y="59.78" style="clip-path:url(#SVGID_00000156561243008232823470000008441631300269923731_);fill:url(#XMLID_00000161619807020501727560000001392190846093323670_);" width="235.56" height="172.79"/>
			</g>
		</g>
		<g id="XMLID_143_">
			<g>
				<defs>
					<path id="SVGID_00000162346405864724093790000009425833962726535570_" d="M458.74,71.49c0,0-25.02,25.31-60.43,45.21
						c-11.7,6.58-42.72,20.19-57.06,27.8c-31.6,16.68-47.84,46.09-52.96,52.09c-5.12,6-31.46,53.26-31.46,53.26l11.27-2.49
						l43.75-57.65l35.55-21.51l81.06-25.46l26.63-22.09c0,0,6.44,3.22,8.34-26.92C464.59,75,458.74,71.49,458.74,71.49L458.74,71.49
						z"/>
				</defs>
				<clipPath id="SVGID_00000026139769247730610690000008063624140986358678_">
					<use xlink:href="#SVGID_00000162346405864724093790000009425833962726535570_"  style="overflow:visible;"/>
				</clipPath>
				
					<linearGradient id="XMLID_00000160182840873603704980000004729128703197027753_" gradientUnits="userSpaceOnUse" x1="244.3477" y1="296.3914" x2="473.9395" y2="404.7559" gradientTransform="matrix(1 0 0 -1 0 512)">
					<stop  offset="0.3226" style="stop-color:#697C86"/>
					<stop  offset="0.5269" style="stop-color:#FFFFFF"/>
					<stop  offset="1" style="stop-color:#C2D2DE"/>
				</linearGradient>
				
					<polygon id="XMLID_4_" style="clip-path:url(#SVGID_00000026139769247730610690000008063624140986358678_);fill:url(#XMLID_00000160182840873603704980000004729128703197027753_);" points="
					458.74,71.49 492.83,142.59 257.71,252.18 224.35,180.78 				"/>
			</g>
		</g>
		<g id="XMLID_67_">
			<g>
				<defs>
					<path id="SVGID_00000130633612565363585170000008449287016976019377_" d="M399.04,170.69l-53.7,17.26l-30.14,12.44
						l-38.19,28.38c0,0-8.92,16.09-9.66,19.46s-6.29,21.8-6.29,21.8l-0.73,6.15l-1.9,2.49l-1.76-10.97l1.02-14.92l7.46-13.75
						l8.63-14.78l16.09-17.26l22.09-13.17l37.46-11.7l30.87-8.05L399.04,170.69L399.04,170.69z"/>
				</defs>
				<clipPath id="SVGID_00000020366027144594145150000010570837220599044234_">
					<use xlink:href="#SVGID_00000130633612565363585170000008449287016976019377_"  style="overflow:visible;"/>
				</clipPath>
				
					<linearGradient id="XMLID_00000113344951509175529380000008827753770319649468_" gradientUnits="userSpaceOnUse" x1="328.0824" y1="228.215" x2="328.0824" y2="346.5806" gradientTransform="matrix(1 0 0 -1 0 512)">
					<stop  offset="0.0161" style="stop-color:#999999"/>
					<stop  offset="0.2204" style="stop-color:#F2F2F2"/>
					<stop  offset="1" style="stop-color:#B3B3B3"/>
				</linearGradient>
				
					<rect id="XMLID_66_" x="250.83" y="165.42" style="clip-path:url(#SVGID_00000020366027144594145150000010570837220599044234_);fill:url(#XMLID_00000113344951509175529380000008827753770319649468_);" width="154.5" height="118.37"/>
			</g>
		</g>
		<g id="XMLID_39_">
			<g>
				<defs>
					<path id="SVGID_00000177442467452864705890000003406011831871877553_" d="M438.11,156.35c0,0-9.95,6.15-57.94,20.63
						c-48.14,14.48-73.16,27.8-94.22,54.28c-11.41,14.34-17.85,28.38-19.9,35.26s-6.15,12.88-6.73,13.61
						c-0.59,0.88-3.8,1.32-3.95-0.59c0-0.59,2.78,1.76,3.66-5.12c0-8.05,0.73-22.39,5.41-30.73c6.58-11.56,16.39-25.46,32.33-34.82
						c15.95-9.51,36.58-17.7,50.04-22.53c13.46-4.83,47.11-14.05,61.6-19.31c14.48-5.27,32.77-13.31,32.77-13.31L438.11,156.35
						L438.11,156.35z"/>
				</defs>
				<clipPath id="SVGID_00000127731420296478718850000003394377303764402073_">
					<use xlink:href="#SVGID_00000177442467452864705890000003406011831871877553_"  style="overflow:visible;"/>
				</clipPath>
				
					<linearGradient id="XMLID_00000150092902225126646920000005269331831747757735_" gradientUnits="userSpaceOnUse" x1="349.1512" y1="227.0445" x2="349.1512" y2="362.5285" gradientTransform="matrix(1 0 0 -1 0 512)">
					<stop  offset="0" style="stop-color:#CCCCCC"/>
					<stop  offset="0.0236" style="stop-color:#B0B3B4"/>
					<stop  offset="0.0582" style="stop-color:#8D9497"/>
					<stop  offset="0.095" style="stop-color:#717A80"/>
					<stop  offset="0.1343" style="stop-color:#5B676D"/>
					<stop  offset="0.1772" style="stop-color:#4B5960"/>
					<stop  offset="0.2263" style="stop-color:#425158"/>
					<stop  offset="0.2957" style="stop-color:#3F4E56"/>
					<stop  offset="0.4473" style="stop-color:#3C4A52"/>
					<stop  offset="0.5995" style="stop-color:#333F46"/>
					<stop  offset="0.7521" style="stop-color:#242D32"/>
					<stop  offset="0.9041" style="stop-color:#101416"/>
					<stop  offset="1" style="stop-color:#000000"/>
				</linearGradient>
				
					<rect id="XMLID_38_" x="250.83" y="149.47" style="clip-path:url(#SVGID_00000127731420296478718850000003394377303764402073_);fill:url(#XMLID_00000150092902225126646920000005269331831747757735_);" width="196.64" height="135.48"/>
			</g>
		</g>
		
			<linearGradient id="XMLID_00000092441774824253642370000010504598470427170697_" gradientUnits="userSpaceOnUse" x1="195.0287" y1="235.1647" x2="195.0287" y2="339.5576" gradientTransform="matrix(1 0 0 -1 0 512)">
			<stop  offset="0.0161" style="stop-color:#B3B3B3"/>
			<stop  offset="1" style="stop-color:#F2F2F2"/>
		</linearGradient>
		<path id="XMLID_64_" style="fill:url(#XMLID_00000092441774824253642370000010504598470427170697_);" d="M258,251.6
			c0,0,0.73,22.09,0,24.43s-4.68-1.17-4.68-1.17l-15.8-36.72l-22.09-22.97l-33.65-21.07l-14.78-5.85l-23.7-7.32l-9.66-2.93
			l-1.9-5.56l49.6,12l37.16,19.46l19.02,17.85l14.19,19.46L258,251.6L258,251.6z"/>
		<g id="XMLID_45_">
			<g>
				<defs>
					<path id="SVGID_00000015316513744834129820000017753072591297199234_" d="M98.67,105.14c0,0,13.17,8.78,40.24,18.87
						c26.92,9.95,63.35,26.77,78.28,40.82c15.51,14.48,25.6,30.29,29.26,36.14c3.51,5.85,8.49,14.19,10.83,13.31
						c0.29,4.97,1.46,34.68,1.46,34.68l-1.61,1.17l-14.19-24.43l-46.97-51.06l-21.36-22.82l-72.86-34.82L98.67,105.14L98.67,105.14z
						"/>
				</defs>
				<clipPath id="SVGID_00000083789620663695559440000015782999635033710756_">
					<use xlink:href="#SVGID_00000015316513744834129820000017753072591297199234_"  style="overflow:visible;"/>
				</clipPath>
				
					<linearGradient id="XMLID_00000134219420659574617920000017782939786795139227_" gradientUnits="userSpaceOnUse" x1="93.1068" y1="334.2905" x2="264.2908" y2="334.2905" gradientTransform="matrix(1 0 0 -1 0 512)">
					<stop  offset="0" style="stop-color:#F2F2F2"/>
					<stop  offset="0.2634" style="stop-color:#E6E6E6"/>
					<stop  offset="0.4946" style="stop-color:#FFFFFF"/>
					<stop  offset="0.6795" style="stop-color:#F1F1F1"/>
					<stop  offset="0.8871" style="stop-color:#E6E6E6"/>
					<stop  offset="0.8872" style="stop-color:#E6E6E6"/>
					<stop  offset="0.9217" style="stop-color:#F8F8F8"/>
					<stop  offset="0.9462" style="stop-color:#FFFFFF"/>
					<stop  offset="0.9531" style="stop-color:#DFE1E2"/>
					<stop  offset="0.9625" style="stop-color:#BBC0C2"/>
					<stop  offset="0.9719" style="stop-color:#9FA5A8"/>
					<stop  offset="0.9813" style="stop-color:#8B9296"/>
					<stop  offset="0.9907" style="stop-color:#7F878B"/>
					<stop  offset="1" style="stop-color:#7B8387"/>
				</linearGradient>
				
					<rect id="XMLID_44_" x="93.11" y="105.29" style="clip-path:url(#SVGID_00000083789620663695559440000015782999635033710756_);fill:url(#XMLID_00000134219420659574617920000017782939786795139227_);" width="171.18" height="144.85"/>
			</g>
		</g>
		<g id="XMLID_3_">
			<g>
				<defs>
					<path id="SVGID_00000067237303141551323910000002193567707482394520_" d="M252,241.79l-19.31-24l-34.97-29.99L86.67,144.5
						l-33.8-30.58c0,0-7.9-25.9-2.93-35.55c-0.15-3.07,5.41-18.73,7.61-13.9c5.71,5.85,12.58,14.48,36.14,29.85
						c-2.05,4.83-0.15,6.88,2.93,8.78c6,3.8,15.22,9.36,15.22,9.36l19.75,10.97l38.63,19.46l20.48,12.88l20.04,21.07l14.92,18.44
						l16.09,21.07l16.53,33.07L252,241.79L252,241.79z"/>
				</defs>
				<clipPath id="SVGID_00000145020451411560425320000011070683909934645426_">
					<use xlink:href="#SVGID_00000067237303141551323910000002193567707482394520_"  style="overflow:visible;"/>
				</clipPath>
				
					<linearGradient id="XMLID_00000178917211151766761540000008531729415088353426_" gradientUnits="userSpaceOnUse" x1="153.3138" y1="262.3054" x2="153.3138" y2="448.5594" gradientTransform="matrix(1 0 0 -1 0 512)">
					<stop  offset="0" style="stop-color:#697C86"/>
					<stop  offset="0.7204" style="stop-color:#FFFFFF"/>
					<stop  offset="1" style="stop-color:#E6E6E6"/>
				</linearGradient>
				
					<rect id="XMLID_11_" x="45.85" y="63.44" style="clip-path:url(#SVGID_00000145020451411560425320000011070683909934645426_);fill:url(#XMLID_00000178917211151766761540000008531729415088353426_);" width="214.93" height="186.25"/>
			</g>
		</g>
		<g id="XMLID_36_">
			<g>
				<defs>
					<path id="SVGID_00000139981465525311815130000014072460987516139905_" d="M90.18,296.81c-8.63-6-19.31-10.97-29.85-17.7
						c-8.49-5.41-15.07-27.8-18.44-46.38c-11.7-66.28,11.41-115,11.41-115s0.44-1.17,0-1.61c-1.76-1.61-0.44-4.39,2.19-2.49
						c29.7,19.75,37.31,19.9,60.43,30.73c33.21,15.51,68.18,15.36,105.2,52.67c17.56,17.7,35.11,52.67,37.16,52.23
						c-0.15,3.51-0.73,19.9-0.73,19.9s0.88-15.8-4.1-23.7c-20.48-32.19-50.33-45.5-50.33-45.5s-25.75-13.46-66.28-21.22
						c-17.41-3.37-42.28-9.51-63.94-22.09c-1.76-1.02-2.49,0.29-3.07,1.17c-1.17,1.76-5.85,46.38-1.02,74.91
						C73.5,259.35,79.65,273.69,90.18,296.81L90.18,296.81z"/>
				</defs>
				<clipPath id="SVGID_00000042705607883807437160000005589405523980148658_">
					<use xlink:href="#SVGID_00000139981465525311815130000014072460987516139905_"  style="overflow:visible;"/>
				</clipPath>
				
					<linearGradient id="XMLID_00000139294856443127617150000001563413730022449808_" gradientUnits="userSpaceOnUse" x1="311.3739" y1="264.0633" x2="-9.1356" y2="349.9437" gradientTransform="matrix(1 0 0 -1 0 512)">
					<stop  offset="0" style="stop-color:#3F4E56"/>
					<stop  offset="0.2152" style="stop-color:#3C4A52"/>
					<stop  offset="0.4313" style="stop-color:#333F46"/>
					<stop  offset="0.6481" style="stop-color:#242D32"/>
					<stop  offset="0.8639" style="stop-color:#101416"/>
					<stop  offset="1" style="stop-color:#000000"/>
				</linearGradient>
				
					<rect id="XMLID_35_" x="11.17" y="86.27" style="clip-path:url(#SVGID_00000042705607883807437160000005589405523980148658_);fill:url(#XMLID_00000139294856443127617150000001563413730022449808_);" width="279.89" height="237.46"/>
			</g>
		</g>
		<path id="XMLID_3681_" class="st21" d="M57.85,64.76c0,0,13.02,15.36,35.26,29.7c-9.22-3.51-13.46-3.95-21.8-10.39
			C65.6,79.83,57.85,64.76,57.85,64.76L57.85,64.76z"/>
		<path id="XMLID_3680_" class="st7" d="M455.52,64.03c0,0-10.24,11.12-17.26,16.24c-6.88,5.12-18.44,13.61-18.44,13.61l21.07-10.39
			L455.52,64.03L455.52,64.03z"/>
		<g id="XMLID_33_">
			<g>
				<defs>
					<path id="SVGID_00000156566838400126401550000017949059319700968855_" d="M74.67,78.51c0,0,18.58-25.75,49.75-40.82
						s51.79-18.29,71.11-21.22c18.44-2.78,55.89-3.37,58.82-3.51h0.15c3.07,0,42.58,0.73,61.01,3.51
						c19.17,2.78,40.09,5.41,71.25,20.48s52.96,42.28,52.96,42.28s-7.75,1.9-12.58,5.71c-4.83,3.95-6.58,2.19-6.58,2.19
						s-0.44-10.83-14.92-26.48c-14.48-15.8-36.87-25.02-65.84-35.41c-27.95-9.95-81.93-10.39-85.45-10.39h-0.15
						c-3.51,0-55.16,0.29-83.25,10.39c-28.97,10.39-45.8,22.24-60.28,38.04S93.11,95.04,93.11,95.04s-4.68-6-9.51-9.95
						C79.06,81.14,74.67,78.51,74.67,78.51L74.67,78.51z"/>
				</defs>
				<clipPath id="SVGID_00000163760886011444928420000017541833319669491620_">
					<use xlink:href="#SVGID_00000156566838400126401550000017949059319700968855_"  style="overflow:visible;"/>
				</clipPath>
				
					<linearGradient id="XMLID_00000034059134781220924690000000706488522965127094_" gradientUnits="userSpaceOnUse" x1="69.4044" y1="457.9234" x2="447.6186" y2="457.9234" gradientTransform="matrix(1 0 0 -1 0 512)">
					<stop  offset="0" style="stop-color:#3F4E56"/>
					<stop  offset="0.3065" style="stop-color:#3F4E56"/>
					<stop  offset="0.3387" style="stop-color:#5D6F78"/>
					<stop  offset="0.6882" style="stop-color:#697C86"/>
					<stop  offset="0.7269" style="stop-color:#596A72"/>
					<stop  offset="0.8029" style="stop-color:#3F4B51"/>
					<stop  offset="0.8756" style="stop-color:#2C3539"/>
					<stop  offset="0.943" style="stop-color:#20282B"/>
					<stop  offset="1" style="stop-color:#1C2326"/>
				</linearGradient>
				
					<rect id="XMLID_32_" x="69.4" y="13.11" style="clip-path:url(#SVGID_00000163760886011444928420000017541833319669491620_);fill:url(#XMLID_00000034059134781220924690000000706488522965127094_);" width="378.21" height="81.93"/>
			</g>
		</g>
		<path id="XMLID_3437_" class="st23" d="M221.71,190.44c-3.07-4.1-6.15-8.49-9.36-12.88c-14.48-19.61-31.6-30.58-49.31-39.36
			c-2.93-1.46-5.71-2.78-8.63-4.1c8.34,3.37,16.39,7.17,29.41,14.63c14.19,8.05,26.92,25.31,34.97,37.31
			C219.67,187.51,220.69,188.98,221.71,190.44L221.71,190.44z M53.9,72.51c2.49,2.78,22.53,19.75,55.6,41.26
			c33.65,21.95,72.86,26.77,101.25,65.11c22.09,29.99,24.43,26.77,44.33,63.65c-3.66-10.53-7.61-17.85-12.58-25.75
			c-4.97-7.9-14.05-19.9-22.09-31.9c-8.05-11.85-21.07-29.55-35.7-37.89c-14.63-8.34-23.12-12.14-32.63-15.95
			c-9.51-3.8-25.17-9.95-40.24-18.44C96.62,103.97,70.72,86.27,53.9,72.51L53.9,72.51z"/>
		<g id="XMLID_42_">
			<g>
				<defs>
					<path id="SVGID_00000154408769361525538890000006467273465093048492_" d="M259.32,249.69c14.92-32.33,29.26-50.77,59.11-72.42
						c17.26-12.44,29.7-14.78,49.45-22.68c13.02-5.12,20.92-6.88,33.94-12.14c23.85-9.66,34.38-14.48,58.82-29.55
						c1.76,5.71-10.97,28.38-20.04,41.7c-25.46,11.27-45.94,17.41-76.37,24.58c-18.29,4.24-31.75,8.63-50.33,16.24
						C283.02,207.85,274.09,223.36,259.32,249.69L259.32,249.69z"/>
				</defs>
				<clipPath id="SVGID_00000139275991093720013570000018148433586704601995_">
					<use xlink:href="#SVGID_00000154408769361525538890000006467273465093048492_"  style="overflow:visible;"/>
				</clipPath>
				
					<linearGradient id="XMLID_00000116235983839115760160000001600459189066417043_" gradientUnits="userSpaceOnUse" x1="491.7451" y1="411.785" x2="211.3856" y2="249.9193" gradientTransform="matrix(1 0 0 -1 0 512)">
					<stop  offset="0" style="stop-color:#000000"/>
					<stop  offset="0.1361" style="stop-color:#101416"/>
					<stop  offset="0.3519" style="stop-color:#242D32"/>
					<stop  offset="0.5687" style="stop-color:#333F46"/>
					<stop  offset="0.7848" style="stop-color:#3C4A52"/>
					<stop  offset="1" style="stop-color:#3F4E56"/>
				</linearGradient>
				
					<rect id="XMLID_41_" x="221.13" y="83.34" style="clip-path:url(#SVGID_00000139275991093720013570000018148433586704601995_);fill:url(#XMLID_00000116235983839115760160000001600459189066417043_);" width="260.87" height="195.62"/>
			</g>
		</g>
		<g id="XMLID_51_">
			<g>
				<defs>
					<path id="SVGID_00000087384920517868056900000003601003582660121235_" d="M250.98,248.23c4.83,9.51,7.02,18,7.02,26.48
						s-3.22,7.02-6.15-0.44c-2.93-7.46-7.32-23.56-25.02-43.31s-37.16-33.8-56.62-40.82c-19.46-7.02-39.36-11.41-48.14-14.05
						c-8.78-2.63-21.22-6.73-21.22-6.73l21.95,5.56c0,0,49.89,11.12,78.28,27.95C229.62,219.55,243.37,233.02,250.98,248.23
						L250.98,248.23z"/>
				</defs>
				<clipPath id="SVGID_00000093882581903024150330000005018095794875121338_">
					<use xlink:href="#SVGID_00000087384920517868056900000003601003582660121235_"  style="overflow:visible;"/>
				</clipPath>
				
					<linearGradient id="XMLID_00000078736514568911923500000009717472938233653432_" gradientUnits="userSpaceOnUse" x1="179.8693" y1="226.0203" x2="179.8693" y2="348.4827" gradientTransform="matrix(1 0 0 -1 0 512)">
					<stop  offset="0" style="stop-color:#E6E6E6"/>
					<stop  offset="0.0771" style="stop-color:#DDDEDF"/>
					<stop  offset="0.2028" style="stop-color:#C5CACC"/>
					<stop  offset="0.3615" style="stop-color:#9DA8AE"/>
					<stop  offset="0.5376" style="stop-color:#697C86"/>
					<stop  offset="0.5947" style="stop-color:#657781"/>
					<stop  offset="0.662" style="stop-color:#586A73"/>
					<stop  offset="0.7342" style="stop-color:#43535B"/>
					<stop  offset="0.7473" style="stop-color:#3F4E56"/>
					<stop  offset="1" style="stop-color:#3F4E56"/>
				</linearGradient>
				
					<rect id="XMLID_50_" x="98.67" y="163.52" style="clip-path:url(#SVGID_00000093882581903024150330000005018095794875121338_);fill:url(#XMLID_00000078736514568911923500000009717472938233653432_);" width="162.41" height="122.46"/>
			</g>
		</g>
		<path id="XMLID_3259_" class="st8" d="M50.09,78.22c-1.02,1.32-28.82,35.7-37.75,102.27c0-51.5,26.34-99.35,42.43-115.15
			C52.43,68.56,50.09,76.02,50.09,78.22L50.09,78.22z"/>
		<path id="XMLID_3258_" class="st7" d="M93.25,94.75c0,0-7.02-9.22-15.8-16.09S61.94,69,61.94,69s4.83,6,14.78,13.75
			C86.52,90.51,93.25,94.75,93.25,94.75L93.25,94.75z"/>
		<path id="XMLID_3257_" class="st8" d="M61.94,69c0,0,5.56,1.76,13.75,8.34c0,0,17.56-23.85,43.6-37.16s51.79-21.51,87.2-25.02
			c0,0-43.6,1.46-87.93,24C93.4,51.88,75.4,75.44,75.4,75.44C71.16,72.22,66.62,70.02,61.94,69L61.94,69z"/>
		
			<linearGradient id="XMLID_00000052101446967077291290000016382608208250669491_" gradientUnits="userSpaceOnUse" x1="460.8242" y1="366.991" x2="477.4094" y2="366.991" gradientTransform="matrix(1 0 0 -1 0 512)">
			<stop  offset="0.0161" style="stop-color:#B3B3B3"/>
			<stop  offset="1" style="stop-color:#F2F2F2"/>
		</linearGradient>
		<path id="XMLID_62_" style="fill:url(#XMLID_00000052101446967077291290000016382608208250669491_);" d="M461.23,111.72
			c0,0,4.83,6.29,10.68,30.29c4.54,18.29,5.56,36.29,5.56,36.29s-3.8-37.31-16.53-65.25L461.23,111.72L461.23,111.72z"/>
		
			<linearGradient id="XMLID_00000114794038973092467230000003452410495737620873_" gradientUnits="userSpaceOnUse" x1="254.4879" y1="466.4914" x2="440.7419" y2="466.4914" gradientTransform="matrix(1 0 0 -1 0 512)">
			<stop  offset="0.0161" style="stop-color:#B3B3B3"/>
			<stop  offset="1" style="stop-color:#F2F2F2"/>
		</linearGradient>
		<path id="XMLID_61_" style="fill:url(#XMLID_00000114794038973092467230000003452410495737620873_);" d="M254.49,11.94
			c3.22-0.15,42.72,0.59,61.16,3.22c9.66,1.46,19.75,2.78,31.31,5.71s24.73,7.32,40.38,14.92s29.12,18.29,38.48,26.92
			c4.68,4.39,8.63,8.49,11.41,11.41c1.32,1.46,2.63,2.93,3.51,4.1l-0.88,0.88c0,0-21.95-27.07-52.96-42.28s-52.09-17.7-71.25-20.48
			C296.92,13.84,254.49,11.94,254.49,11.94L254.49,11.94z"/>
		
			<linearGradient id="XMLID_00000016774939959410112320000003223628649739506074_" gradientUnits="userSpaceOnUse" x1="139.4874" y1="158.4042" x2="377.0966" y2="158.4042" gradientTransform="matrix(1 0 0 -1 0 512)">
			<stop  offset="0.0161" style="stop-color:#999999"/>
			<stop  offset="0.2204" style="stop-color:#F2F2F2"/>
			<stop  offset="1" style="stop-color:#B3B3B3"/>
		</linearGradient>
		
			<path id="XMLID_71_" style="fill-rule:evenodd;clip-rule:evenodd;fill:url(#XMLID_00000016774939959410112320000003223628649739506074_);" d="
			M139.49,340.7c61.45,29.12,184.79,27.51,237.61,0C321.64,374.21,200.21,375.96,139.49,340.7L139.49,340.7z"/>
		<g id="XMLID_13_">
			<g>
				<defs>
					<path id="SVGID_00000117674714935910563750000007397718517103499441_" d="M437.23,275.3h21.36c0,0-23.26,60.72-88.52,81.79
						c-27.36,8.78-68.18,9.36-68.18,9.36C376.51,362.06,414.84,338.21,437.23,275.3L437.23,275.3z"/>
				</defs>
				<clipPath id="SVGID_00000159469028789262573800000015689075683809740950_">
					<use xlink:href="#SVGID_00000117674714935910563750000007397718517103499441_"  style="overflow:visible;"/>
				</clipPath>
				
					<linearGradient id="XMLID_00000087377647191281314920000013490961869747547024_" gradientUnits="userSpaceOnUse" x1="380.2423" y1="143.2369" x2="380.2423" y2="238.9243" gradientTransform="matrix(1 0 0 -1 0 512)">
					<stop  offset="0" style="stop-color:#E6E6E6"/>
					<stop  offset="0.1708" style="stop-color:#E1E2E2"/>
					<stop  offset="0.373" style="stop-color:#D3D5D7"/>
					<stop  offset="0.591" style="stop-color:#BBC1C4"/>
					<stop  offset="0.8186" style="stop-color:#9AA4AA"/>
					<stop  offset="1" style="stop-color:#7A8991"/>
				</linearGradient>
				
					<rect id="XMLID_14_" x="301.89" y="272.96" style="clip-path:url(#SVGID_00000159469028789262573800000015689075683809740950_);fill:url(#XMLID_00000087377647191281314920000013490961869747547024_);" width="156.7" height="95.69"/>
			</g>
		</g>
		<path id="XMLID_3042_" class="st30" d="M269.41,229.8c0,0,19.46-40.97,65.69-64.08c12.14-6.15,32.48-10.97,32.48-10.97
			l-11.85,4.39c-13.31,4.83-23.85,8.34-37.16,18c-23.12,16.68-36.87,31.46-48.87,52.23L269.41,229.8L269.41,229.8z"/>
		<g id="XMLID_54_">
			<g>
				<defs>
					<path id="SVGID_00000127737018270426461700000009697687913894632343_" d="M255.8,277.35c-0.44-0.73-1.17-2.05-1.9-3.95
						c-1.46-3.8-3.37-9.8-7.02-17.26c-3.8-7.61-9.36-16.68-18.44-26.63c-7.46-8.34-15.22-15.66-23.26-21.95
						c24.87,15.22,37.02,27.8,43.89,41.55c4.68,9.36,6.88,17.41,6.88,25.6C255.95,275.74,255.95,276.62,255.8,277.35L255.8,277.35z"
						/>
				</defs>
				<clipPath id="SVGID_00000043457335897962998020000002050056418771930038_">
					<use xlink:href="#SVGID_00000127737018270426461700000009697687913894632343_"  style="overflow:visible;"/>
				</clipPath>
				
					<linearGradient id="XMLID_00000000194930722203716970000004680414054027109555_" gradientUnits="userSpaceOnUse" x1="230.2734" y1="228.9465" x2="230.2734" y2="310.0028" gradientTransform="matrix(1 0 0 -1 0 512)">
					<stop  offset="0" style="stop-color:#697C86"/>
					<stop  offset="0.1554" style="stop-color:#6B7E88"/>
					<stop  offset="0.2435" style="stop-color:#74858E"/>
					<stop  offset="0.3147" style="stop-color:#819199"/>
					<stop  offset="0.3769" style="stop-color:#95A2A9"/>
					<stop  offset="0.4333" style="stop-color:#AFB8BD"/>
					<stop  offset="0.4846" style="stop-color:#CED3D5"/>
					<stop  offset="0.5323" style="stop-color:#F2F2F2"/>
					<stop  offset="0.5583" style="stop-color:#D8DADB"/>
					<stop  offset="0.6056" style="stop-color:#B0B5B8"/>
					<stop  offset="0.6559" style="stop-color:#8D959A"/>
					<stop  offset="0.7089" style="stop-color:#707B81"/>
					<stop  offset="0.7654" style="stop-color:#5B676E"/>
					<stop  offset="0.8273" style="stop-color:#4B5960"/>
					<stop  offset="0.8984" style="stop-color:#425158"/>
					<stop  offset="1" style="stop-color:#3F4E56"/>
				</linearGradient>
				
					<rect id="XMLID_53_" x="198.16" y="202" style="clip-path:url(#SVGID_00000043457335897962998020000002050056418771930038_);fill:url(#XMLID_00000000194930722203716970000004680414054027109555_);" width="64.23" height="81.06"/>
			</g>
		</g>
		
			<linearGradient id="XMLID_00000147179595336109874190000006921823896079951495_" gradientUnits="userSpaceOnUse" x1="419.0879" y1="430.2706" x2="476.127" y2="430.2706" gradientTransform="matrix(1 0 0 -1 0 512)">
			<stop  offset="0.0161" style="stop-color:#CCCCCC"/>
			<stop  offset="0.5753" style="stop-color:#F2F2F2"/>
		</linearGradient>
		<path id="XMLID_72_" style="fill:url(#XMLID_00000147179595336109874190000006921823896079951495_);" d="M419.09,94.75l1.46,4.39
			c0,0,7.46-4.1,20.78-14.34c13.31-10.24,17.41-13.31,17.41-13.31s3.8,2.93,17.26,25.02c0,0-4.24-13.02-19.46-32.19l-15.51,19.02
			L419.09,94.75L419.09,94.75z"/>
		
			<linearGradient id="XMLID_00000039843067708244425340000014453850805786053276_" gradientUnits="userSpaceOnUse" x1="105.5433" y1="368.0152" x2="209.1315" y2="368.0152" gradientTransform="matrix(1 0 0 -1 0 512)">
			<stop  offset="0" style="stop-color:#F2F2F2"/>
			<stop  offset="0.9839" style="stop-color:#B3B3B3"/>
		</linearGradient>
		<path id="XMLID_63_" style="fill:url(#XMLID_00000039843067708244425340000014453850805786053276_);" d="M209.13,176.83
			c-21.51-23.12-36.58-28.38-64.23-38.19c-26.48-9.51-37.31-24.29-39.36-27.51c1.17,0.88,2.49,1.61,3.8,2.49
			C142.56,135.28,180.89,140.25,209.13,176.83L209.13,176.83z"/>
	</g>
</g>
</svg>
