<?xml version="1.0" standalone="no"?>
<!DOCTYPE svg PUBLIC "-//W3C//DTD SVG 20010904//EN"
 "http://www.w3.org/TR/2001/REC-SVG-20010904/DTD/svg10.dtd">
<svg version="1.0" xmlns="http://www.w3.org/2000/svg"
 width="640.000000pt" height="640.000000pt" viewBox="0 0 640.000000 640.000000"
 preserveAspectRatio="xMidYMid meet">

<g transform="translate(0.000000,640.000000) scale(0.100000,-0.100000)"
fill="#000000" stroke="none">
<path d="M917 5482 l-907 -907 0 -1385 0 -1385 903 -903 902 -902 1385 0 1385
0 908 908 907 907 0 1388 0 1388 -892 899 -893 900 -1395 0 -1395 0 -908 -908z
m4190 -394 l743 -743 0 -1140 0 -1140 -757 -757 -758 -758 -1129 0 -1128 0
-759 751 -759 751 0 1137 0 1136 752 752 753 753 1150 0 1150 0 742 -742z"/>
<path d="M2421 5458 c-5 -13 -133 -358 -286 -768 -153 -410 -281 -748 -285
-753 -3 -4 -92 166 -195 378 -104 212 -193 384 -197 383 -4 -2 -133 -120 -287
-263 l-279 -260 -1 -965 0 -965 274 -279 275 -278 2 931 3 930 235 -523 c129
-288 237 -522 240 -521 3 2 125 314 270 695 l265 691 5 -1478 5 -1478 303 -3
302 -2 0 2275 0 2275 -320 0 -320 0 -9 -22z"/>
<path d="M3507 5473 c-4 -3 -7 -1027 -7 -2275 l0 -2268 346 0 346 0 664 657
664 656 0 479 0 478 -510 0 -510 0 2 -272 3 -273 220 -5 219 -5 13 -25 c15
-29 9 -69 -18 -120 -10 -19 -200 -217 -423 -440 l-406 -405 0 1543 c0 849 4
1542 8 1540 5 -1 198 -201 430 -442 l422 -440 0 -108 0 -108 275 0 275 0 0
255 0 255 -656 665 -656 665 -347 0 c-191 0 -351 -3 -354 -7z"/>
</g>
</svg>
