<?xml version="1.0" encoding="UTF-8"?>
<!DOCTYPE svg PUBLIC "-//W3C//DTD SVG 1.1//EN" "http://www.w3.org/Graphics/SVG/1.1/DTD/svg11.dtd">
<!-- Creator: CorelDRAW 2019 (64-Bit) -->
<svg xmlns="http://www.w3.org/2000/svg" xml:space="preserve" width="179.667mm" height="195.92mm" version="1.1" style="shape-rendering:geometricPrecision; text-rendering:geometricPrecision; image-rendering:optimizeQuality; fill-rule:evenodd; clip-rule:evenodd"
viewBox="0 0 179.5998 195.8471"
 xmlns:xlink="http://www.w3.org/1999/xlink"
 xmlns:xodm="http://www.corel.com/coreldraw/odm/2003">
 <defs>
  <style type="text/css">
   <![CDATA[
    .fil0 {fill:#C81210}
   ]]>
  </style>
 </defs>
 <g id="Layer_x0020_1">
  <metadata id="CorelCorpID_0Corel-Layer"/>
  <g id="_842293456">
   <polygon class="fil0" points="26.1931,195.1522 26.1931,178.5022 20.4941,190.5892 15.0095,178.5022 15.0095,195.1522 10.4921,195.1522 10.4921,169.6295 15.4689,169.6295 20.4941,181.2539 25.7312,169.6295 30.7413,169.6295 30.7413,195.1522 "/>
   <polygon class="fil0" points="34.8487,195.1522 39.4063,195.1522 39.4063,169.6295 34.8487,169.6295 "/>
   <polygon class="fil0" points="51.465,173.5009 51.465,195.1522 46.9169,195.1522 46.9169,173.5009 41.4568,173.5009 41.4568,169.6295 56.9494,169.6295 56.9494,173.5009 "/>
   <path class="fil0" d="M65.382 195.8471c-5.9288,0 -7.97,-3.8901 -8.2059,-8.6893l4.3371 0c0,2.3077 1.1449,4.5606 3.8689,4.5606 2.2743,0 3.6451,-1.1292 3.6451,-2.9382 0,-1.6224 -1.1293,-2.2984 -5.9223,-5.0163 -3.4218,-2.0663 -5.6929,-4.1075 -5.6929,-7.756 0,-3.8809 2.5127,-6.5986 7.7524,-6.5986 5.6841,0 7.7404,3.6329 7.967,7.9575l-4.5419 0c0,-2.0473 -1.1323,-4.1106 -3.4251,-4.1106 -2.0595,0 -3.1925,0.937 -3.1925,2.5194 0,1.8178 1.3621,2.7267 4.9983,4.5663 4.1073,2.2953 6.6111,4.0919 6.6111,8.2211 0,4.7684 -3.8564,7.2841 -8.1993,7.2841z"/>
   <path class="fil0" d="M84.3701 195.593c-4.0862,0 -8.8791,-1.5911 -8.8791,-8.4352l0 -17.5253 4.5607 0 0 17.5253c0,2.7397 1.3682,4.3496 4.3184,4.3496 2.522,0 3.9115,-1.6099 3.9115,-4.3496l0 -17.5253 4.5359 0 0 17.5253c0,6.6235 -4.5359,8.4352 -8.4474,8.4352z"/>
   <path class="fil0" d="M103.7535 183.9843l-1.8152 0 0 -4.0957 1.8152 0c2.2828,0 3.6362,-0.9089 3.6362,-3.1828 0,-2.2773 -1.5886,-3.2049 -3.6362,-3.2049l-3.4124 0 0 17.7856 3.6358 0c2.5001,0 4.1014,-1.1412 4.1014,-3.8778 0,-2.5156 -1.6013,-3.4244 -4.3248,-3.4244zm1.3621 11.1679l0 0 -9.3226 0 0 -25.5197 8.4287 0c4.7685,0 7.7217,2.271 7.7217,6.3753 0,3.4062 -2.4787,5.4726 -3.6361,5.6897 1.6043,0.4715 4.5514,2.2867 4.5514,6.3879 0,4.0886 -3.1768,7.0668 -7.743,7.0668z"/>
   <polygon class="fil0" points="155.6867,195.1522 155.6867,183.9843 146.3914,183.9843 146.3914,195.1522 141.5893,195.1522 141.5893,169.6295 146.3914,169.6295 146.3914,179.6564 155.4725,179.6564 155.4725,169.6295 160.2586,169.6295 160.2586,195.1522 "/>
   <polygon class="fil0" points="115.3717,195.1522 119.9323,195.1522 119.9323,169.6295 115.3717,169.6295 "/>
   <polygon class="fil0" points="164.59,195.1522 169.1475,195.1522 169.1475,169.6295 164.59,169.6295 "/>
   <path class="fil0" d="M131.0971 195.3639c-5.9344,0 -7.9755,-3.6455 -8.2054,-8.6563l4.3216 0c0,2.2834 1.1385,4.7967 3.8839,4.7967 2.2897,0 3.6637,-1.1418 3.6637,-2.9445 0,-1.6288 -1.1356,-2.5525 -5.9251,-5.2736 -3.4251,-1.8089 -5.7142,-3.8752 -5.7142,-7.5107 0,-3.8751 2.503,-6.5899 7.7552,-6.5899 5.6961,0 7.7467,3.6267 7.9789,7.9364l-4.3245 0c-0.2479,-2.2559 -1.3897,-4.0831 -3.6544,-4.0831 -1.8177,0 -3.1952,0.9001 -3.1952,2.5007 0,1.5824 1.3775,2.5188 5.0256,4.5818 4.0923,2.2467 6.6016,3.8596 6.6016,8.2181 0,4.5204 -3.8776,7.0244 -8.2117,7.0244z"/>
   <polygon class="fil0" points="89.6868,103.761 59.7962,51.9886 89.6868,0 119.7945,51.9886 "/>
   <polygon class="fil0" points="119.7945,155.5208 89.6831,103.761 149.6928,103.761 179.5998,155.5208 "/>
   <polygon class="fil0" points="59.7925,155.5208 -0,155.5208 29.8906,103.761 89.6831,103.761 "/>
  </g>
 </g>
</svg>
