<?xml version="1.0" encoding="utf-8"?>
<!-- Generator: Adobe Illustrator 26.5.0, SVG Export Plug-In . SVG Version: 6.00 Build 0)  -->
<svg version="1.1" id="Nissan_Logo" xmlns="http://www.w3.org/2000/svg" xmlns:xlink="http://www.w3.org/1999/xlink" x="0px"
	 y="0px" viewBox="0 0 512 512" style="enable-background:new 0 0 512 512;" xml:space="preserve">
<style type="text/css">
	.st0{fill:url(#SVGID_1_);}
	.st1{fill:url(#SVGID_00000104671705525848674560000000811771149988675726_);}
	.st2{fill:url(#SVGID_00000152253368122768047600000009198377603923239094_);}
	.st3{fill:url(#SVGID_00000131368499751786836300000015606348335370034073_);}
	.st4{fill:#FFFFFF;}
	.st5{fill:url(#SVGID_00000039851257477874685570000003347278294179400843_);}
	.st6{fill:url(#SVGID_00000174586683781314578120000010855627664534048144_);}
	.st7{fill:#8C8C8C;}
	.st8{fill:#4D4D4D;}
	.st9{fill:#252525;}
	.st10{fill:url(#NISSAN_00000031886676894684492100000012822457522278391725_);}
</style>
<linearGradient id="SVGID_1_" gradientUnits="userSpaceOnUse" x1="453.6003" y1="466.2481" x2="453.5998" y2="823.1142" gradientTransform="matrix(1 0 0 1 -197.6 -422.99)">
	<stop  offset="0.1944" style="stop-color:#FFFFFF"/>
	<stop  offset="0.2085" style="stop-color:#F8F8F8"/>
	<stop  offset="0.3657" style="stop-color:#AEAEAE"/>
	<stop  offset="0.5133" style="stop-color:#707070"/>
	<stop  offset="0.6468" style="stop-color:#404040"/>
	<stop  offset="0.7637" style="stop-color:#1D1D1D"/>
	<stop  offset="0.8595" style="stop-color:#080808"/>
	<stop  offset="0.9222" style="stop-color:#000000"/>
</linearGradient>
<path class="st0" d="M494.33,202.98c-4.63-1.26-9.96-2.1-21.04-3.37c-46.15-2.1-159.49-6.45-217.28-6.45s-171.27,4.35-217.28,6.45
	c-10.94,1.26-16.41,2.1-21.04,3.37C3.09,206.34,0,211.39,0,221.91v70.98c0,10.24,10.94,17.39,18.66,18.66
	c7.72,1.54,12.48,2.1,20.48,2.81c40.96,2.52,136.49,8,216.86,8s175.62-5.33,216.86-8c8-0.7,12.76-1.26,20.48-2.81
	c7.72-1.26,18.66-8.42,18.66-18.66v-70.98C512,211.39,508.91,206.34,494.33,202.98z"/>
<radialGradient id="SVGID_00000135650074458455453220000013277984807503083950_" cx="309.8716" cy="371.6444" r="357.0232" gradientTransform="matrix(1 0 0 1 -197.6 -422.99)" gradientUnits="userSpaceOnUse">
	<stop  offset="0.2022" style="stop-color:#FFFFFF"/>
	<stop  offset="0.3822" style="stop-color:#FDFDFD"/>
	<stop  offset="0.4874" style="stop-color:#F4F4F4"/>
	<stop  offset="0.5732" style="stop-color:#E6E6E6"/>
	<stop  offset="0.6483" style="stop-color:#D2D2D2"/>
	<stop  offset="0.6889" style="stop-color:#C4C4C4"/>
	<stop  offset="1" style="stop-color:#333333"/>
</radialGradient>
<path style="fill:url(#SVGID_00000135650074458455453220000013277984807503083950_);" d="M71.68,205.78
	C94.26,127.23,168.47,69.58,256.7,69.58c87.81,0,162.02,57.37,184.88,135.64c0,0.28,0,0.56,0.28,0.7
	c13.05-1.54,24.83-3.79,32.96-5.89c-0.28-0.56-0.28-0.56-0.28-0.98c-25.81-93.7-113.62-162.3-217.85-162.3
	c-104.5,0-192.46,69.16-218.13,162.86C50.22,202.7,58.63,204.1,71.68,205.78z"/>
<radialGradient id="SVGID_00000156572236131623377490000003668188056221780873_" cx="1173.9015" cy="943.5009" r="743.555" gradientTransform="matrix(1 0 0 1 -197.6 -422.99)" gradientUnits="userSpaceOnUse">
	<stop  offset="0.2022" style="stop-color:#FFFFFF"/>
	<stop  offset="0.368" style="stop-color:#E4E4E4"/>
	<stop  offset="0.5944" style="stop-color:#C4C4C4"/>
	<stop  offset="1" style="stop-color:#333333"/>
</radialGradient>
<path style="fill:url(#SVGID_00000156572236131623377490000003668188056221780873_);" d="M441.02,308.74
	c-0.28,0.7-0.56,1.54-0.56,1.82C416.33,387.16,343.25,442.7,256.7,442.7c-87.25,0-160.75-56.25-184.32-133.82
	c-14.31,2.52-19.22,3.65-33.24,5.33c26.37,92.86,113.62,161.03,217.56,161.03s191.47-68.31,217.56-161.32
	C461.78,312.53,454.63,311.27,441.02,308.74z"/>
<radialGradient id="SVGID_00000078755348267964867950000017495590897218140827_" cx="395.6291" cy="779.4158" r="228.2737" gradientTransform="matrix(1 0 0 1 -197.6 -422.99)" gradientUnits="userSpaceOnUse">
	<stop  offset="0.2022" style="stop-color:#FFFFFF"/>
	<stop  offset="0.368" style="stop-color:#E4E4E4"/>
	<stop  offset="0.5944" style="stop-color:#C4C4C4"/>
	<stop  offset="1" style="stop-color:#333333"/>
</radialGradient>
<path style="fill:url(#SVGID_00000078755348267964867950000017495590897218140827_);" d="M76.59,205.5
	c5.33-2.24,10.8-5.89,18.94-8.14c24.55-63.54,87.53-108.85,161.6-108.85c73.78,0,136.77,45.03,161.32,108.29
	c0,0.28,0.28,0.56,0.28,0.56c4.35,1.54,16.69,6.45,20.48,8.14c0.56,0,1.82,0,2.81,0c0-0.28-0.28-0.56-0.28-0.7
	C419,126.53,344.65,69.16,256.84,69.16c-88.09,0-162.3,57.65-185.02,136.21C73.22,205.78,75.47,205.5,76.59,205.5z"/>
<path class="st4" d="M255.44,74.77c82.48,0,155.7,49.1,183.34,130.31c0,0.28,0.28,0.56,0.28,0.7c0.56,0,2.1,0,2.81,0
	c0-0.28-0.28-0.56-0.28-0.7C418.86,126.81,344.51,69.44,256.7,69.44c-88.09,0-162.3,57.65-185.02,136.21c1.82,0,2.52,0,4.63-0.28
	C101.14,128.49,173.52,74.77,255.44,74.77z"/>
<radialGradient id="SVGID_00000026843606120761410320000001933971648425905065_" cx="579.839" cy="1012.8332" r="433.134" gradientTransform="matrix(1 0 0 1 -197.6 -422.99)" gradientUnits="userSpaceOnUse">
	<stop  offset="0.2022" style="stop-color:#FFFFFF"/>
	<stop  offset="0.368" style="stop-color:#E4E4E4"/>
	<stop  offset="0.5944" style="stop-color:#C4C4C4"/>
	<stop  offset="1" style="stop-color:#333333"/>
</radialGradient>
<path style="fill:url(#SVGID_00000026843606120761410320000001933971648425905065_);" d="M436.53,309.02
	c-5.89,3.37-13.33,6.45-19.22,8.42c0,0.28-0.56,0.98-0.56,1.26c-25.53,61.44-87.53,104.92-160.05,104.92
	c-72.94,0-135.22-44.05-160.47-106.05c-6.87-1.82-16.83-6.45-20.76-8.42c-1.54,0-2.24,0-3.09-0.28
	C95.95,386.17,169.45,442.7,256.7,442.7c86.83,0,160.19-55.83,183.76-132.56c0-0.28,0.28-0.98,0.28-0.98
	C439.76,308.74,437.51,309.02,436.53,309.02z"/>
<radialGradient id="SVGID_00000179643902526339834300000016159847209825706137_" cx="450.169" cy="504.9419" r="344.1961" gradientTransform="matrix(1 0 0 1 -197.6 -422.99)" gradientUnits="userSpaceOnUse">
	<stop  offset="0.2022" style="stop-color:#FFFFFF"/>
	<stop  offset="0.3966" style="stop-color:#FDFDFD"/>
	<stop  offset="0.5101" style="stop-color:#F4F4F4"/>
	<stop  offset="0.6029" style="stop-color:#E6E6E6"/>
	<stop  offset="0.6839" style="stop-color:#D2D2D2"/>
	<stop  offset="0.7278" style="stop-color:#C4C4C4"/>
	<stop  offset="1" style="stop-color:#4D4D4D"/>
</radialGradient>
<path style="fill:url(#SVGID_00000179643902526339834300000016159847209825706137_);" d="M490.26,208.17
	c-12.34-1.54-20.48-1.26-50.22-2.24c-1.26,0-2.81,0-4.07-0.28c-53.72-1.82-134.38-4.35-179.97-4.35s-126.53,2.52-179.97,4.35
	c-1.26,0-2.81,0-4.07,0.28c-29.74,0.98-37.87,0.7-50.22,2.24C9.4,209.71,0,214.76,0,224.02v65.79c0,8.98,11.5,16.41,21.74,16.41
	c0,0,129.75,8,234.26,8.14c104.5,0,234.26-8.14,234.26-8.14c10.24,0,21.74-7.43,21.74-16.41v-65.79
	C512,214.76,502.46,209.71,490.26,208.17z"/>
<path class="st4" d="M436.53,309.02c-25.67,75.47-97.35,128.21-178.15,128.21c-81.92,0-154.3-48.39-182.5-128.21
	c-0.98,0-2.1,0-3.09-0.28c23.57,77.29,97.07,133.82,184.32,133.82s160.75-56.53,184.32-133.82
	C439.62,308.74,438.08,309.02,436.53,309.02z"/>
<path class="st7" d="M436.53,309.02L436.53,309.02c-6.17,3.37-13.61,6.45-19.5,8.42c0,0.28-0.56,0.98-0.56,1.26
	c-8.14,19.5-19.78,37.17-34.37,52.18C405.25,354.05,423.63,333.01,436.53,309.02z"/>
<path class="st8" d="M136.21,375.51c-17.11-16.41-30.72-36.05-39.7-58.07c-6.87-1.82-16.83-6.45-20.76-8.42
	c4.07,8.7,8.98,16.69,14.31,24.27c11.22,14.59,25.11,27.91,40.4,38.86C132.42,373.27,134.38,374.53,136.21,375.51z"/>
<path class="st9" d="M72.38,308.74L72.38,308.74L72.38,308.74c-14.31,2.52-19.22,3.65-33.24,5.33c0.98,4.07,2.24,8,3.79,12.06
	L72.38,308.74z"/>
<radialGradient id="NISSAN_00000004543074593131051810000000241412996130319252_" cx="458.144" cy="539.4146" r="231.8326" gradientTransform="matrix(1 0 0 1 -197.6 -422.99)" gradientUnits="userSpaceOnUse">
	<stop  offset="0.1111" style="stop-color:#4D4D4D"/>
	<stop  offset="0.248" style="stop-color:#494949"/>
	<stop  offset="0.3546" style="stop-color:#404040"/>
	<stop  offset="0.451" style="stop-color:#2F2F2F"/>
	<stop  offset="0.5409" style="stop-color:#181818"/>
	<stop  offset="0.6111" style="stop-color:#000000"/>
</radialGradient>
<path id="NISSAN" style="fill:url(#NISSAN_00000004543074593131051810000000241412996130319252_);" d="M359.94,237.06
	c-4.35-9.54-2.81-8.42-12.06-8.7c-0.7-0.28-2.81-0.28-5.61-0.28c-2.81,0-3.37,0-5.61,0.28c-8.7,0-7.15-0.56-10.24,5.89
	c0,0-15.15,33.81-21.46,47.83l-0.28,0.56c-1.26,2.52-0.56,2.52,1.54,2.52h13.61c0.98,0,1.54-0.56,1.82-0.98c0,0,2.1-4.35,4.63-10.24
	h32.96c2.52,5.89,4.35,9.96,4.35,10.24c0.28,0.7,0.98,0.98,1.82,0.98h14.03c2.1,0,2.52,0.28,1.82-1.54
	C378.6,277.46,362.19,242.39,359.94,237.06L359.94,237.06z M331.33,261.89c4.35-9.96,8.42-19.78,8.42-19.92
	c0.28-0.56,0.7-0.7,1.54-0.7c0.28-0.28,0.98-0.28,1.82-0.28c0.56,0,1.26,0,1.54,0.28c0.56,0,0.98,0.28,1.26,0.98
	c0.98,2.81,4.91,11.22,8.14,19.78h-22.72V261.89z M150.23,227.52c1.26,0,1.54,0.56,1.54,1.54v53.72c0,1.26-0.28,1.82-1.82,1.82
	h-13.05c-1.54,0-1.82-0.28-1.82-1.82v-53.72c0-0.98,0.28-1.54,1.26-1.54H150.23L150.23,227.52z M122.32,228.09
	c1.54,0,1.82,0.56,1.82,1.82v53.44c0,1.54-0.28,1.82-1.82,1.82h-15.29c-8.98,0-9.68,0-12.76-5.05
	c-6.17-9.68-25.11-38.72-25.11-38.72v41.94c0,1.54-0.28,1.82-1.82,1.82H56.11c-1.54,0-1.82-0.28-1.82-1.82v-53.44
	c0-1.26,0.28-1.82,1.82-1.82c0,0,3.09,0,13.05,0c9.68,0,10.94-0.28,14.59,4.91c2.81,4.63,25.67,39.7,25.67,39.7v-42.78
	c0-1.26,0.28-1.82,1.82-1.82H122.32L122.32,228.09z M457.71,228.09c1.54,0,1.82,0.56,1.82,1.82v53.44c0,1.54-0.28,1.82-1.82,1.82
	h-15.43c-8.98,0-9.68,0-12.76-5.05c-6.45-9.68-25.11-38.72-25.11-38.72v41.94c0,1.54-0.28,1.82-1.82,1.82h-11.22
	c-1.54,0-1.82-0.28-1.82-1.82v-53.44c0-1.26,0.28-1.82,1.82-1.82c0,0,3.09,0,13.05,0c9.68,0,10.94-0.28,14.59,4.91
	c3.09,4.63,25.67,39.7,25.67,39.7v-42.78c0-1.26,0.28-1.82,1.82-1.82H457.71L457.71,228.09z M207.89,249.83
	c9.96,0.98,17.39,2.81,19.5,12.34c0,0.7,0.28,3.37,0.28,6.17c0,1.82,0,4.07-0.56,6.17c-1.82,8.98-8.42,10.8-19.22,10.8h-42.22
	c-1.54,0-1.82-0.28-1.82-1.82v-8.98c0-1.54,0.28-1.82,1.82-1.82c0,0,41.94,0,42.78,0c1.82,0,2.24-0.56,2.52-1.82
	c0-0.98,0-1.54,0-2.24c0-0.7,0-1.26,0-1.54c-0.28-0.98-0.56-2.52-2.81-2.81c-4.91-0.28-18.94-1.54-28.48-2.52
	c-12.34-1.26-15.29-6.45-15.85-10.94c-0.28-1.54-0.28-3.65-0.28-5.33c0-1.54,0-3.79,0.28-5.61c1.82-8,7.72-11.78,18.38-11.78h40.96
	c1.54,0,2.1,0.28,2.1,1.54v9.26c0,1.26-0.56,1.82-2.1,1.54c0,0-39.14,0-40.26,0c-1.82,0-2.52,0.7-2.81,2.52c0,0.28,0,0.56,0,0.98
	c0,0.56,0,0.7,0,1.26c0,1.26,0.7,2.24,2.52,2.52C187.41,248.28,202.28,249.41,207.89,249.83L207.89,249.83z M280.27,249.83
	c9.96,0.98,17.39,2.81,19.5,12.34c0,0.7,0.28,3.37,0.28,6.17c0,1.82,0,4.07-0.56,6.17c-1.82,8.98-8.42,10.8-19.22,10.8h-41.94
	c-1.54,0-1.82-0.28-1.82-1.82v-8.98c0-1.54,0.28-1.82,1.82-1.82c0,0,41.94,0,42.78,0c1.82,0,2.24-0.56,2.52-1.82
	c0-0.98,0-1.54,0-2.24c0-0.7,0-1.26,0-1.54c-0.28-0.98-0.7-2.52-2.81-2.81c-4.91-0.28-18.94-1.54-28.48-2.52
	c-12.34-1.26-15.15-6.45-15.85-10.94c-0.28-1.54-0.28-3.65-0.28-5.33c0-1.54,0-3.79,0.28-5.61c1.82-8,7.72-11.78,18.38-11.78h40.96
	c1.54,0,2.1,0.28,2.1,1.54v9.26c0,1.26-0.56,1.82-2.1,1.54c0,0-39.14,0-40.26,0c-1.82,0-2.52,0.7-2.81,2.52c0,0.28,0,0.56,0,0.98
	c0,0.56,0,0.7,0,1.26c0,1.26,0.56,2.24,2.52,2.52C260.07,248.28,274.94,249.41,280.27,249.83L280.27,249.83z"/>
</svg>
