<?xml version="1.0" encoding="utf-8"?>
<!-- Generator: Adobe Illustrator 26.5.0, SVG Export Plug-In . SVG Version: 6.00 Build 0)  -->
<svg version="1.1" id="Layer_1" xmlns="http://www.w3.org/2000/svg" xmlns:xlink="http://www.w3.org/1999/xlink" x="0px" y="0px"
	 viewBox="0 0 512 512" style="enable-background:new 0 0 512 512;" xml:space="preserve">
<style type="text/css">
	.st0{fill:#FFFFFF;}
	.st1{clip-path:url(#SVGID_00000161597821342839339280000005119448246396565433_);fill:#FFFFFF;}
	.st2{clip-path:url(#SVGID_00000071549697864641180700000010152280912558580139_);}
	.st3{fill-rule:evenodd;clip-rule:evenodd;fill:#FFFFFF;}
</style>
<g>
	<path class="st0" d="M22.75,100.06c0,0.8,0,1.61,0,2.4V100.06"/>
	<g>
		<g>
			<defs>
				<polyline id="SVGID_1_" points="22.75,0 489.25,0 489.25,512 22.75,512 22.75,0 				"/>
			</defs>
			<clipPath id="SVGID_00000073680131601937028440000000773531821870849950_">
				<use xlink:href="#SVGID_1_"  style="overflow:visible;"/>
			</clipPath>
			<path style="clip-path:url(#SVGID_00000073680131601937028440000000773531821870849950_);fill:#FFFFFF;" d="M256,512L256,512
				 M489.25,97.53v7.39C489.25,102.49,489.25,100.03,489.25,97.53 M256,0c-0.58,0-1.15,0-1.73,0h3.46C257.15,0,256.58,0,256,0"/>
		</g>
		<g>
			<defs>
				<polyline id="SVGID_00000134227947896165193440000013099191600831876284_" points="22.75,0 489.25,0 489.25,512 22.75,512 
					22.75,0 				"/>
			</defs>
			<clipPath id="SVGID_00000089549619965744896790000014113093107069386935_">
				<use xlink:href="#SVGID_00000134227947896165193440000013099191600831876284_"  style="overflow:visible;"/>
			</clipPath>
			<path style="clip-path:url(#SVGID_00000089549619965744896790000014113093107069386935_);" d="M257.73,0h-3.46
				c-69.4,0.1-139.95,6.05-209.7,17.69l-19.98,3.35l-0.7,20.25c-0.75,21.66-1.13,41.17-1.15,58.77v2.4
				c0.02,17.47,0.4,33.02,1.15,46.9c4.83,88.85,24.57,158.05,62.12,217.8c37.65,59.92,94.3,109.64,159.52,139.98L256,512l10.44-4.85
				c65.22-30.34,121.89-80.06,159.52-139.98c37.56-59.75,57.29-128.95,62.12-217.8c0.72-13.22,1.11-27.96,1.16-44.44v-7.39
				c-0.05-16.93-0.43-35.61-1.15-56.24l-0.7-20.25L467.4,17.7C397.67,6.05,327.13,0.1,257.73,0"/>
		</g>
	</g>
	<path class="st3" d="M256,14.6c70.53,0,143.73,6,218.04,18.78c1.11,29.68,2.37,75.56,0.25,114.5
		c-4.73,86.8-23.91,154.18-60.36,212.03C377.61,417.6,321.34,467.2,256,496.66C190.66,467.2,134.39,417.6,98.06,359.91
		C61.61,302.05,42.43,234.68,37.7,147.87c-2.12-38.93-0.86-84.81,0.25-114.5C112.26,20.6,185.47,14.6,256,14.6z M256,22.96
		c-69.53,0-140.12,5.89-209.91,17.52c-1.53,44.03-1.53,79.07-0.01,106.94c4.64,85.32,23.42,151.43,59.08,208.04
		c35.65,56.6,89.11,103.35,150.85,132c61.72-28.64,115.19-75.4,150.84-132c35.66-56.6,54.43-122.71,59.08-208.04
		c1.52-27.87,1.52-62.91-0.01-106.94C396.12,28.85,325.53,22.96,256,22.96z M255.39,276.44c0,0,1.38,8.12,1.79,10.48
		c0.23,1.33,0.28,1.69-0.06,3c-1.1,4.21-6.17,26.42-10.22,49.15l-0.63,3.59c-1.66,9.57-3.09,19.08-3.92,27.21
		c-0.47,4.62-0.32,5.73,0.9,9.83c3.47,11.58,16.29,41.84,18.75,47.36c0.27,0.61,0.44,1.25,0.52,1.91l0.93,7.13
		c-4.11-6.19-26.43-47.11-35.2-69.78c-1.04-2.67-1.24-3.99-0.09-8.89C234.26,331.4,250.76,287.15,255.39,276.44z M222.83,213.54
		c0,0,1.71,5.54,3.37,11.56l0.58,2.13c1.04,3.92,1.98,7.79,2.32,10.24c0.32,2.36,0.27,2.99-0.57,5.25c-2.04,5.41-5.79,14.11-9.79,23
		l-1.72,3.82c-4.91,10.79-9.88,21.21-12.29,25.73c-1.19,2.22-2.31,3.67-4.55,5.94c-5.11,5.18-14.89,14.99-20.94,20.47
		c-2.2,2-2.79,3.7-3.24,6.28c-0.72,4.14-1.44,11.21-1.63,14.87c-0.18,3.21,0.35,4.71,2.14,7.89c10.67,18.98,46.29,62.65,56.44,71.83
		c0.74,0.66,1.27,1.11,2.82,2.14c1.49,0.99,6.36,4.14,6.36,4.14l0.48,0.52l1.76,3.09c0,0-0.16-0.08-0.46-0.23l-0.76-0.38
		c-0.61-0.3-1.42-0.7-2.35-1.17l-2.26-1.13c-3.47-1.74-7.6-3.82-9.77-4.99c-0.9-0.48-1.74-1.05-2.52-1.7
		c-11.88-9.84-48.3-52.35-59.01-70.1c-2.67-4.43-2.94-5.86-2.59-10.06c0.67-7.81,1.71-17.62,2.62-21.93
		c0.55-2.6,1.12-4.12,3.12-6.41c6.7-7.7,14.88-17.86,22.85-28.28l2.8-3.69c12.07-15.99,23.2-32,27.35-40.15
		c0.95-1.85,1.03-2.5,1.05-4.25c0.05-5.08-1.57-14.98-2-17.48c-0.07-0.39-0.08-0.79-0.05-1.18L222.83,213.54z M322.23,204l3.08,1.33
		c0.91,0.39,1.74,0.97,2.43,1.68c18.88,19.65,33.97,40.03,37,45.4c0.58,1.03,0.98,2.06,1.12,3.24c3.39,28.66,0.48,59.02-6.45,85.43
		c-0.63,2.38-1.33,3.6-3.62,5.33c-7.4,5.55-18.44,14.4-29.42,23.42l-3.46,2.85c-13.23,10.92-25.8,21.62-31.13,26.54
		c-1.34,1.24-2.51,2.64-3.46,4.19c-2.5,4.05-6.32,11.03-8.19,14.49l-0.52,0.97c-0.38,0.7-0.6,1.1-0.6,1.1
		c-2.49-5.41-7.91-18.62-9.77-23.96c-0.61-1.74-0.71-2.65-0.08-4.99c3.04-11.07,17.38-43.26,20.17-49.08l0.01,2.38
		c0,0.35-0.06,0.69-0.17,1.02c-1.26,3.81-8.97,29.17-10.53,40.18c-0.35,2.45-0.32,3.11,0,5.51c0.68,5.14,3.76,14.55,3.76,14.55
		s1.83-3.8,3.53-6.37c0.83-1.26,1.34-1.86,2.7-3.21c6.89-6.8,18.66-17.32,30.91-27.89l4.34-3.73c9.41-8.06,18.81-15.9,26.23-21.89
		c1.93-1.56,2.65-2.6,3.08-5.56c2.13-14.57,2.74-40.72,1.46-59.76c-0.24-3.59-1.41-7.07-3.44-10.05
		c-4.66-6.86-10.22-13.36-18.66-21.7c-1.2-1.2-2.02-2.72-2.33-4.39C327.73,227.96,322.23,204,322.23,204z M162.58,234.31
		c1.18-0.38,2.42-0.42,3.62-0.14c5.38,1.29,16.77,4.07,25.38,6.27c1.21,0.31,2.71,1.43,3.36,2.5l1.88,3.11
		c0.66,1.09,0.7,2.43,0.12,3.56c-1.57,3.03-3.8,7.12-6.16,11.35l-1.79,3.18c-3.29,5.82-6.56,11.43-8.42,14.38
		c-1.22,1.95-1.9,2.82-4.08,3.58c-8.47,2.97-18.99,6.52-25.25,8.55c-1.28,0.41-1.71,1.18-1.46,2.6c0.45,2.58,1.89,11.32,2.44,13.87
		c0.21,0.94,0.96,1.69,2.36,1.42c3.7-0.7,13.54-3.1,13.54-3.1s-2.9,2.68-4.64,4.26c-0.32,0.3-0.68,0.52-1.1,0.65
		c-2.68,0.89-9.23,2.73-11.27,3.17c-1.59,0.34-2.61-0.28-3.01-2.08c0,0-2.79-11.85-3.8-15.88c-0.16-0.61-0.32-1.14-0.51-1.75
		c-0.76-2.33-2.57-6.92-3.6-9.32c-0.12-0.28-0.18-0.57-0.18-0.88c0.03-2.74,0.54-8.87,0.54-8.87s6.02,5.63,8.94,7.67
		c0.65,0.46,1.05,0.55,1.85,0.35c4-1.03,13.21-4.07,18.27-5.95c1.15-0.43,2.16-1.15,2.95-2.1c5.23-6.3,11.78-16.09,15.57-23.48
		c0.52-1.02,0.62-2.18,0.29-3.27l-0.82-2.68c-0.24-0.79-1.07-1.67-1.83-1.96c-8.91-3.38-15.93-5.89-24.19-8.69L162.58,234.31z
		 M338.79,158.04c1.96-0.72,4.11-0.67,6.04,0.14c14.93,6.25,40.04,20.96,54,31.32c1.35,1,1.89,1.69,2.24,3.31
		c3.28,14.87,4.52,37.85,2.46,57.2c-0.15,1.39-0.43,2.23-1.15,3.71c-8.84,18.04-18.8,35.02-29.27,48.11l0.02-0.21
		c0.14-1.4,0.89-9.26,0.93-13.51c0.01-0.48,0.23-0.92,0.61-1.21c1.94-1.51,4.62-3.65,6.13-4.96c0.74-0.64,1.15-1.11,1.53-1.73
		c4.27-6.88,11.9-21.28,14.97-29.94c0.75-2.11,1.05-4.35,0.87-6.59c-0.99-12.07-2.89-28.8-5.71-39.72
		c-0.48-1.86-1.72-3.43-3.43-4.31c-2.44-1.25-7.23-3.43-18.14-7.79c-1.51-0.6-2.92-1.44-4.17-2.49
		c-7.15-5.99-18.33-14.98-25.29-20.15c-2.04-1.51-4.63-2.06-7.11-1.5c-5.07,1.15-11.52,2.74-15.15,3.73
		c-1.23,0.33-1.72,0.36-2.99,0.21c-0.66-0.08-1.52-0.16-2.42-0.24l-1.37-0.12c-1.58-0.13-3.07-0.25-3.65-0.29l-0.26-0.02
		C320.27,165.42,331.66,160.64,338.79,158.04z M180.89,255.63c-3.7,6.07-8.12,12.52-11.47,16.55c-0.44,0.53-1.02,0.93-1.68,1.18
		c-3.66,1.36-9.75,3.42-14.24,4.78L180.89,255.63z M131.98,247.66l-2.18,15.03l-7.43-8.69
		C123.72,251.07,127.67,248.31,131.98,247.66z M171.98,162.55l-2.03,2.49l-0.34,0.33c-1.79,1.32-9.3,7.06-11.34,8.66
		c-0.58,0.46-0.81,0.85-0.94,1.57c-0.46,2.54-1.22,7.37-1.44,10.04c-0.07,0.78-0.4,1.17-1.21,1.49c-3.49,1.41-7.62,2.9-10.96,4.24
		c-0.71,0.28-0.91,0.39-1.34,0.72c-0.33,0.26-4.77,4.21-4.77,4.21s9.65-2.37,13.2-3.17c0.85-0.19,1.21-0.14,1.99,0.23
		c0.73,0.34,1.95,0.82,2.59,1.05c0.99,0.36,1.51,0.35,2.6,0.11c3.99-0.89,10.7-2.48,14.27-3.4c1.85-0.48,2.87-0.98,4.44-2.08
		c1.71-1.19,6.04-4.43,6.04-4.43s-0.08,0.57-0.14,0.89c-0.05,0.27-0.15,0.43-0.32,0.64c-0.88,1.06-2.42,2.78-3.19,3.57
		c-1.76,1.81-2.8,2.46-5.01,3.38c-10.15,4.22-27.49,10.77-40.5,15.26c-0.85,0.3-1.22,0.54-1.85,1.18c-0.69,0.69-1.6,1.71-1.6,1.71
		s10.6,0.77,13.84,1.14c1.05,0.12,1.8,0.46,2.6,1.15c2.66,2.29,11.47,11.33,14.11,14.47c0,0-25.05,4.15-36.65,7.03
		c-1.43,0.35-2.15,1.26-2.47,2.41c-0.96,3.36-3.22,14.18-3.22,14.18s-0.81-0.26-1.93-0.9c-0.77-0.44-1.17-0.81-2.01-1.7
		c-2.74-2.89-7.26-8.43-9.43-11.64c-0.64-0.95-0.9-2.15-0.11-3.12c2.35-2.89,7.08-8.16,9.68-10.87c0.28-0.29,0.63-0.81,1-1.54
		c0.88-1.74,2.03-6.14,2.43-7.73l0.13-0.51l0.02-0.07l-0.07,0.04l-0.48,0.3c-0.64,0.4-1.69,1.06-2.13,1.34
		c-0.67,0.43-0.85,0.61-1.13,1.2c-0.42,0.88-1.16,2.28-1.72,3.24c-0.19,0.32-0.68,0.81-0.94,1.01c-3.33,2.53-7,5.26-9.62,7.1
		l-0.56-0.08c-0.33-0.33-1.73-1.91-1.98-2.29c-0.21-0.31-0.31-0.61-0.31-0.98c-0.01-0.66,0.06-1.82,0.12-2.68
		c0.08-1.02,0.37-1.51,1.62-2.8c1.4-1.44,2.92-2.96,4.52-4.52c3.92-3.29,13.83-11.31,31.53-23.91c0.33-0.24,0.64-0.52,0.88-0.85
		c1.86-2.5,7.14-9.33,8.44-10.95c0.19-0.23,0.39-0.44,0.62-0.62c2.08-1.64,3.11-2.35,5.23-3.68
		C157.09,171.3,166.63,165.65,171.98,162.55z M279.83,156.96c0.74-0.13,1.5-0.02,2.18,0.3l5.17,2.47c0.51,0.24,0.88,0.71,1.02,1.26
		c0.7,2.95,1.56,6.85,2.14,10.17c0.23,1.38-0.02,2.79-0.73,4c-2.14,3.71-6.53,10.38-8.99,13.96c-0.55,0.8-0.61,1.78-0.44,2.74
		c1.11,6.14,5.76,27.6,5.76,27.6l-2.92-2.65c-0.58-0.54-0.96-1.1-1.21-1.84c-2.08-6.07-5.97-18.75-7.76-24.92
		c-0.29-1.02-0.07-2.1,0.6-2.91c3.05-3.69,7.49-9.6,10.09-13.34c0.73-1.05,0.96-2.21,0.54-3.08c-0.6-1.22-1.6-3.08-2.57-4.76
		c-0.26-0.47-0.69-0.81-1.2-0.98l-3.51-1.12c-0.61-0.19-1.27-0.18-1.88,0.04c-7.64,2.76-17.92,6.75-24.21,9.35
		c-0.92,0.38-1.3,0.41-2.41,0.24c-1.82-0.27-7.12-1.21-9.72-1.7c-0.47-0.09-0.7-0.62-0.46-1.03l3.08-5.33
		c0.42-0.72,1.11-1.23,1.93-1.41C254.24,161.75,267.36,159.16,279.83,156.96z M170.07,181.44c0.47-0.04,0.92,0.22,1.1,0.65
		c0.62,1.44,0.45,3.06-0.15,4.44c-0.24,0.56-0.96,1.11-1.55,1.24l-4.95,1.1c-0.3,0.06-0.57-0.17-0.55-0.48l0.46-5.8
		c0.04-0.39,0.34-0.7,0.74-0.73L170.07,181.44z M226.39,144.2c0.57-0.01,0.93,0.61,0.65,1.1l-12.07,20.73
		c-0.67,1.22-1.79,2.13-3.13,2.53l-22.63,7.06c-2.63,0.79-4.85,1.22-7.58,1.43c-5.02,0.38-19.93,0.84-19.93,0.84l0.33-0.71
		c0.15-0.33,0.43-0.6,0.77-0.74l7.05-2.99c0.53-0.22,0.99-0.57,1.34-1.01l10.89-13.38c0.58-0.71,1.35-1.4,2.15-1.83
		c7.2-3.78,20-9.45,28.96-12.44c0.84-0.28,1.98-0.46,2.87-0.47L226.39,144.2z M214.29,120.12c24.97-2.19,58.76-2.78,91.04-0.35
		c1.84,0.14,3.62,0.57,5.32,1.29c10.58,4.44,29.34,14.14,50.2,26.05c0.92,0.53,1.79,1.14,2.58,1.84
		c5.53,4.86,19.53,19.15,19.53,19.15l-4.37-0.86c-0.61-0.12-1.18-0.36-1.7-0.71c-8.83-5.92-21.73-13.63-32.54-19.06
		c-1.28-0.64-2.67-1.05-4.1-1.2c-5.26-0.56-12.37-1.05-17.02-1.24c-2.29-0.09-3.86-0.48-6.1-1.61c-4.29-2.17-14.67-6.87-19.85-8.84
		c-2.21-0.84-3.34-1.04-5.51-1.01c-8.89,0.13-29.14,0.77-39.48,1.41c-0.36,0.02-0.7,0.01-1.05-0.05l-4.93-0.77
		c13.98-2.4,48.53-5.47,62.83-6.22l-5.82-1.94c-1.12-0.37-2.29-0.57-3.48-0.6c-3.1-0.07-10.01-0.21-18.97-0.22h-3.06
		c-13.57,0.03-31.04,0.36-47.15,1.57c-1.41,0.1-2.78,0.44-4.07,1.01c-6.51,2.85-22.37,11.43-38.29,20.25l-3.53,1.96
		c-4.11,2.29-8.18,4.56-12.05,6.73c0,0,1.99-2.55,2.37-3.04c0.34-0.43,0.44-0.51,0.9-0.81c0.64-0.42,2.82-1.85,5.02-3.31l1.63-1.08
		c1.32-0.88,2.5-1.67,3.17-2.12c0.33-0.22,0.54-0.38,0.95-0.69c4.79-3.6,12.35-9.95,16.86-13.89c1.02-0.89,1.89-1.92,2.6-3.07
		c1.46-2.35,3.05-4.9,4.03-6.32C211.08,121.14,212.51,120.28,214.29,120.12z M107.94,62.88c6.17-0.63,9.61,1.76,9.61,7.98v3.44
		c0,6.37-3.45,8.95-9.61,9.59c-8.53,0.89-17.06,1.85-25.58,2.89v9.41c-1.79,0.22-3.58,0.44-5.36,0.67V66.45
		C87.3,65.15,97.62,63.96,107.94,62.88z M394.24,61.9c13.6,1.32,27.19,2.84,40.76,4.55v4.91c-5.86-0.74-11.74-1.44-17.62-2.11v25.52
		c-1.78-0.2-3.57-0.4-5.37-0.6V68.64c-5.91-0.65-11.84-1.26-17.77-1.84L394.24,61.9L394.24,61.9z M168.3,57.9v4.9
		c-11.19,0.69-22.37,1.51-33.54,2.46v7.49c9.94-0.85,19.88-1.59,29.83-2.22v4.91c-9.95,0.64-19.89,1.38-29.83,2.22v8.22
		c11.17-0.95,22.35-1.77,33.54-2.46v4.9c-12.94,0.79-25.87,1.77-38.79,2.91V60.81C142.43,59.66,155.36,58.69,168.3,57.9z
		 M342.31,66.23c0-6.82,3.39-8.23,11.04-7.71c6.71,0.46,13.42,0.96,20.13,1.52c6.64,0.55,11.02,2.41,11.02,9.37V83
		c0,6.83-3.79,8.06-11.02,7.47c-6.71-0.55-13.42-1.06-20.13-1.51c-7.31-0.49-11.04-1.9-11.04-9.13V66.23z M290.28,55.62
		c12.95,0.31,25.9,0.79,38.85,1.46v4.9c-11.19-0.57-22.39-1.01-33.59-1.32v7.49c9.96,0.28,19.92,0.65,29.88,1.14v4.91
		c-9.95-0.48-19.91-0.86-29.88-1.14v8.22c11.2,0.31,22.4,0.75,33.59,1.32v4.9c-12.95-0.66-25.9-1.15-38.85-1.46V55.62z
		 M222.87,55.59V77.6c0,6.96-3.66,8.49-11.05,8.72c-6.43,0.2-12.86,0.44-19.3,0.72c-6.85,0.31-11.04-0.99-11.04-7.89v-22l5.25-0.27
		v22.94c0,1.39,1.2,2.53,2.79,2.46c8.43-0.39,16.86-0.71,25.29-0.95c1.6-0.04,2.66-1.26,2.66-2.66V55.73
		C219.28,55.68,221.07,55.63,222.87,55.59z M350.36,63.23c-1.6-0.11-2.79,1.01-2.79,2.6v15.05c0,1.39,1.2,2.86,2.79,2.97
		c8.71,0.57,17.41,1.23,26.11,1.96c1.39,0.12,2.79-1.16,2.79-2.55V68.21c0-1.59-1.39-2.9-2.79-3.02
		C367.77,64.46,359.07,63.8,350.36,63.23z M246.1,55.24c9.65-0.07,19.31-0.03,28.96,0.09v4.9c-10.32-0.13-20.64-0.16-30.96-0.08
		c-1.4,0.01-2.79,1.22-2.79,2.62v15.24c0,1.39,1.4,2.77,2.79,2.76c9.26-0.08,18.51-0.07,27.77,0.04V72.6
		c-5.37-0.06-10.74-0.09-16.11-0.08v-4.91c7.12,0,14.25,0.05,21.37,0.16V85.8c-10.01-0.15-20.02-0.19-30.03-0.13
		c-7.33,0.05-11.05-1.21-11.05-8.31V64.1C236.05,57.47,239.38,55.29,246.1,55.24z M109.95,67.62l-0.42,0.01
		c-9.06,0.93-18.12,1.95-27.17,3.06v11.2c9.05-1.1,18.11-2.12,27.17-3.05c1.39-0.15,2.78-1.41,2.78-2.74v-6.16
		c0-1.39-1.39-2.45-2.78-2.3L109.95,67.62z"/>
</g>
</svg>
