<?xml version="1.0" encoding="utf-8"?>
<!-- Generator: Adobe Illustrator 27.0.0, SVG Export Plug-In . SVG Version: 6.00 Build 0)  -->
<svg version="1.1" id="Ñëîé_1" xmlns="http://www.w3.org/2000/svg" xmlns:xlink="http://www.w3.org/1999/xlink" x="0px" y="0px"
	 viewBox="0 0 512 512" style="enable-background:new 0 0 512 512;" xml:space="preserve">
<style type="text/css">
	.st0{fill:#E31937;}
	.st1{fill:#FFFFFF;}
</style>
<g id="XMLID_1_">
	<rect id="XMLID_2_" class="st0" width="512" height="512"/>
</g>
<g id="XMLID_3_">
	<g id="TESLA">
		<g id="XMLID_5_">
			<polyline id="XMLID_11_" class="st1" points="356.97,417.89 356.97,440.32 364.13,440.32 364.13,425.37 390.35,425.37 
				390.35,440.32 397.52,440.32 397.52,417.89 356.97,417.89 			"/>
			<path id="XMLID_10_" class="st1" d="M363.42,410.62h27.65c3.79-0.72,6.66-4.2,7.48-7.48h-42.6
				C356.66,406.43,359.53,409.8,363.42,410.62"/>
		</g>
		<g id="XMLID_6_">
			<path id="XMLID_9_" class="st1" d="M335.26,440.32c3.58-1.54,5.53-4.2,6.35-7.27h-32.26v-29.8h-7.27v37.07H335.26"/>
		</g>
		<g id="XMLID_7_">
			<path id="XMLID_8_" class="st1" d="M248.32,410.52h25.5c3.89-1.13,7.07-4.1,7.88-7.27h-40.55v21.91h33.28v7.68h-26.01
				c-4.1,1.13-7.58,3.89-9.22,7.48h2.15h40.35v-22.53h-33.18L248.32,410.52"/>
		</g>
		<g id="XMLID_12_">
			<path id="XMLID_13_" class="st1" d="M185.34,410.62h27.65c3.89-0.72,6.66-4.2,7.48-7.48h-42.6
				C178.69,406.43,181.56,409.8,185.34,410.62"/>
			<path id="XMLID_14_" class="st1" d="M185.34,425.27h27.65c3.89-0.72,6.66-4.1,7.48-7.48h-42.6
				C178.69,421.07,181.56,424.45,185.34,425.27"/>
			<path id="XMLID_15_" class="st1" d="M185.34,440.32h27.65c3.89-0.72,6.66-4.2,7.48-7.48h-42.6
				C178.69,436.12,181.56,439.5,185.34,440.32"/>
		</g>
		<g id="XMLID_16_">
			<path id="XMLID_17_" class="st1" d="M113.46,403.25c0.82,3.28,3.58,6.55,7.48,7.37h11.67l0.61,0.2v29.39h7.27v-29.39l0.61-0.2
				h11.67c3.89-1.02,6.66-4.1,7.48-7.37v-0.1L113.46,403.25L113.46,403.25"/>
		</g>
	</g>
	<g id="T">
		<path id="XMLID_18_" class="st1" d="M261.43,329.93l36.25-204.08c34.61,0,45.47,3.79,47.1,19.25c0,0,23.24-8.6,34.92-26.21
			c-45.67-21.2-91.55-22.12-91.55-22.12l-26.73,32.56h0.1L234.8,96.77c0,0-45.88,0.92-91.55,22.12
			c11.67,17.61,34.92,26.21,34.92,26.21c1.54-15.46,12.49-19.25,46.8-19.25L261.43,329.93"/>
		<path id="XMLID_19_" class="st1" d="M261.43,87.35c36.86-0.31,79.16,5.73,122.37,24.58c5.73-10.44,7.27-15.05,7.27-15.05
			c-47.31-18.64-91.55-24.99-129.64-25.19c-38.09,0.2-82.43,6.55-129.64,25.29c0,0,2.15,5.63,7.27,15.05
			C182.17,93.08,224.46,87.14,261.43,87.35L261.43,87.35"/>
	</g>
</g>
</svg>
