<?xml version="1.0" standalone="no"?>
<!DOCTYPE svg PUBLIC "-//W3C//DTD SVG 20010904//EN"
 "http://www.w3.org/TR/2001/REC-SVG-20010904/DTD/svg10.dtd">
<svg version="1.0" xmlns="http://www.w3.org/2000/svg"
 width="640.000000pt" height="660.000000pt" viewBox="0 0 640.000000 660.000000"
 preserveAspectRatio="xMidYMid meet">

<g transform="translate(0.000000,660.000000) scale(0.100000,-0.100000)"
fill="#000000" stroke="none">
<path d="M637 6467 c-8 -22 0 -47 83 -242 39 -93 103 -246 142 -340 178 -433
742 -1672 1036 -2275 411 -846 614 -1224 812 -1520 175 -261 329 -418 449
-458 118 -41 326 145 554 493 316 485 832 1529 1559 3155 148 330 472 1097
484 1145 11 43 -23 30 -82 -32 -70 -73 -169 -218 -272 -399 -118 -205 -822
-1586 -815 -1597 3 -6 2 -7 -4 -4 -5 3 -19 -15 -31 -41 -13 -26 -16 -38 -7
-28 8 11 15 24 15 30 0 5 3 7 6 3 10 -10 -550 -1109 -758 -1489 -38 -69 -78
-150 -88 -179 -11 -29 -33 -66 -48 -83 -16 -17 -64 -85 -107 -151 -141 -218
-293 -404 -359 -439 l-37 -20 -45 45 c-180 174 -403 523 -744 1164 -175 329
-967 1925 -955 1925 2 0 38 -66 80 -147 155 -295 277 -523 281 -523 5 0 5 1
-181 360 -78 151 -193 374 -255 495 -336 656 -379 734 -502 917 -96 142 -201
260 -211 235z m5043 -117 c0 -22 -283 -706 -395 -955 -619 -1375 -913 -1999
-1194 -2529 -293 -551 -485 -850 -661 -1027 -128 -128 -251 -182 -134 -58 254
270 516 727 1219 2129 362 722 867 1797 981 2090 77 197 96 239 137 308 30 49
47 65 47 42z m-2446 -4403 c-21 -148 -44 -154 -60 -16 l-6 55 36 1 36 1 -6
-41z"/>
<path d="M5549 6393 c-13 -16 -12 -17 4 -4 9 7 17 15 17 17 0 8 -8 3 -21 -13z"/>
<path d="M1035 6228 c4 -13 35 -70 69 -128 35 -58 154 -274 266 -480 257 -474
329 -606 417 -755 38 -66 139 -244 223 -395 307 -551 640 -1116 783 -1330 96
-144 191 -265 266 -343 111 -115 106 -116 110 16 1 62 4 113 6 115 2 2 15 -16
29 -40 16 -28 27 -66 32 -110 6 -65 6 -66 -22 -82 l-29 -15 28 -1 c57 0 237
207 415 476 254 385 755 1261 1282 2239 175 325 348 642 384 704 96 166 89
194 -21 89 -69 -66 -145 -162 -230 -288 -128 -191 -736 -1198 -815 -1349 -27
-53 -74 -139 -104 -192 -30 -52 -61 -118 -69 -145 -8 -29 -28 -62 -46 -79 -17
-17 -80 -107 -140 -201 -139 -220 -221 -341 -328 -483 -89 -120 -254 -294
-308 -326 -38 -22 -53 -59 -53 -128 0 -57 -9 -53 -34 15 -20 54 -37 77 -170
230 -227 261 -448 612 -1056 1673 -210 367 -196 343 -182 330 6 -5 117 -183
247 -395 130 -212 242 -389 248 -395 6 -5 4 1 -5 15 -8 14 -94 156 -190 315
-407 676 -651 1070 -748 1207 -112 160 -278 313 -255 236z"/>
<path d="M5141 6183 c-92 -93 -208 -251 -626 -858 -754 -1094 -950 -1361
-1174 -1597 -86 -91 -101 -118 -65 -118 16 0 19 -16 4 -25 -5 -3 -10 -13 -10
-21 0 -13 8 -14 43 -9 107 18 210 116 369 350 88 128 389 605 538 850 439 723
811 1289 937 1425 36 39 62 70 58 70 -4 0 -37 -30 -74 -67z"/>
<path d="M1310 6116 c0 -2 8 -10 18 -17 15 -13 16 -12 3 4 -13 16 -21 21 -21
13z"/>
<path d="M1393 6008 c29 -40 96 -136 149 -213 53 -77 109 -153 123 -170 39
-44 -156 243 -242 358 -41 53 -76 97 -79 97 -3 0 19 -33 49 -72z"/>
<path d="M5280 6010 c-6 -11 -8 -20 -6 -20 3 0 10 9 16 20 6 11 8 20 6 20 -3
0 -10 -9 -16 -20z"/>
<path d="M5217 5898 c-19 -35 -121 -223 -227 -418 -588 -1084 -975 -1770
-1235 -2185 -76 -121 -151 -239 -167 -263 -16 -23 -45 -88 -65 -145 -31 -91
-34 -109 -28 -167 3 -36 7 -73 8 -82 2 -25 19 -17 46 22 14 19 52 71 86 115
96 127 253 418 310 577 68 189 204 476 388 818 137 256 344 655 522 1005 165
326 246 482 352 683 59 111 66 141 10 40z"/>
<path d="M2250 4420 c6 -11 13 -20 16 -20 2 0 0 9 -6 20 -6 11 -13 20 -16 20
-2 0 0 -9 6 -20z"/>
<path d="M1840 4350 c17 -33 33 -60 35 -60 3 0 -8 27 -25 60 -17 33 -33 60
-35 60 -3 0 8 -27 25 -60z"/>
<path d="M2300 4340 c6 -11 13 -20 16 -20 2 0 0 9 -6 20 -6 11 -13 20 -16 20
-2 0 0 -9 6 -20z"/>
<path d="M1951 4138 c88 -174 446 -862 547 -1048 235 -435 408 -717 545 -886
82 -101 121 -134 155 -133 l27 2 -28 4 c-62 10 -202 217 -604 893 -124 209
-491 886 -632 1168 -23 45 -43 82 -46 82 -3 0 13 -37 36 -82z"/>
<path d="M4305 3880 c-9 -16 -13 -30 -11 -30 3 0 12 14 21 30 9 17 13 30 11
30 -3 0 -12 -13 -21 -30z"/>
<path d="M4165 3618 c-94 -175 -258 -466 -361 -640 -77 -130 -127 -228 -120
-235 13 -14 193 306 510 910 37 70 65 127 62 127 -2 0 -43 -73 -91 -162z"/>
<path d="M2900 3426 c0 -2 8 -10 18 -17 15 -13 16 -12 3 4 -13 16 -21 21 -21
13z"/>
<path d="M2950 3366 c0 -2 8 -10 18 -17 15 -13 16 -12 3 4 -13 16 -21 21 -21
13z"/>
<path d="M2840 3020 c83 -123 201 -262 268 -316 30 -24 17 -8 -35 44 -45 45
-116 128 -158 184 -80 107 -115 148 -75 88z"/>
<path d="M3489 2933 c-13 -16 -12 -17 4 -4 16 13 21 21 13 21 -2 0 -10 -8 -17
-17z"/>
<path d="M3459 2893 c-13 -16 -12 -17 4 -4 16 13 21 21 13 21 -2 0 -10 -8 -17
-17z"/>
<path d="M3419 2843 l-24 -28 28 24 c25 23 32 31 24 31 -2 0 -14 -12 -28 -27z"/>
<path d="M3344 2758 l-19 -23 23 19 c21 18 27 26 19 26 -2 0 -12 -10 -23 -22z"/>
<path d="M3573 2582 c-16 -20 -67 -98 -113 -172 -45 -74 -115 -179 -156 -233
-90 -120 -71 -115 27 8 115 143 290 417 276 431 -2 2 -17 -13 -34 -34z"/>
<path d="M6295 887 c-14 -8 -99 -13 -267 -15 l-248 -4 0 -72 0 -73 38 -7 c20
-3 56 -6 80 -6 l42 0 0 -265 0 -265 25 0 c14 0 25 -4 25 -10 0 -6 40 -10 100
-10 l100 0 0 274 0 273 67 6 c59 4 71 9 95 36 24 26 28 40 28 87 0 59 2 57
-47 37 -6 -2 -13 2 -15 11 -2 12 -7 13 -23 3z"/>
<path d="M53 863 c-18 -2 -33 -9 -33 -14 0 -5 50 -148 111 -317 61 -169 116
-322 122 -339 l10 -33 76 0 c83 0 142 16 170 46 10 10 57 129 105 264 81 229
114 355 102 387 -6 14 -106 18 -188 7 l-45 -6 -6 -69 c-5 -58 -52 -222 -77
-268 -5 -10 -26 42 -60 148 -28 89 -60 171 -71 182 -16 16 -32 19 -101 17 -46
0 -98 -3 -115 -5z"/>
<path d="M1168 863 l-28 -4 0 -355 0 -354 90 0 c71 0 92 3 96 15 4 8 15 15 25
15 18 0 19 13 19 329 0 330 0 330 -22 345 -22 15 -110 20 -180 9z"/>
<path d="M1893 863 c-10 -4 -13 -85 -13 -359 l0 -354 85 0 c69 0 85 3 85 15 0
8 4 15 10 15 6 0 11 74 12 187 l3 188 87 -86 c95 -94 109 -124 123 -256 l7
-63 79 0 c64 0 79 3 79 15 0 8 5 15 10 15 7 0 9 116 8 343 l-3 342 -70 3
c-120 5 -115 11 -115 -129 l0 -121 -77 65 c-61 50 -85 77 -108 125 l-30 61
-80 0 c-44 0 -86 -3 -92 -6z"/>
<path d="M2997 863 c-4 -3 -7 -165 -7 -360 l0 -353 94 0 c112 0 106 -10 106
163 l0 117 66 0 c59 0 68 3 95 29 25 26 29 37 29 85 l0 56 -95 0 -95 0 0 50 0
49 108 3 107 3 3 83 3 82 -204 0 c-112 0 -207 -3 -210 -7z"/>
<path d="M3991 803 c-11 -37 -58 -191 -105 -341 -46 -150 -82 -282 -79 -293 5
-18 13 -20 92 -17 l86 3 20 43 c26 55 38 62 108 62 58 0 97 21 97 53 1 22 17
-16 25 -58 3 -22 14 -55 22 -72 l15 -33 105 0 c89 0 104 2 99 15 -3 8 -49 158
-102 333 -72 238 -102 323 -120 342 -23 23 -33 25 -134 28 l-109 4 -20 -69z
m164 -266 c14 -46 25 -88 25 -95 0 -8 -19 -12 -56 -12 -48 0 -55 2 -50 18 3 9
15 52 27 95 12 42 23 77 25 77 2 0 15 -37 29 -83z"/>
<path d="M5038 857 c-97 -28 -158 -97 -158 -181 0 -77 55 -136 197 -209 99
-51 121 -74 103 -107 -21 -40 -96 -38 -181 6 -26 13 -50 28 -54 33 -3 6 -19
20 -35 31 l-30 21 0 -75 c0 -70 2 -78 31 -110 17 -20 61 -50 97 -68 60 -30 75
-33 157 -33 73 0 98 4 131 22 78 42 121 117 111 198 -9 82 -62 129 -209 189
-45 18 -86 40 -92 49 -16 25 4 69 37 80 40 13 94 1 102 -23 4 -11 15 -20 25
-20 10 0 20 -6 22 -12 8 -23 58 9 74 48 14 32 13 39 -3 72 -38 77 -205 123
-325 89z"/>
</g>
</svg>
