<?xml version="1.0" encoding="utf-8"?>
<!-- Generator: Adobe Illustrator 27.1.1, SVG Export Plug-In . SVG Version: 6.00 Build 0)  -->
<svg version="1.1" id="Layer_1" xmlns="http://www.w3.org/2000/svg" xmlns:xlink="http://www.w3.org/1999/xlink" x="0px" y="0px"
	 viewBox="0 0 512 512" style="enable-background:new 0 0 512 512;" xml:space="preserve">
<g>
	<polygon points="8.68,242.71 26.32,274.74 46.7,274.74 64.01,242.71 72.7,242.71 72.7,236.94 46.59,236.94 46.59,242.71 
		54.14,242.71 41.53,266.06 28.74,242.71 37.91,242.71 37.91,236.94 0,236.94 0,242.71 	"/>
	<path d="M233.19,242.71v-5.77h34.95v5.77h-8.74v26.16h8.09c7.5,0,12.35-4.91,12.35-11.65h5.77v17.53h-52.47v-5.88h8.79v-26.16
		H233.19z"/>
	<path d="M148.47,236.13c-17.53,0-26.86,8.74-26.86,19.74c0,11.11,8.95,20.01,26.96,20.01s26.86-8.9,26.86-20.01
		C175.43,244.86,165.99,236.13,148.47,236.13z M148.3,269.89c-6.42-0.11-9.22-7.23-9.11-14.24c0.11-7.28,3.61-13.64,9.6-13.54
		c5.99,0.11,9.17,6.58,9.06,13.86C157.69,262.82,154.88,269.99,148.3,269.89z"/>
	<polygon points="345.25,242.71 362.83,274.74 383.27,274.74 400.58,242.71 409.27,242.71 409.27,236.94 383.16,236.94 
		383.16,242.71 390.71,242.71 378.09,266.06 365.31,242.71 374.48,242.71 374.48,236.94 336.57,236.94 336.57,242.71 	"/>
	<path d="M485.04,236.13c-17.53,0-26.86,8.74-26.86,19.74c0,11.11,8.95,20.01,26.96,20.01s26.86-8.9,26.86-20.01
		C512,244.86,502.62,236.13,485.04,236.13z M484.82,269.89c-6.42-0.11-9.22-7.23-9.11-14.24c0.11-7.28,3.61-13.64,9.6-13.54
		c5.99,0.11,9.17,6.58,9.06,13.86C494.26,262.82,491.45,269.99,484.82,269.89z"/>
</g>
</svg>
